%FSLAX45Y45*%
G04 Gerber Fmt 4.5, Leading zero omitted, Abs format (unit mm)*
G04 Created by KiCad (PCBNEW 5.1.5+dfsg1-2build2) date 2022-03-08 20:12:54*
%MOMM*%
%LPD*%
G04 APERTURE LIST*
%TA.AperFunction,Profile*%
%ADD10C,0.050000*%
%TD*%
%ADD11C,0.200000*%
%ADD12C,0.300000*%
G04 APERTURE END LIST*
D10*
X13500000Y-4900000D02*
G75*
G02X14000000Y-5400000I0J-500000D01*
G01*
X4500000Y-5400000D02*
G75*
G02X5000000Y-4900000I500000J0D01*
G01*
X5000000Y-13400000D02*
G75*
G02X4500000Y-12900000I0J500000D01*
G01*
X14000000Y-12900000D02*
G75*
G02X13500000Y-13400000I-500000J0D01*
G01*
X13500000Y-13400000D02*
X5000000Y-13400000D01*
X14000000Y-12900000D02*
X14000000Y-5400000D01*
X13500000Y-4900000D02*
X5000000Y-4900000D01*
X4500000Y-5400000D02*
X4500000Y-12900000D01*
D11*
X5199700Y-7528880D02*
X5239700Y-7568880D01*
X5239700Y-7528880D02*
X5199700Y-7568880D01*
X5199700Y-8036880D02*
X5239700Y-8076880D01*
X5239700Y-8036880D02*
X5199700Y-8076880D01*
X6012500Y-6761800D02*
X6052500Y-6801800D01*
X6052500Y-6761800D02*
X6012500Y-6801800D01*
X6012500Y-6863400D02*
X6052500Y-6903400D01*
X6052500Y-6863400D02*
X6012500Y-6903400D01*
X6076000Y-6571300D02*
X6116000Y-6611300D01*
X6116000Y-6571300D02*
X6076000Y-6611300D01*
X6126800Y-7022150D02*
X6166800Y-7062150D01*
X6166800Y-7022150D02*
X6126800Y-7062150D01*
X6131200Y-8104550D02*
X6171200Y-8144550D01*
X6171200Y-8104550D02*
X6131200Y-8144550D01*
X6355400Y-6571300D02*
X6395400Y-6611300D01*
X6395400Y-6571300D02*
X6355400Y-6611300D01*
X6431600Y-7066600D02*
X6471600Y-7106600D01*
X6471600Y-7066600D02*
X6431600Y-7106600D01*
X6449380Y-8687120D02*
X6489380Y-8727120D01*
X6489380Y-8687120D02*
X6449380Y-8727120D01*
X6455050Y-7713650D02*
X6495050Y-7753650D01*
X6495050Y-7713650D02*
X6455050Y-7753650D01*
X6462080Y-8849680D02*
X6502080Y-8889680D01*
X6502080Y-8849680D02*
X6462080Y-8889680D01*
X6520500Y-6901500D02*
X6560500Y-6941500D01*
X6560500Y-6901500D02*
X6520500Y-6941500D01*
X6631060Y-5470810D02*
X6671060Y-5510810D01*
X6671060Y-5470810D02*
X6631060Y-5510810D01*
X6632260Y-8564000D02*
X6672260Y-8604000D01*
X6672260Y-8564000D02*
X6632260Y-8604000D01*
X6642420Y-8682040D02*
X6682420Y-8722040D01*
X6682420Y-8682040D02*
X6642420Y-8722040D01*
X6662740Y-8359460D02*
X6702740Y-8399460D01*
X6702740Y-8359460D02*
X6662740Y-8399460D01*
X6685450Y-6631700D02*
X6725450Y-6671700D01*
X6725450Y-6631700D02*
X6685450Y-6671700D01*
X6690000Y-7993050D02*
X6730000Y-8033050D01*
X6730000Y-7993050D02*
X6690000Y-8033050D01*
X6691800Y-7000000D02*
X6731800Y-7040000D01*
X6731800Y-7000000D02*
X6691800Y-7040000D01*
X6713540Y-5550220D02*
X6753540Y-5590220D01*
X6753540Y-5550220D02*
X6713540Y-5590220D01*
X6751640Y-8414000D02*
X6791640Y-8454000D01*
X6791640Y-8414000D02*
X6751640Y-8454000D01*
X6855100Y-7916850D02*
X6895100Y-7956850D01*
X6895100Y-7916850D02*
X6855100Y-7956850D01*
X6914200Y-7254560D02*
X6954200Y-7294560D01*
X6954200Y-7254560D02*
X6914200Y-7294560D01*
X6921820Y-8842060D02*
X6961820Y-8882060D01*
X6961820Y-8842060D02*
X6921820Y-8882060D01*
X6924950Y-7485050D02*
X6964950Y-7525050D01*
X6964950Y-7485050D02*
X6924950Y-7525050D01*
X7003100Y-7879400D02*
X7043100Y-7919400D01*
X7043100Y-7879400D02*
X7003100Y-7919400D01*
X7022740Y-7295820D02*
X7062740Y-7335820D01*
X7062740Y-7295820D02*
X7022740Y-7335820D01*
X7026550Y-7542200D02*
X7066550Y-7582200D01*
X7066550Y-7542200D02*
X7026550Y-7582200D01*
X7128150Y-7192950D02*
X7168150Y-7232950D01*
X7168150Y-7192950D02*
X7128150Y-7232950D01*
X7128150Y-7275500D02*
X7168150Y-7315500D01*
X7168150Y-7275500D02*
X7128150Y-7315500D01*
X7145410Y-5464460D02*
X7185410Y-5504460D01*
X7185410Y-5464460D02*
X7145410Y-5504460D01*
X7163233Y-8344333D02*
X7203233Y-8384333D01*
X7203233Y-8344333D02*
X7163233Y-8384333D01*
X7179143Y-8443060D02*
X7219143Y-8483060D01*
X7219143Y-8443060D02*
X7179143Y-8483060D01*
X7187840Y-6988480D02*
X7227840Y-7028480D01*
X7227840Y-6988480D02*
X7187840Y-7028480D01*
X7229160Y-8755700D02*
X7269160Y-8795700D01*
X7269160Y-8755700D02*
X7229160Y-8795700D01*
X7234240Y-8936040D02*
X7274240Y-8976040D01*
X7274240Y-8936040D02*
X7234240Y-8976040D01*
X7236780Y-9055420D02*
X7276780Y-9095420D01*
X7276780Y-9055420D02*
X7236780Y-9095420D01*
X7261166Y-6891337D02*
X7301166Y-6931337D01*
X7301166Y-6891337D02*
X7261166Y-6931337D01*
X7269120Y-6991020D02*
X7309120Y-7031020D01*
X7309120Y-6991020D02*
X7269120Y-7031020D01*
X7308490Y-8689010D02*
X7348490Y-8729010D01*
X7348490Y-8689010D02*
X7308490Y-8729010D01*
X7312980Y-8120700D02*
X7352980Y-8160700D01*
X7352980Y-8120700D02*
X7312980Y-8160700D01*
X7315520Y-7963220D02*
X7355520Y-8003220D01*
X7355520Y-7963220D02*
X7315520Y-8003220D01*
X7328220Y-7765100D02*
X7368220Y-7805100D01*
X7368220Y-7765100D02*
X7328220Y-7805100D01*
X7353620Y-7439980D02*
X7393620Y-7479980D01*
X7393620Y-7439980D02*
X7353620Y-7479980D01*
X7360560Y-6937680D02*
X7400560Y-6977680D01*
X7400560Y-6937680D02*
X7360560Y-6977680D01*
X7424740Y-9243380D02*
X7464740Y-9283380D01*
X7464740Y-9243380D02*
X7424740Y-9283380D01*
X7435490Y-8695360D02*
X7475490Y-8735360D01*
X7475490Y-8695360D02*
X7435490Y-8735360D01*
X7439980Y-9360220D02*
X7479980Y-9400220D01*
X7479980Y-9360220D02*
X7439980Y-9400220D01*
X7498400Y-8114350D02*
X7538400Y-8154350D01*
X7538400Y-8114350D02*
X7498400Y-8154350D01*
X7536910Y-6904748D02*
X7576910Y-6944748D01*
X7576910Y-6904748D02*
X7536910Y-6944748D01*
X7550544Y-8817390D02*
X7590544Y-8857390D01*
X7590544Y-8817390D02*
X7550544Y-8857390D01*
X7652002Y-8684580D02*
X7692002Y-8724580D01*
X7692002Y-8684580D02*
X7652002Y-8724580D01*
X7676932Y-8247220D02*
X7716932Y-8287220D01*
X7716932Y-8247220D02*
X7676932Y-8287220D01*
X7729540Y-8783640D02*
X7769540Y-8823640D01*
X7769540Y-8783640D02*
X7729540Y-8823640D01*
X7786912Y-6688140D02*
X7826912Y-6728140D01*
X7826912Y-6688140D02*
X7786912Y-6728140D01*
X7792569Y-6818300D02*
X7832569Y-6858300D01*
X7832569Y-6818300D02*
X7792569Y-6858300D01*
X7802000Y-7119940D02*
X7842000Y-7159940D01*
X7842000Y-7119940D02*
X7802000Y-7159940D01*
X7815900Y-10053640D02*
X7855900Y-10093640D01*
X7855900Y-10053640D02*
X7815900Y-10093640D01*
X7815900Y-10493060D02*
X7855900Y-10533060D01*
X7855900Y-10493060D02*
X7815900Y-10533060D01*
X7823520Y-7409500D02*
X7863520Y-7449500D01*
X7863520Y-7409500D02*
X7823520Y-7449500D01*
X7826060Y-8247700D02*
X7866060Y-8287700D01*
X7866060Y-8247700D02*
X7826060Y-8287700D01*
X7848920Y-8763320D02*
X7888920Y-8803320D01*
X7888920Y-8763320D02*
X7848920Y-8803320D01*
X7889242Y-8549166D02*
X7929242Y-8589166D01*
X7929242Y-8549166D02*
X7889242Y-8589166D01*
X7894640Y-8649020D02*
X7934640Y-8689020D01*
X7934640Y-8649020D02*
X7894640Y-8689020D01*
X7926060Y-8247700D02*
X7966060Y-8287700D01*
X7966060Y-8247700D02*
X7926060Y-8287700D01*
X7942900Y-9794560D02*
X7982900Y-9834560D01*
X7982900Y-9794560D02*
X7942900Y-9834560D01*
X7952000Y-5203240D02*
X7992000Y-5243240D01*
X7992000Y-5203240D02*
X7952000Y-5243240D01*
X8024180Y-9797100D02*
X8064180Y-9837100D01*
X8064180Y-9797100D02*
X8024180Y-9837100D01*
X8026040Y-8863000D02*
X8066040Y-8903000D01*
X8066040Y-8863000D02*
X8026040Y-8903000D01*
X8026720Y-11465880D02*
X8066720Y-11505880D01*
X8066720Y-11465880D02*
X8026720Y-11505880D01*
X8092080Y-6978320D02*
X8132080Y-7018320D01*
X8132080Y-6978320D02*
X8092080Y-7018320D01*
X8092760Y-7084380D02*
X8132760Y-7124380D01*
X8132760Y-7084380D02*
X8092760Y-7124380D01*
X8120700Y-10597200D02*
X8160700Y-10637200D01*
X8160700Y-10597200D02*
X8120700Y-10637200D01*
X8163880Y-8661720D02*
X8203880Y-8701720D01*
X8203880Y-8661720D02*
X8163880Y-8701720D01*
X8166420Y-8786180D02*
X8206420Y-8826180D01*
X8206420Y-8786180D02*
X8166420Y-8826180D01*
X8174040Y-7917500D02*
X8214040Y-7957500D01*
X8214040Y-7917500D02*
X8174040Y-7957500D01*
X8175900Y-7561250D02*
X8215900Y-7601250D01*
X8215900Y-7561250D02*
X8175900Y-7601250D01*
X8199440Y-9792020D02*
X8239440Y-9832020D01*
X8239440Y-9792020D02*
X8199440Y-9832020D01*
X8205700Y-11778300D02*
X8245700Y-11818300D01*
X8245700Y-11778300D02*
X8205700Y-11818300D01*
X8206000Y-5203240D02*
X8246000Y-5243240D01*
X8246000Y-5203240D02*
X8206000Y-5243240D01*
X8260400Y-7050820D02*
X8300400Y-7090820D01*
X8300400Y-7050820D02*
X8260400Y-7090820D01*
X8280720Y-9792020D02*
X8320720Y-9832020D01*
X8320720Y-9792020D02*
X8280720Y-9832020D01*
X8295960Y-6733100D02*
X8335960Y-6773100D01*
X8335960Y-6733100D02*
X8295960Y-6773100D01*
X8302900Y-8596300D02*
X8342900Y-8636300D01*
X8342900Y-8596300D02*
X8302900Y-8636300D01*
X8309250Y-8462950D02*
X8349250Y-8502950D01*
X8349250Y-8462950D02*
X8309250Y-8502950D01*
X8333000Y-5203240D02*
X8373000Y-5243240D01*
X8373000Y-5203240D02*
X8333000Y-5243240D01*
X8340717Y-9500883D02*
X8380717Y-9540883D01*
X8380717Y-9500883D02*
X8340717Y-9540883D01*
X8372160Y-6208080D02*
X8412160Y-6248080D01*
X8412160Y-6208080D02*
X8372160Y-6248080D01*
X8457250Y-8342950D02*
X8497250Y-8382950D01*
X8497250Y-8342950D02*
X8457250Y-8382950D01*
X8460000Y-5203240D02*
X8500000Y-5243240D01*
X8500000Y-5203240D02*
X8460000Y-5243240D01*
X8480700Y-7370750D02*
X8520700Y-7410750D01*
X8520700Y-7370750D02*
X8480700Y-7410750D01*
X8489000Y-6197920D02*
X8529000Y-6237920D01*
X8529000Y-6197920D02*
X8489000Y-6237920D01*
X8556900Y-7544740D02*
X8596900Y-7584740D01*
X8596900Y-7544740D02*
X8556900Y-7584740D01*
X8565200Y-8412800D02*
X8605200Y-8452800D01*
X8605200Y-8412800D02*
X8565200Y-8452800D01*
X8664260Y-12380280D02*
X8704260Y-12420280D01*
X8704260Y-12380280D02*
X8664260Y-12420280D01*
X8753160Y-9626080D02*
X8793160Y-9666080D01*
X8793160Y-9626080D02*
X8753160Y-9666080D01*
X8753160Y-10640380D02*
X8793160Y-10680380D01*
X8793160Y-10640380D02*
X8753160Y-10680380D01*
X9179880Y-6550980D02*
X9219880Y-6590980D01*
X9219880Y-6550980D02*
X9179880Y-6590980D01*
X9220520Y-9586280D02*
X9260520Y-9626280D01*
X9260520Y-9586280D02*
X9220520Y-9626280D01*
X9220520Y-10632740D02*
X9260520Y-10672740D01*
X9260520Y-10632740D02*
X9220520Y-10672740D01*
X9290960Y-5667680D02*
X9330960Y-5707680D01*
X9330960Y-5667680D02*
X9290960Y-5707680D01*
X9290960Y-5751500D02*
X9330960Y-5791500D01*
X9330960Y-5751500D02*
X9290960Y-5791500D01*
X9367840Y-7917500D02*
X9407840Y-7957500D01*
X9407840Y-7917500D02*
X9367840Y-7957500D01*
X9372920Y-10637840D02*
X9412920Y-10677840D01*
X9412920Y-10637840D02*
X9372920Y-10677840D01*
X9378000Y-8676960D02*
X9418000Y-8716960D01*
X9418000Y-8676960D02*
X9378000Y-8716960D01*
X9378307Y-9166873D02*
X9418307Y-9206873D01*
X9418307Y-9166873D02*
X9378307Y-9206873D01*
X9381503Y-9773277D02*
X9421503Y-9813277D01*
X9421503Y-9773277D02*
X9381503Y-9813277D01*
X9499920Y-10635300D02*
X9539920Y-10675300D01*
X9539920Y-10635300D02*
X9499920Y-10675300D01*
X9507540Y-8359460D02*
X9547540Y-8399460D01*
X9547540Y-8359460D02*
X9507540Y-8399460D01*
X9507540Y-9438960D02*
X9547540Y-9478960D01*
X9547540Y-9438960D02*
X9507540Y-9478960D01*
X9509773Y-9901547D02*
X9549773Y-9941547D01*
X9549773Y-9901547D02*
X9509773Y-9941547D01*
X9632000Y-10637840D02*
X9672000Y-10677840D01*
X9672000Y-10637840D02*
X9632000Y-10677840D01*
X9637080Y-8618540D02*
X9677080Y-8658540D01*
X9677080Y-8618540D02*
X9637080Y-8658540D01*
X9639620Y-9449120D02*
X9679620Y-9489120D01*
X9679620Y-9449120D02*
X9639620Y-9489120D01*
X9639620Y-9936800D02*
X9679620Y-9976800D01*
X9679620Y-9936800D02*
X9639620Y-9976800D01*
X9827580Y-10302560D02*
X9867580Y-10342560D01*
X9867580Y-10302560D02*
X9827580Y-10342560D01*
X9834520Y-5662600D02*
X9874520Y-5702600D01*
X9874520Y-5662600D02*
X9834520Y-5702600D01*
X9834520Y-5746420D02*
X9874520Y-5786420D01*
X9874520Y-5746420D02*
X9834520Y-5786420D01*
X9845360Y-10035860D02*
X9885360Y-10075860D01*
X9885360Y-10035860D02*
X9845360Y-10075860D01*
X10076500Y-11869740D02*
X10116500Y-11909740D01*
X10116500Y-11869740D02*
X10076500Y-11909740D01*
X10208580Y-12067860D02*
X10248580Y-12107860D01*
X10248580Y-12067860D02*
X10208580Y-12107860D01*
X10617520Y-10048560D02*
X10657520Y-10088560D01*
X10657520Y-10048560D02*
X10617520Y-10088560D01*
X10653080Y-9482140D02*
X10693080Y-9522140D01*
X10693080Y-9482140D02*
X10653080Y-9522140D01*
X10702820Y-8819350D02*
X10742820Y-8859350D01*
X10742820Y-8819350D02*
X10702820Y-8859350D01*
X10739440Y-9667560D02*
X10779440Y-9707560D01*
X10779440Y-9667560D02*
X10739440Y-9707560D01*
X10785370Y-8819350D02*
X10825370Y-8859350D01*
X10825370Y-8819350D02*
X10785370Y-8859350D01*
X10814440Y-9378000D02*
X10854440Y-9418000D01*
X10854440Y-9378000D02*
X10814440Y-9418000D01*
X10818180Y-8623620D02*
X10858180Y-8663620D01*
X10858180Y-8623620D02*
X10818180Y-8663620D01*
X10833420Y-8542340D02*
X10873420Y-8582340D01*
X10873420Y-8542340D02*
X10833420Y-8582340D01*
X11470960Y-8867460D02*
X11510960Y-8907460D01*
X11510960Y-8867460D02*
X11470960Y-8907460D01*
X11470960Y-8951280D02*
X11510960Y-8991280D01*
X11510960Y-8951280D02*
X11470960Y-8991280D01*
X11470960Y-9035100D02*
X11510960Y-9075100D01*
X11510960Y-9035100D02*
X11470960Y-9075100D01*
X11473240Y-9626080D02*
X11513240Y-9666080D01*
X11513240Y-9626080D02*
X11473240Y-9666080D01*
X11539540Y-8811580D02*
X11579540Y-8851580D01*
X11579540Y-8811580D02*
X11539540Y-8851580D01*
X11681780Y-8560120D02*
X11721780Y-8600120D01*
X11721780Y-8560120D02*
X11681780Y-8600120D01*
X11681780Y-8803960D02*
X11721780Y-8843960D01*
X11721780Y-8803960D02*
X11681780Y-8843960D01*
X11747820Y-8758240D02*
X11787820Y-8798240D01*
X11787820Y-8758240D02*
X11747820Y-8798240D01*
X11750360Y-8603300D02*
X11790360Y-8643300D01*
X11790360Y-8603300D02*
X11750360Y-8643300D01*
X11752900Y-9830120D02*
X11792900Y-9870120D01*
X11792900Y-9830120D02*
X11752900Y-9870120D01*
X11752900Y-10658160D02*
X11792900Y-10698160D01*
X11792900Y-10658160D02*
X11752900Y-10698160D01*
X11773220Y-10993440D02*
X11813220Y-11033440D01*
X11813220Y-10993440D02*
X11773220Y-11033440D01*
X11834180Y-9830120D02*
X11874180Y-9870120D01*
X11874180Y-9830120D02*
X11834180Y-9870120D01*
X12006900Y-9804720D02*
X12046900Y-9844720D01*
X12046900Y-9804720D02*
X12006900Y-9844720D01*
X12014520Y-10632740D02*
X12054520Y-10672740D01*
X12054520Y-10632740D02*
X12014520Y-10672740D01*
X12088180Y-9804720D02*
X12128180Y-9844720D01*
X12128180Y-9804720D02*
X12088180Y-9844720D01*
X12099400Y-8787400D02*
X12139400Y-8827400D01*
X12139400Y-8787400D02*
X12099400Y-8827400D01*
X12126280Y-10995980D02*
X12166280Y-11035980D01*
X12166280Y-10995980D02*
X12126280Y-11035980D01*
X12181950Y-8787400D02*
X12221950Y-8827400D01*
X12221950Y-8787400D02*
X12181950Y-8827400D01*
X12394350Y-7604150D02*
X12434350Y-7644150D01*
X12434350Y-7604150D02*
X12394350Y-7644150D01*
X12423460Y-8443280D02*
X12463460Y-8483280D01*
X12463460Y-8443280D02*
X12423460Y-8483280D01*
X12423460Y-8524560D02*
X12463460Y-8564560D01*
X12463460Y-8524560D02*
X12423460Y-8564560D01*
X12766150Y-8869950D02*
X12806150Y-8909950D01*
X12806150Y-8869950D02*
X12766150Y-8909950D01*
X12848700Y-8869950D02*
X12888700Y-8909950D01*
X12888700Y-8869950D02*
X12848700Y-8909950D01*
X12931250Y-8869950D02*
X12971250Y-8909950D01*
X12971250Y-8869950D02*
X12931250Y-8909950D01*
X13391300Y-7642250D02*
X13431300Y-7682250D01*
X13431300Y-7642250D02*
X13391300Y-7682250D01*
X13285000Y-5400000D02*
G75*
G03X13285000Y-5400000I-25000J0D01*
G01*
X13355294Y-5230294D02*
G75*
G03X13355294Y-5230294I-25000J0D01*
G01*
X13355294Y-5569706D02*
G75*
G03X13355294Y-5569706I-25000J0D01*
G01*
X13525000Y-5160000D02*
G75*
G03X13525000Y-5160000I-25000J0D01*
G01*
X13525000Y-5640000D02*
G75*
G03X13525000Y-5640000I-25000J0D01*
G01*
X13694706Y-5230294D02*
G75*
G03X13694706Y-5230294I-25000J0D01*
G01*
X13694706Y-5569706D02*
G75*
G03X13694706Y-5569706I-25000J0D01*
G01*
X13765000Y-5400000D02*
G75*
G03X13765000Y-5400000I-25000J0D01*
G01*
X13285000Y-12900000D02*
G75*
G03X13285000Y-12900000I-25000J0D01*
G01*
X13355294Y-12730294D02*
G75*
G03X13355294Y-12730294I-25000J0D01*
G01*
X13355294Y-13069706D02*
G75*
G03X13355294Y-13069706I-25000J0D01*
G01*
X13525000Y-12660000D02*
G75*
G03X13525000Y-12660000I-25000J0D01*
G01*
X13525000Y-13140000D02*
G75*
G03X13525000Y-13140000I-25000J0D01*
G01*
X13694706Y-12730294D02*
G75*
G03X13694706Y-12730294I-25000J0D01*
G01*
X13694706Y-13069706D02*
G75*
G03X13694706Y-13069706I-25000J0D01*
G01*
X13765000Y-12900000D02*
G75*
G03X13765000Y-12900000I-25000J0D01*
G01*
X4785000Y-5400000D02*
G75*
G03X4785000Y-5400000I-25000J0D01*
G01*
X4855294Y-5230294D02*
G75*
G03X4855294Y-5230294I-25000J0D01*
G01*
X4855294Y-5569706D02*
G75*
G03X4855294Y-5569706I-25000J0D01*
G01*
X5025000Y-5160000D02*
G75*
G03X5025000Y-5160000I-25000J0D01*
G01*
X5025000Y-5640000D02*
G75*
G03X5025000Y-5640000I-25000J0D01*
G01*
X5194706Y-5230294D02*
G75*
G03X5194706Y-5230294I-25000J0D01*
G01*
X5194706Y-5569706D02*
G75*
G03X5194706Y-5569706I-25000J0D01*
G01*
X5265000Y-5400000D02*
G75*
G03X5265000Y-5400000I-25000J0D01*
G01*
X4785000Y-12900000D02*
G75*
G03X4785000Y-12900000I-25000J0D01*
G01*
X4855294Y-12730294D02*
G75*
G03X4855294Y-12730294I-25000J0D01*
G01*
X4855294Y-13069706D02*
G75*
G03X4855294Y-13069706I-25000J0D01*
G01*
X5025000Y-12660000D02*
G75*
G03X5025000Y-12660000I-25000J0D01*
G01*
X5025000Y-13140000D02*
G75*
G03X5025000Y-13140000I-25000J0D01*
G01*
X5194706Y-12730294D02*
G75*
G03X5194706Y-12730294I-25000J0D01*
G01*
X5194706Y-13069706D02*
G75*
G03X5194706Y-13069706I-25000J0D01*
G01*
X5265000Y-12900000D02*
G75*
G03X5265000Y-12900000I-25000J0D01*
G01*
X13530140Y-7515980D02*
X13530140Y-7580980D01*
X13497640Y-7548480D02*
X13562640Y-7548480D01*
X13550140Y-7525980D02*
X13510140Y-7525980D01*
X13550140Y-7570980D02*
X13510140Y-7570980D01*
X13510140Y-7525980D02*
G75*
G03X13510140Y-7570980I0J-22500D01*
G01*
X13550140Y-7570980D02*
G75*
G03X13550140Y-7525980I0J22500D01*
G01*
X13530140Y-7999980D02*
X13530140Y-8064980D01*
X13497640Y-8032480D02*
X13562640Y-8032480D01*
X13550140Y-8009980D02*
X13510140Y-8009980D01*
X13550140Y-8054980D02*
X13510140Y-8054980D01*
X13510140Y-8009980D02*
G75*
G03X13510140Y-8054980I0J-22500D01*
G01*
X13550140Y-8054980D02*
G75*
G03X13550140Y-8009980I0J22500D01*
G01*
X13854889Y-7542229D02*
X13854889Y-7492731D01*
X13805391Y-7492731D01*
X13805391Y-7542229D01*
X13854889Y-7542229D01*
X13855140Y-7492480D02*
X13805140Y-7492480D01*
X13855140Y-7542480D02*
X13805140Y-7542480D01*
X13805140Y-7492480D02*
G75*
G03X13805140Y-7542480I0J-25000D01*
G01*
X13855140Y-7542480D02*
G75*
G03X13855140Y-7492480I0J25000D01*
G01*
X13854889Y-8088229D02*
X13854889Y-8038731D01*
X13805391Y-8038731D01*
X13805391Y-8088229D01*
X13854889Y-8088229D01*
X13855140Y-8038480D02*
X13805140Y-8038480D01*
X13855140Y-8088480D02*
X13805140Y-8088480D01*
X13805140Y-8038480D02*
G75*
G03X13805140Y-8088480I0J-25000D01*
G01*
X13855140Y-8088480D02*
G75*
G03X13855140Y-8038480I0J25000D01*
G01*
X11552130Y-12741840D02*
X11589630Y-12704340D01*
X11552130Y-12666840D01*
X11514630Y-12704340D01*
X11552130Y-12741840D01*
X11752130Y-12741840D02*
X11789630Y-12704340D01*
X11752130Y-12666840D01*
X11714630Y-12704340D01*
X11752130Y-12741840D01*
X11952130Y-12741840D02*
X11989630Y-12704340D01*
X11952130Y-12666840D01*
X11914630Y-12704340D01*
X11952130Y-12741840D01*
X12152130Y-12741840D02*
X12189630Y-12704340D01*
X12152130Y-12666840D01*
X12114630Y-12704340D01*
X12152130Y-12741840D01*
X12352130Y-12741840D02*
X12389630Y-12704340D01*
X12352130Y-12666840D01*
X12314630Y-12704340D01*
X12352130Y-12741840D01*
X12552130Y-12741840D02*
X12589630Y-12704340D01*
X12552130Y-12666840D01*
X12514630Y-12704340D01*
X12552130Y-12741840D01*
X7743400Y-12740570D02*
X7780900Y-12703070D01*
X7743400Y-12665570D01*
X7705900Y-12703070D01*
X7743400Y-12740570D01*
X7943400Y-12740570D02*
X7980900Y-12703070D01*
X7943400Y-12665570D01*
X7905900Y-12703070D01*
X7943400Y-12740570D01*
X8143400Y-12740570D02*
X8180900Y-12703070D01*
X8143400Y-12665570D01*
X8105900Y-12703070D01*
X8143400Y-12740570D01*
X8343400Y-12740570D02*
X8380900Y-12703070D01*
X8343400Y-12665570D01*
X8305900Y-12703070D01*
X8343400Y-12740570D01*
X8543400Y-12740570D02*
X8580900Y-12703070D01*
X8543400Y-12665570D01*
X8505900Y-12703070D01*
X8543400Y-12740570D01*
X8743400Y-12740570D02*
X8780900Y-12703070D01*
X8743400Y-12665570D01*
X8705900Y-12703070D01*
X8743400Y-12740570D01*
X5929840Y-12734220D02*
X5967340Y-12696720D01*
X5929840Y-12659220D01*
X5892340Y-12696720D01*
X5929840Y-12734220D01*
X6129840Y-12734220D02*
X6167340Y-12696720D01*
X6129840Y-12659220D01*
X6092340Y-12696720D01*
X6129840Y-12734220D01*
X6329840Y-12734220D02*
X6367340Y-12696720D01*
X6329840Y-12659220D01*
X6292340Y-12696720D01*
X6329840Y-12734220D01*
X6529840Y-12734220D02*
X6567340Y-12696720D01*
X6529840Y-12659220D01*
X6492340Y-12696720D01*
X6529840Y-12734220D01*
X6729840Y-12734220D02*
X6767340Y-12696720D01*
X6729840Y-12659220D01*
X6692340Y-12696720D01*
X6729840Y-12734220D01*
X6929840Y-12734220D02*
X6967340Y-12696720D01*
X6929840Y-12659220D01*
X6892340Y-12696720D01*
X6929840Y-12734220D01*
X9739840Y-12741840D02*
X9777340Y-12704340D01*
X9739840Y-12666840D01*
X9702340Y-12704340D01*
X9739840Y-12741840D01*
X9939840Y-12741840D02*
X9977340Y-12704340D01*
X9939840Y-12666840D01*
X9902340Y-12704340D01*
X9939840Y-12741840D01*
X10139840Y-12741840D02*
X10177340Y-12704340D01*
X10139840Y-12666840D01*
X10102340Y-12704340D01*
X10139840Y-12741840D01*
X10339840Y-12741840D02*
X10377340Y-12704340D01*
X10339840Y-12666840D01*
X10302340Y-12704340D01*
X10339840Y-12741840D01*
X10539840Y-12741840D02*
X10577340Y-12704340D01*
X10539840Y-12666840D01*
X10502340Y-12704340D01*
X10539840Y-12741840D01*
X10739840Y-12741840D02*
X10777340Y-12704340D01*
X10739840Y-12666840D01*
X10702340Y-12704340D01*
X10739840Y-12741840D01*
X6136380Y-10186730D02*
X6236380Y-10286730D01*
X6236380Y-10186730D02*
X6136380Y-10286730D01*
X6236380Y-10236730D02*
G75*
G03X6236380Y-10236730I-50000J0D01*
G01*
X6390380Y-10186730D02*
X6490380Y-10286730D01*
X6490380Y-10186730D02*
X6390380Y-10286730D01*
X6490380Y-10236730D02*
G75*
G03X6490380Y-10236730I-50000J0D01*
G01*
X6644380Y-10186730D02*
X6744380Y-10286730D01*
X6744380Y-10186730D02*
X6644380Y-10286730D01*
X6744380Y-10236730D02*
G75*
G03X6744380Y-10236730I-50000J0D01*
G01*
X6644380Y-11710730D02*
X6744380Y-11810730D01*
X6744380Y-11710730D02*
X6644380Y-11810730D01*
X6744380Y-11760730D02*
G75*
G03X6744380Y-11760730I-50000J0D01*
G01*
X6898380Y-10186730D02*
X6998380Y-10286730D01*
X6998380Y-10186730D02*
X6898380Y-10286730D01*
X6998380Y-10236730D02*
G75*
G03X6998380Y-10236730I-50000J0D01*
G01*
X6898380Y-11710730D02*
X6998380Y-11810730D01*
X6998380Y-11710730D02*
X6898380Y-11810730D01*
X6998380Y-11760730D02*
G75*
G03X6998380Y-11760730I-50000J0D01*
G01*
X7152380Y-10186730D02*
X7252380Y-10286730D01*
X7252380Y-10186730D02*
X7152380Y-10286730D01*
X7252380Y-10236730D02*
G75*
G03X7252380Y-10236730I-50000J0D01*
G01*
X7152380Y-11710730D02*
X7252380Y-11810730D01*
X7252380Y-11710730D02*
X7152380Y-11810730D01*
X7252380Y-11760730D02*
G75*
G03X7252380Y-11760730I-50000J0D01*
G01*
X7406380Y-10186730D02*
X7506380Y-10286730D01*
X7506380Y-10186730D02*
X7406380Y-10286730D01*
X7506380Y-10236730D02*
G75*
G03X7506380Y-10236730I-50000J0D01*
G01*
X7406380Y-11710730D02*
X7506380Y-11810730D01*
X7506380Y-11710730D02*
X7406380Y-11810730D01*
X7506380Y-11760730D02*
G75*
G03X7506380Y-11760730I-50000J0D01*
G01*
X7660380Y-10186730D02*
X7760380Y-10286730D01*
X7760380Y-10186730D02*
X7660380Y-10286730D01*
X7760380Y-10236730D02*
G75*
G03X7760380Y-10236730I-50000J0D01*
G01*
X7660380Y-11710730D02*
X7760380Y-11810730D01*
X7760380Y-11710730D02*
X7660380Y-11810730D01*
X7760380Y-11760730D02*
G75*
G03X7760380Y-11760730I-50000J0D01*
G01*
X7914380Y-10186730D02*
X8014380Y-10286730D01*
X8014380Y-10186730D02*
X7914380Y-10286730D01*
X8014380Y-10236730D02*
G75*
G03X8014380Y-10236730I-50000J0D01*
G01*
X7914380Y-11710730D02*
X8014380Y-11810730D01*
X8014380Y-11710730D02*
X7914380Y-11810730D01*
X8014380Y-11760730D02*
G75*
G03X8014380Y-11760730I-50000J0D01*
G01*
X8168380Y-10186730D02*
X8268380Y-10286730D01*
X8268380Y-10186730D02*
X8168380Y-10286730D01*
X8268380Y-10236730D02*
G75*
G03X8268380Y-10236730I-50000J0D01*
G01*
X8422380Y-10186730D02*
X8522380Y-10286730D01*
X8522380Y-10186730D02*
X8422380Y-10286730D01*
X8522380Y-10236730D02*
G75*
G03X8522380Y-10236730I-50000J0D01*
G01*
X9403200Y-6013600D02*
X9503200Y-6113600D01*
X9503200Y-6013600D02*
X9403200Y-6113600D01*
X9503200Y-6063600D02*
G75*
G03X9503200Y-6063600I-50000J0D01*
G01*
X9403200Y-6267600D02*
X9503200Y-6367600D01*
X9503200Y-6267600D02*
X9403200Y-6367600D01*
X9503200Y-6317600D02*
G75*
G03X9503200Y-6317600I-50000J0D01*
G01*
X9403200Y-6521600D02*
X9503200Y-6621600D01*
X9503200Y-6521600D02*
X9403200Y-6621600D01*
X9503200Y-6571600D02*
G75*
G03X9503200Y-6571600I-50000J0D01*
G01*
X9403200Y-6775600D02*
X9503200Y-6875600D01*
X9503200Y-6775600D02*
X9403200Y-6875600D01*
X9503200Y-6825600D02*
G75*
G03X9503200Y-6825600I-50000J0D01*
G01*
X9657200Y-6013600D02*
X9757200Y-6113600D01*
X9757200Y-6013600D02*
X9657200Y-6113600D01*
X9757200Y-6063600D02*
G75*
G03X9757200Y-6063600I-50000J0D01*
G01*
X9657200Y-6267600D02*
X9757200Y-6367600D01*
X9757200Y-6267600D02*
X9657200Y-6367600D01*
X9757200Y-6317600D02*
G75*
G03X9757200Y-6317600I-50000J0D01*
G01*
X9657200Y-6521600D02*
X9757200Y-6621600D01*
X9757200Y-6521600D02*
X9657200Y-6621600D01*
X9757200Y-6571600D02*
G75*
G03X9757200Y-6571600I-50000J0D01*
G01*
X9657200Y-6775600D02*
X9757200Y-6875600D01*
X9757200Y-6775600D02*
X9657200Y-6875600D01*
X9757200Y-6825600D02*
G75*
G03X9757200Y-6825600I-50000J0D01*
G01*
X5843660Y-5308460D02*
X5943660Y-5408460D01*
X5943660Y-5308460D02*
X5843660Y-5408460D01*
X5943660Y-5358460D02*
G75*
G03X5943660Y-5358460I-50000J0D01*
G01*
X6097660Y-5308460D02*
X6197660Y-5408460D01*
X6197660Y-5308460D02*
X6097660Y-5408460D01*
X6197660Y-5358460D02*
G75*
G03X6197660Y-5358460I-50000J0D01*
G01*
X6351660Y-5308460D02*
X6451660Y-5408460D01*
X6451660Y-5308460D02*
X6351660Y-5408460D01*
X6451660Y-5358460D02*
G75*
G03X6451660Y-5358460I-50000J0D01*
G01*
X6605660Y-5308460D02*
X6705660Y-5408460D01*
X6705660Y-5308460D02*
X6605660Y-5408460D01*
X6705660Y-5358460D02*
G75*
G03X6705660Y-5358460I-50000J0D01*
G01*
X6859660Y-5308460D02*
X6959660Y-5408460D01*
X6959660Y-5308460D02*
X6859660Y-5408460D01*
X6959660Y-5358460D02*
G75*
G03X6959660Y-5358460I-50000J0D01*
G01*
X7113660Y-5308460D02*
X7213660Y-5408460D01*
X7213660Y-5308460D02*
X7113660Y-5408460D01*
X7213660Y-5358460D02*
G75*
G03X7213660Y-5358460I-50000J0D01*
G01*
X5012220Y-7498880D02*
X5112220Y-7598880D01*
X5112220Y-7498880D02*
X5012220Y-7598880D01*
X5112220Y-7548880D02*
G75*
G03X5112220Y-7548880I-50000J0D01*
G01*
X5012220Y-7752880D02*
X5112220Y-7852880D01*
X5112220Y-7752880D02*
X5012220Y-7852880D01*
X5112220Y-7802880D02*
G75*
G03X5112220Y-7802880I-50000J0D01*
G01*
X5012220Y-8006880D02*
X5112220Y-8106880D01*
X5112220Y-8006880D02*
X5012220Y-8106880D01*
X5112220Y-8056880D02*
G75*
G03X5112220Y-8056880I-50000J0D01*
G01*
X5017300Y-8763800D02*
X5117300Y-8863800D01*
X5117300Y-8763800D02*
X5017300Y-8863800D01*
X5117300Y-8813800D02*
G75*
G03X5117300Y-8813800I-50000J0D01*
G01*
X5017300Y-9017800D02*
X5117300Y-9117800D01*
X5117300Y-9017800D02*
X5017300Y-9117800D01*
X5117300Y-9067800D02*
G75*
G03X5117300Y-9067800I-50000J0D01*
G01*
X5017300Y-9271800D02*
X5117300Y-9371800D01*
X5117300Y-9271800D02*
X5017300Y-9371800D01*
X5117300Y-9321800D02*
G75*
G03X5117300Y-9321800I-50000J0D01*
G01*
X9945110Y-10190540D02*
X10045110Y-10290540D01*
X10045110Y-10190540D02*
X9945110Y-10290540D01*
X10045110Y-10240540D02*
G75*
G03X10045110Y-10240540I-50000J0D01*
G01*
X10199110Y-10190540D02*
X10299110Y-10290540D01*
X10299110Y-10190540D02*
X10199110Y-10290540D01*
X10299110Y-10240540D02*
G75*
G03X10299110Y-10240540I-50000J0D01*
G01*
X10453110Y-10190540D02*
X10553110Y-10290540D01*
X10553110Y-10190540D02*
X10453110Y-10290540D01*
X10553110Y-10240540D02*
G75*
G03X10553110Y-10240540I-50000J0D01*
G01*
X10453110Y-11714540D02*
X10553110Y-11814540D01*
X10553110Y-11714540D02*
X10453110Y-11814540D01*
X10553110Y-11764540D02*
G75*
G03X10553110Y-11764540I-50000J0D01*
G01*
X10707110Y-10190540D02*
X10807110Y-10290540D01*
X10807110Y-10190540D02*
X10707110Y-10290540D01*
X10807110Y-10240540D02*
G75*
G03X10807110Y-10240540I-50000J0D01*
G01*
X10707110Y-11714540D02*
X10807110Y-11814540D01*
X10807110Y-11714540D02*
X10707110Y-11814540D01*
X10807110Y-11764540D02*
G75*
G03X10807110Y-11764540I-50000J0D01*
G01*
X10961110Y-10190540D02*
X11061110Y-10290540D01*
X11061110Y-10190540D02*
X10961110Y-10290540D01*
X11061110Y-10240540D02*
G75*
G03X11061110Y-10240540I-50000J0D01*
G01*
X10961110Y-11714540D02*
X11061110Y-11814540D01*
X11061110Y-11714540D02*
X10961110Y-11814540D01*
X11061110Y-11764540D02*
G75*
G03X11061110Y-11764540I-50000J0D01*
G01*
X11215110Y-10190540D02*
X11315110Y-10290540D01*
X11315110Y-10190540D02*
X11215110Y-10290540D01*
X11315110Y-10240540D02*
G75*
G03X11315110Y-10240540I-50000J0D01*
G01*
X11215110Y-11714540D02*
X11315110Y-11814540D01*
X11315110Y-11714540D02*
X11215110Y-11814540D01*
X11315110Y-11764540D02*
G75*
G03X11315110Y-11764540I-50000J0D01*
G01*
X11469110Y-10190540D02*
X11569110Y-10290540D01*
X11569110Y-10190540D02*
X11469110Y-10290540D01*
X11569110Y-10240540D02*
G75*
G03X11569110Y-10240540I-50000J0D01*
G01*
X11469110Y-11714540D02*
X11569110Y-11814540D01*
X11569110Y-11714540D02*
X11469110Y-11814540D01*
X11569110Y-11764540D02*
G75*
G03X11569110Y-11764540I-50000J0D01*
G01*
X11723110Y-10190540D02*
X11823110Y-10290540D01*
X11823110Y-10190540D02*
X11723110Y-10290540D01*
X11823110Y-10240540D02*
G75*
G03X11823110Y-10240540I-50000J0D01*
G01*
X11723110Y-11714540D02*
X11823110Y-11814540D01*
X11823110Y-11714540D02*
X11723110Y-11814540D01*
X11823110Y-11764540D02*
G75*
G03X11823110Y-11764540I-50000J0D01*
G01*
X11977110Y-10190540D02*
X12077110Y-10290540D01*
X12077110Y-10190540D02*
X11977110Y-10290540D01*
X12077110Y-10240540D02*
G75*
G03X12077110Y-10240540I-50000J0D01*
G01*
X12231110Y-10190540D02*
X12331110Y-10290540D01*
X12331110Y-10190540D02*
X12231110Y-10290540D01*
X12331110Y-10240540D02*
G75*
G03X12331110Y-10240540I-50000J0D01*
G01*
X11578120Y-8652040D02*
X11678120Y-8752040D01*
X11678120Y-8652040D02*
X11578120Y-8752040D01*
X11678120Y-8702040D02*
G75*
G03X11678120Y-8702040I-50000J0D01*
G01*
X11578120Y-8906040D02*
X11678120Y-9006040D01*
X11678120Y-8906040D02*
X11578120Y-9006040D01*
X11678120Y-8956040D02*
G75*
G03X11678120Y-8956040I-50000J0D01*
G01*
X11578120Y-9160040D02*
X11678120Y-9260040D01*
X11678120Y-9160040D02*
X11578120Y-9260040D01*
X11678120Y-9210040D02*
G75*
G03X11678120Y-9210040I-50000J0D01*
G01*
X13324400Y-8928200D02*
X13454400Y-9058200D01*
X13454400Y-8928200D02*
X13324400Y-9058200D01*
X13389400Y-8928200D02*
X13389400Y-9058200D01*
X13324400Y-8993200D02*
X13454400Y-8993200D01*
X13324400Y-9428200D02*
X13454400Y-9558200D01*
X13454400Y-9428200D02*
X13324400Y-9558200D01*
X13389400Y-9428200D02*
X13389400Y-9558200D01*
X13324400Y-9493200D02*
X13454400Y-9493200D01*
X13340000Y-5240000D02*
X13660000Y-5560000D01*
X13660000Y-5240000D02*
X13340000Y-5560000D01*
X13613138Y-5513138D02*
X13613138Y-5286862D01*
X13386862Y-5286862D01*
X13386862Y-5513138D01*
X13613138Y-5513138D01*
X13340000Y-12740000D02*
X13660000Y-13060000D01*
X13660000Y-12740000D02*
X13340000Y-13060000D01*
X13613138Y-13013138D02*
X13613138Y-12786862D01*
X13386862Y-12786862D01*
X13386862Y-13013138D01*
X13613138Y-13013138D01*
X4840000Y-5240000D02*
X5160000Y-5560000D01*
X5160000Y-5240000D02*
X4840000Y-5560000D01*
X5113138Y-5513138D02*
X5113138Y-5286862D01*
X4886862Y-5286862D01*
X4886862Y-5513138D01*
X5113138Y-5513138D01*
X4840000Y-12740000D02*
X5160000Y-13060000D01*
X5160000Y-12740000D02*
X4840000Y-13060000D01*
X5113138Y-13013138D02*
X5113138Y-12786862D01*
X4886862Y-12786862D01*
X4886862Y-13013138D01*
X5113138Y-13013138D01*
D12*
X4783928Y-13868214D02*
X4783928Y-13568214D01*
X4855357Y-13568214D01*
X4898214Y-13582500D01*
X4926786Y-13611071D01*
X4941071Y-13639643D01*
X4955357Y-13696786D01*
X4955357Y-13739643D01*
X4941071Y-13796786D01*
X4926786Y-13825357D01*
X4898214Y-13853929D01*
X4855357Y-13868214D01*
X4783928Y-13868214D01*
X5083928Y-13868214D02*
X5083928Y-13668214D01*
X5083928Y-13725357D02*
X5098214Y-13696786D01*
X5112500Y-13682500D01*
X5141071Y-13668214D01*
X5169643Y-13668214D01*
X5269643Y-13868214D02*
X5269643Y-13668214D01*
X5269643Y-13568214D02*
X5255357Y-13582500D01*
X5269643Y-13596786D01*
X5283928Y-13582500D01*
X5269643Y-13568214D01*
X5269643Y-13596786D01*
X5455357Y-13868214D02*
X5426786Y-13853929D01*
X5412500Y-13825357D01*
X5412500Y-13568214D01*
X5612500Y-13868214D02*
X5583928Y-13853929D01*
X5569643Y-13825357D01*
X5569643Y-13568214D01*
X5955357Y-13868214D02*
X5955357Y-13568214D01*
X6055357Y-13782500D01*
X6155357Y-13568214D01*
X6155357Y-13868214D01*
X6426786Y-13868214D02*
X6426786Y-13711071D01*
X6412500Y-13682500D01*
X6383928Y-13668214D01*
X6326786Y-13668214D01*
X6298214Y-13682500D01*
X6426786Y-13853929D02*
X6398214Y-13868214D01*
X6326786Y-13868214D01*
X6298214Y-13853929D01*
X6283928Y-13825357D01*
X6283928Y-13796786D01*
X6298214Y-13768214D01*
X6326786Y-13753929D01*
X6398214Y-13753929D01*
X6426786Y-13739643D01*
X6569643Y-13668214D02*
X6569643Y-13968214D01*
X6569643Y-13682500D02*
X6598214Y-13668214D01*
X6655357Y-13668214D01*
X6683928Y-13682500D01*
X6698214Y-13696786D01*
X6712500Y-13725357D01*
X6712500Y-13811071D01*
X6698214Y-13839643D01*
X6683928Y-13853929D01*
X6655357Y-13868214D01*
X6598214Y-13868214D01*
X6569643Y-13853929D01*
X6841071Y-13839643D02*
X6855357Y-13853929D01*
X6841071Y-13868214D01*
X6826786Y-13853929D01*
X6841071Y-13839643D01*
X6841071Y-13868214D01*
X6841071Y-13682500D02*
X6855357Y-13696786D01*
X6841071Y-13711071D01*
X6826786Y-13696786D01*
X6841071Y-13682500D01*
X6841071Y-13711071D01*
X4457500Y-14342500D02*
X4497500Y-14382500D01*
X4497500Y-14342500D02*
X4457500Y-14382500D01*
X4841071Y-14198214D02*
X4869643Y-14198214D01*
X4898214Y-14212500D01*
X4912500Y-14226786D01*
X4926786Y-14255357D01*
X4941071Y-14312500D01*
X4941071Y-14383929D01*
X4926786Y-14441071D01*
X4912500Y-14469643D01*
X4898214Y-14483929D01*
X4869643Y-14498214D01*
X4841071Y-14498214D01*
X4812500Y-14483929D01*
X4798214Y-14469643D01*
X4783928Y-14441071D01*
X4769643Y-14383929D01*
X4769643Y-14312500D01*
X4783928Y-14255357D01*
X4798214Y-14226786D01*
X4812500Y-14212500D01*
X4841071Y-14198214D01*
X5069643Y-14469643D02*
X5083928Y-14483929D01*
X5069643Y-14498214D01*
X5055357Y-14483929D01*
X5069643Y-14469643D01*
X5069643Y-14498214D01*
X5341071Y-14298214D02*
X5341071Y-14498214D01*
X5269643Y-14183929D02*
X5198214Y-14398214D01*
X5383928Y-14398214D01*
X5555357Y-14198214D02*
X5583928Y-14198214D01*
X5612500Y-14212500D01*
X5626786Y-14226786D01*
X5641071Y-14255357D01*
X5655357Y-14312500D01*
X5655357Y-14383929D01*
X5641071Y-14441071D01*
X5626786Y-14469643D01*
X5612500Y-14483929D01*
X5583928Y-14498214D01*
X5555357Y-14498214D01*
X5526786Y-14483929D01*
X5512500Y-14469643D01*
X5498214Y-14441071D01*
X5483928Y-14383929D01*
X5483928Y-14312500D01*
X5498214Y-14255357D01*
X5512500Y-14226786D01*
X5526786Y-14212500D01*
X5555357Y-14198214D01*
X5783928Y-14498214D02*
X5783928Y-14298214D01*
X5783928Y-14326786D02*
X5798214Y-14312500D01*
X5826786Y-14298214D01*
X5869643Y-14298214D01*
X5898214Y-14312500D01*
X5912500Y-14341071D01*
X5912500Y-14498214D01*
X5912500Y-14341071D02*
X5926786Y-14312500D01*
X5955357Y-14298214D01*
X5998214Y-14298214D01*
X6026786Y-14312500D01*
X6041071Y-14341071D01*
X6041071Y-14498214D01*
X6183928Y-14498214D02*
X6183928Y-14298214D01*
X6183928Y-14326786D02*
X6198214Y-14312500D01*
X6226786Y-14298214D01*
X6269643Y-14298214D01*
X6298214Y-14312500D01*
X6312500Y-14341071D01*
X6312500Y-14498214D01*
X6312500Y-14341071D02*
X6326786Y-14312500D01*
X6355357Y-14298214D01*
X6398214Y-14298214D01*
X6426786Y-14312500D01*
X6441071Y-14341071D01*
X6441071Y-14498214D01*
X7026786Y-14183929D02*
X6769643Y-14569643D01*
X7412500Y-14198214D02*
X7441071Y-14198214D01*
X7469643Y-14212500D01*
X7483928Y-14226786D01*
X7498214Y-14255357D01*
X7512500Y-14312500D01*
X7512500Y-14383929D01*
X7498214Y-14441071D01*
X7483928Y-14469643D01*
X7469643Y-14483929D01*
X7441071Y-14498214D01*
X7412500Y-14498214D01*
X7383928Y-14483929D01*
X7369643Y-14469643D01*
X7355357Y-14441071D01*
X7341071Y-14383929D01*
X7341071Y-14312500D01*
X7355357Y-14255357D01*
X7369643Y-14226786D01*
X7383928Y-14212500D01*
X7412500Y-14198214D01*
X7641071Y-14469643D02*
X7655357Y-14483929D01*
X7641071Y-14498214D01*
X7626786Y-14483929D01*
X7641071Y-14469643D01*
X7641071Y-14498214D01*
X7841071Y-14198214D02*
X7869643Y-14198214D01*
X7898214Y-14212500D01*
X7912500Y-14226786D01*
X7926786Y-14255357D01*
X7941071Y-14312500D01*
X7941071Y-14383929D01*
X7926786Y-14441071D01*
X7912500Y-14469643D01*
X7898214Y-14483929D01*
X7869643Y-14498214D01*
X7841071Y-14498214D01*
X7812500Y-14483929D01*
X7798214Y-14469643D01*
X7783928Y-14441071D01*
X7769643Y-14383929D01*
X7769643Y-14312500D01*
X7783928Y-14255357D01*
X7798214Y-14226786D01*
X7812500Y-14212500D01*
X7841071Y-14198214D01*
X8226786Y-14498214D02*
X8055357Y-14498214D01*
X8141071Y-14498214D02*
X8141071Y-14198214D01*
X8112500Y-14241071D01*
X8083928Y-14269643D01*
X8055357Y-14283929D01*
X8483928Y-14198214D02*
X8426786Y-14198214D01*
X8398214Y-14212500D01*
X8383928Y-14226786D01*
X8355357Y-14269643D01*
X8341071Y-14326786D01*
X8341071Y-14441071D01*
X8355357Y-14469643D01*
X8369643Y-14483929D01*
X8398214Y-14498214D01*
X8455357Y-14498214D01*
X8483928Y-14483929D01*
X8498214Y-14469643D01*
X8512500Y-14441071D01*
X8512500Y-14369643D01*
X8498214Y-14341071D01*
X8483928Y-14326786D01*
X8455357Y-14312500D01*
X8398214Y-14312500D01*
X8369643Y-14326786D01*
X8355357Y-14341071D01*
X8341071Y-14369643D01*
X8626786Y-14198214D02*
X8626786Y-14255357D01*
X8741071Y-14198214D02*
X8741071Y-14255357D01*
X9183928Y-14612500D02*
X9169643Y-14598214D01*
X9141071Y-14555357D01*
X9126786Y-14526786D01*
X9112500Y-14483929D01*
X9098214Y-14412500D01*
X9098214Y-14355357D01*
X9112500Y-14283929D01*
X9126786Y-14241071D01*
X9141071Y-14212500D01*
X9169643Y-14169643D01*
X9183928Y-14155357D01*
X9455357Y-14498214D02*
X9283928Y-14498214D01*
X9369643Y-14498214D02*
X9369643Y-14198214D01*
X9341071Y-14241071D01*
X9312500Y-14269643D01*
X9283928Y-14283929D01*
X9726786Y-14198214D02*
X9583928Y-14198214D01*
X9569643Y-14341071D01*
X9583928Y-14326786D01*
X9612500Y-14312500D01*
X9683928Y-14312500D01*
X9712500Y-14326786D01*
X9726786Y-14341071D01*
X9741071Y-14369643D01*
X9741071Y-14441071D01*
X9726786Y-14469643D01*
X9712500Y-14483929D01*
X9683928Y-14498214D01*
X9612500Y-14498214D01*
X9583928Y-14483929D01*
X9569643Y-14469643D01*
X9998214Y-14198214D02*
X9941071Y-14198214D01*
X9912500Y-14212500D01*
X9898214Y-14226786D01*
X9869643Y-14269643D01*
X9855357Y-14326786D01*
X9855357Y-14441071D01*
X9869643Y-14469643D01*
X9883928Y-14483929D01*
X9912500Y-14498214D01*
X9969643Y-14498214D01*
X9998214Y-14483929D01*
X10012500Y-14469643D01*
X10026786Y-14441071D01*
X10026786Y-14369643D01*
X10012500Y-14341071D01*
X9998214Y-14326786D01*
X9969643Y-14312500D01*
X9912500Y-14312500D01*
X9883928Y-14326786D01*
X9869643Y-14341071D01*
X9855357Y-14369643D01*
X10383928Y-14498214D02*
X10383928Y-14198214D01*
X10512500Y-14498214D02*
X10512500Y-14341071D01*
X10498214Y-14312500D01*
X10469643Y-14298214D01*
X10426786Y-14298214D01*
X10398214Y-14312500D01*
X10383928Y-14326786D01*
X10698214Y-14498214D02*
X10669643Y-14483929D01*
X10655357Y-14469643D01*
X10641071Y-14441071D01*
X10641071Y-14355357D01*
X10655357Y-14326786D01*
X10669643Y-14312500D01*
X10698214Y-14298214D01*
X10741071Y-14298214D01*
X10769643Y-14312500D01*
X10783928Y-14326786D01*
X10798214Y-14355357D01*
X10798214Y-14441071D01*
X10783928Y-14469643D01*
X10769643Y-14483929D01*
X10741071Y-14498214D01*
X10698214Y-14498214D01*
X10969643Y-14498214D02*
X10941071Y-14483929D01*
X10926786Y-14455357D01*
X10926786Y-14198214D01*
X11198214Y-14483929D02*
X11169643Y-14498214D01*
X11112500Y-14498214D01*
X11083928Y-14483929D01*
X11069643Y-14455357D01*
X11069643Y-14341071D01*
X11083928Y-14312500D01*
X11112500Y-14298214D01*
X11169643Y-14298214D01*
X11198214Y-14312500D01*
X11212500Y-14341071D01*
X11212500Y-14369643D01*
X11069643Y-14398214D01*
X11326786Y-14483929D02*
X11355357Y-14498214D01*
X11412500Y-14498214D01*
X11441071Y-14483929D01*
X11455357Y-14455357D01*
X11455357Y-14441071D01*
X11441071Y-14412500D01*
X11412500Y-14398214D01*
X11369643Y-14398214D01*
X11341071Y-14383929D01*
X11326786Y-14355357D01*
X11326786Y-14341071D01*
X11341071Y-14312500D01*
X11369643Y-14298214D01*
X11412500Y-14298214D01*
X11441071Y-14312500D01*
X11555357Y-14612500D02*
X11569643Y-14598214D01*
X11598214Y-14555357D01*
X11612500Y-14526786D01*
X11626786Y-14483929D01*
X11641071Y-14412500D01*
X11641071Y-14355357D01*
X11626786Y-14283929D01*
X11612500Y-14241071D01*
X11598214Y-14212500D01*
X11569643Y-14169643D01*
X11555357Y-14155357D01*
X4497500Y-14758500D02*
G75*
G03X4497500Y-14758500I-25000J0D01*
G01*
X4841071Y-14594214D02*
X4869643Y-14594214D01*
X4898214Y-14608500D01*
X4912500Y-14622786D01*
X4926786Y-14651357D01*
X4941071Y-14708500D01*
X4941071Y-14779929D01*
X4926786Y-14837071D01*
X4912500Y-14865643D01*
X4898214Y-14879929D01*
X4869643Y-14894214D01*
X4841071Y-14894214D01*
X4812500Y-14879929D01*
X4798214Y-14865643D01*
X4783928Y-14837071D01*
X4769643Y-14779929D01*
X4769643Y-14708500D01*
X4783928Y-14651357D01*
X4798214Y-14622786D01*
X4812500Y-14608500D01*
X4841071Y-14594214D01*
X5069643Y-14865643D02*
X5083928Y-14879929D01*
X5069643Y-14894214D01*
X5055357Y-14879929D01*
X5069643Y-14865643D01*
X5069643Y-14894214D01*
X5355357Y-14594214D02*
X5212500Y-14594214D01*
X5198214Y-14737071D01*
X5212500Y-14722786D01*
X5241071Y-14708500D01*
X5312500Y-14708500D01*
X5341071Y-14722786D01*
X5355357Y-14737071D01*
X5369643Y-14765643D01*
X5369643Y-14837071D01*
X5355357Y-14865643D01*
X5341071Y-14879929D01*
X5312500Y-14894214D01*
X5241071Y-14894214D01*
X5212500Y-14879929D01*
X5198214Y-14865643D01*
X5555357Y-14594214D02*
X5583928Y-14594214D01*
X5612500Y-14608500D01*
X5626786Y-14622786D01*
X5641071Y-14651357D01*
X5655357Y-14708500D01*
X5655357Y-14779929D01*
X5641071Y-14837071D01*
X5626786Y-14865643D01*
X5612500Y-14879929D01*
X5583928Y-14894214D01*
X5555357Y-14894214D01*
X5526786Y-14879929D01*
X5512500Y-14865643D01*
X5498214Y-14837071D01*
X5483928Y-14779929D01*
X5483928Y-14708500D01*
X5498214Y-14651357D01*
X5512500Y-14622786D01*
X5526786Y-14608500D01*
X5555357Y-14594214D01*
X5783928Y-14894214D02*
X5783928Y-14694214D01*
X5783928Y-14722786D02*
X5798214Y-14708500D01*
X5826786Y-14694214D01*
X5869643Y-14694214D01*
X5898214Y-14708500D01*
X5912500Y-14737071D01*
X5912500Y-14894214D01*
X5912500Y-14737071D02*
X5926786Y-14708500D01*
X5955357Y-14694214D01*
X5998214Y-14694214D01*
X6026786Y-14708500D01*
X6041071Y-14737071D01*
X6041071Y-14894214D01*
X6183928Y-14894214D02*
X6183928Y-14694214D01*
X6183928Y-14722786D02*
X6198214Y-14708500D01*
X6226786Y-14694214D01*
X6269643Y-14694214D01*
X6298214Y-14708500D01*
X6312500Y-14737071D01*
X6312500Y-14894214D01*
X6312500Y-14737071D02*
X6326786Y-14708500D01*
X6355357Y-14694214D01*
X6398214Y-14694214D01*
X6426786Y-14708500D01*
X6441071Y-14737071D01*
X6441071Y-14894214D01*
X7026786Y-14579929D02*
X6769643Y-14965643D01*
X7412500Y-14594214D02*
X7441071Y-14594214D01*
X7469643Y-14608500D01*
X7483928Y-14622786D01*
X7498214Y-14651357D01*
X7512500Y-14708500D01*
X7512500Y-14779929D01*
X7498214Y-14837071D01*
X7483928Y-14865643D01*
X7469643Y-14879929D01*
X7441071Y-14894214D01*
X7412500Y-14894214D01*
X7383928Y-14879929D01*
X7369643Y-14865643D01*
X7355357Y-14837071D01*
X7341071Y-14779929D01*
X7341071Y-14708500D01*
X7355357Y-14651357D01*
X7369643Y-14622786D01*
X7383928Y-14608500D01*
X7412500Y-14594214D01*
X7641071Y-14865643D02*
X7655357Y-14879929D01*
X7641071Y-14894214D01*
X7626786Y-14879929D01*
X7641071Y-14865643D01*
X7641071Y-14894214D01*
X7841071Y-14594214D02*
X7869643Y-14594214D01*
X7898214Y-14608500D01*
X7912500Y-14622786D01*
X7926786Y-14651357D01*
X7941071Y-14708500D01*
X7941071Y-14779929D01*
X7926786Y-14837071D01*
X7912500Y-14865643D01*
X7898214Y-14879929D01*
X7869643Y-14894214D01*
X7841071Y-14894214D01*
X7812500Y-14879929D01*
X7798214Y-14865643D01*
X7783928Y-14837071D01*
X7769643Y-14779929D01*
X7769643Y-14708500D01*
X7783928Y-14651357D01*
X7798214Y-14622786D01*
X7812500Y-14608500D01*
X7841071Y-14594214D01*
X8055357Y-14622786D02*
X8069643Y-14608500D01*
X8098214Y-14594214D01*
X8169643Y-14594214D01*
X8198214Y-14608500D01*
X8212500Y-14622786D01*
X8226786Y-14651357D01*
X8226786Y-14679929D01*
X8212500Y-14722786D01*
X8041071Y-14894214D01*
X8226786Y-14894214D01*
X8412500Y-14594214D02*
X8441071Y-14594214D01*
X8469643Y-14608500D01*
X8483928Y-14622786D01*
X8498214Y-14651357D01*
X8512500Y-14708500D01*
X8512500Y-14779929D01*
X8498214Y-14837071D01*
X8483928Y-14865643D01*
X8469643Y-14879929D01*
X8441071Y-14894214D01*
X8412500Y-14894214D01*
X8383928Y-14879929D01*
X8369643Y-14865643D01*
X8355357Y-14837071D01*
X8341071Y-14779929D01*
X8341071Y-14708500D01*
X8355357Y-14651357D01*
X8369643Y-14622786D01*
X8383928Y-14608500D01*
X8412500Y-14594214D01*
X8626786Y-14594214D02*
X8626786Y-14651357D01*
X8741071Y-14594214D02*
X8741071Y-14651357D01*
X9183928Y-15008500D02*
X9169643Y-14994214D01*
X9141071Y-14951357D01*
X9126786Y-14922786D01*
X9112500Y-14879929D01*
X9098214Y-14808500D01*
X9098214Y-14751357D01*
X9112500Y-14679929D01*
X9126786Y-14637071D01*
X9141071Y-14608500D01*
X9169643Y-14565643D01*
X9183928Y-14551357D01*
X9269643Y-14594214D02*
X9455357Y-14594214D01*
X9355357Y-14708500D01*
X9398214Y-14708500D01*
X9426786Y-14722786D01*
X9441071Y-14737071D01*
X9455357Y-14765643D01*
X9455357Y-14837071D01*
X9441071Y-14865643D01*
X9426786Y-14879929D01*
X9398214Y-14894214D01*
X9312500Y-14894214D01*
X9283928Y-14879929D01*
X9269643Y-14865643D01*
X9569643Y-14622786D02*
X9583928Y-14608500D01*
X9612500Y-14594214D01*
X9683928Y-14594214D01*
X9712500Y-14608500D01*
X9726786Y-14622786D01*
X9741071Y-14651357D01*
X9741071Y-14679929D01*
X9726786Y-14722786D01*
X9555357Y-14894214D01*
X9741071Y-14894214D01*
X10098214Y-14894214D02*
X10098214Y-14594214D01*
X10226786Y-14894214D02*
X10226786Y-14737071D01*
X10212500Y-14708500D01*
X10183928Y-14694214D01*
X10141071Y-14694214D01*
X10112500Y-14708500D01*
X10098214Y-14722786D01*
X10412500Y-14894214D02*
X10383928Y-14879929D01*
X10369643Y-14865643D01*
X10355357Y-14837071D01*
X10355357Y-14751357D01*
X10369643Y-14722786D01*
X10383928Y-14708500D01*
X10412500Y-14694214D01*
X10455357Y-14694214D01*
X10483928Y-14708500D01*
X10498214Y-14722786D01*
X10512500Y-14751357D01*
X10512500Y-14837071D01*
X10498214Y-14865643D01*
X10483928Y-14879929D01*
X10455357Y-14894214D01*
X10412500Y-14894214D01*
X10683928Y-14894214D02*
X10655357Y-14879929D01*
X10641071Y-14851357D01*
X10641071Y-14594214D01*
X10912500Y-14879929D02*
X10883928Y-14894214D01*
X10826786Y-14894214D01*
X10798214Y-14879929D01*
X10783928Y-14851357D01*
X10783928Y-14737071D01*
X10798214Y-14708500D01*
X10826786Y-14694214D01*
X10883928Y-14694214D01*
X10912500Y-14708500D01*
X10926786Y-14737071D01*
X10926786Y-14765643D01*
X10783928Y-14794214D01*
X11041071Y-14879929D02*
X11069643Y-14894214D01*
X11126786Y-14894214D01*
X11155357Y-14879929D01*
X11169643Y-14851357D01*
X11169643Y-14837071D01*
X11155357Y-14808500D01*
X11126786Y-14794214D01*
X11083928Y-14794214D01*
X11055357Y-14779929D01*
X11041071Y-14751357D01*
X11041071Y-14737071D01*
X11055357Y-14708500D01*
X11083928Y-14694214D01*
X11126786Y-14694214D01*
X11155357Y-14708500D01*
X11269643Y-15008500D02*
X11283928Y-14994214D01*
X11312500Y-14951357D01*
X11326786Y-14922786D01*
X11341071Y-14879929D01*
X11355357Y-14808500D01*
X11355357Y-14751357D01*
X11341071Y-14679929D01*
X11326786Y-14637071D01*
X11312500Y-14608500D01*
X11283928Y-14565643D01*
X11269643Y-14551357D01*
X4465000Y-15122000D02*
X4465000Y-15187000D01*
X4432500Y-15154500D02*
X4497500Y-15154500D01*
X4841071Y-14990214D02*
X4869643Y-14990214D01*
X4898214Y-15004500D01*
X4912500Y-15018786D01*
X4926786Y-15047357D01*
X4941071Y-15104500D01*
X4941071Y-15175929D01*
X4926786Y-15233071D01*
X4912500Y-15261643D01*
X4898214Y-15275929D01*
X4869643Y-15290214D01*
X4841071Y-15290214D01*
X4812500Y-15275929D01*
X4798214Y-15261643D01*
X4783928Y-15233071D01*
X4769643Y-15175929D01*
X4769643Y-15104500D01*
X4783928Y-15047357D01*
X4798214Y-15018786D01*
X4812500Y-15004500D01*
X4841071Y-14990214D01*
X5069643Y-15261643D02*
X5083928Y-15275929D01*
X5069643Y-15290214D01*
X5055357Y-15275929D01*
X5069643Y-15261643D01*
X5069643Y-15290214D01*
X5341071Y-14990214D02*
X5283928Y-14990214D01*
X5255357Y-15004500D01*
X5241071Y-15018786D01*
X5212500Y-15061643D01*
X5198214Y-15118786D01*
X5198214Y-15233071D01*
X5212500Y-15261643D01*
X5226786Y-15275929D01*
X5255357Y-15290214D01*
X5312500Y-15290214D01*
X5341071Y-15275929D01*
X5355357Y-15261643D01*
X5369643Y-15233071D01*
X5369643Y-15161643D01*
X5355357Y-15133071D01*
X5341071Y-15118786D01*
X5312500Y-15104500D01*
X5255357Y-15104500D01*
X5226786Y-15118786D01*
X5212500Y-15133071D01*
X5198214Y-15161643D01*
X5641071Y-14990214D02*
X5498214Y-14990214D01*
X5483928Y-15133071D01*
X5498214Y-15118786D01*
X5526786Y-15104500D01*
X5598214Y-15104500D01*
X5626786Y-15118786D01*
X5641071Y-15133071D01*
X5655357Y-15161643D01*
X5655357Y-15233071D01*
X5641071Y-15261643D01*
X5626786Y-15275929D01*
X5598214Y-15290214D01*
X5526786Y-15290214D01*
X5498214Y-15275929D01*
X5483928Y-15261643D01*
X5783928Y-15290214D02*
X5783928Y-15090214D01*
X5783928Y-15118786D02*
X5798214Y-15104500D01*
X5826786Y-15090214D01*
X5869643Y-15090214D01*
X5898214Y-15104500D01*
X5912500Y-15133071D01*
X5912500Y-15290214D01*
X5912500Y-15133071D02*
X5926786Y-15104500D01*
X5955357Y-15090214D01*
X5998214Y-15090214D01*
X6026786Y-15104500D01*
X6041071Y-15133071D01*
X6041071Y-15290214D01*
X6183928Y-15290214D02*
X6183928Y-15090214D01*
X6183928Y-15118786D02*
X6198214Y-15104500D01*
X6226786Y-15090214D01*
X6269643Y-15090214D01*
X6298214Y-15104500D01*
X6312500Y-15133071D01*
X6312500Y-15290214D01*
X6312500Y-15133071D02*
X6326786Y-15104500D01*
X6355357Y-15090214D01*
X6398214Y-15090214D01*
X6426786Y-15104500D01*
X6441071Y-15133071D01*
X6441071Y-15290214D01*
X7026786Y-14975929D02*
X6769643Y-15361643D01*
X7412500Y-14990214D02*
X7441071Y-14990214D01*
X7469643Y-15004500D01*
X7483928Y-15018786D01*
X7498214Y-15047357D01*
X7512500Y-15104500D01*
X7512500Y-15175929D01*
X7498214Y-15233071D01*
X7483928Y-15261643D01*
X7469643Y-15275929D01*
X7441071Y-15290214D01*
X7412500Y-15290214D01*
X7383928Y-15275929D01*
X7369643Y-15261643D01*
X7355357Y-15233071D01*
X7341071Y-15175929D01*
X7341071Y-15104500D01*
X7355357Y-15047357D01*
X7369643Y-15018786D01*
X7383928Y-15004500D01*
X7412500Y-14990214D01*
X7641071Y-15261643D02*
X7655357Y-15275929D01*
X7641071Y-15290214D01*
X7626786Y-15275929D01*
X7641071Y-15261643D01*
X7641071Y-15290214D01*
X7841071Y-14990214D02*
X7869643Y-14990214D01*
X7898214Y-15004500D01*
X7912500Y-15018786D01*
X7926786Y-15047357D01*
X7941071Y-15104500D01*
X7941071Y-15175929D01*
X7926786Y-15233071D01*
X7912500Y-15261643D01*
X7898214Y-15275929D01*
X7869643Y-15290214D01*
X7841071Y-15290214D01*
X7812500Y-15275929D01*
X7798214Y-15261643D01*
X7783928Y-15233071D01*
X7769643Y-15175929D01*
X7769643Y-15104500D01*
X7783928Y-15047357D01*
X7798214Y-15018786D01*
X7812500Y-15004500D01*
X7841071Y-14990214D01*
X8055357Y-15018786D02*
X8069643Y-15004500D01*
X8098214Y-14990214D01*
X8169643Y-14990214D01*
X8198214Y-15004500D01*
X8212500Y-15018786D01*
X8226786Y-15047357D01*
X8226786Y-15075929D01*
X8212500Y-15118786D01*
X8041071Y-15290214D01*
X8226786Y-15290214D01*
X8483928Y-14990214D02*
X8426786Y-14990214D01*
X8398214Y-15004500D01*
X8383928Y-15018786D01*
X8355357Y-15061643D01*
X8341071Y-15118786D01*
X8341071Y-15233071D01*
X8355357Y-15261643D01*
X8369643Y-15275929D01*
X8398214Y-15290214D01*
X8455357Y-15290214D01*
X8483928Y-15275929D01*
X8498214Y-15261643D01*
X8512500Y-15233071D01*
X8512500Y-15161643D01*
X8498214Y-15133071D01*
X8483928Y-15118786D01*
X8455357Y-15104500D01*
X8398214Y-15104500D01*
X8369643Y-15118786D01*
X8355357Y-15133071D01*
X8341071Y-15161643D01*
X8626786Y-14990214D02*
X8626786Y-15047357D01*
X8741071Y-14990214D02*
X8741071Y-15047357D01*
X9183928Y-15404500D02*
X9169643Y-15390214D01*
X9141071Y-15347357D01*
X9126786Y-15318786D01*
X9112500Y-15275929D01*
X9098214Y-15204500D01*
X9098214Y-15147357D01*
X9112500Y-15075929D01*
X9126786Y-15033071D01*
X9141071Y-15004500D01*
X9169643Y-14961643D01*
X9183928Y-14947357D01*
X9355357Y-14990214D02*
X9383928Y-14990214D01*
X9412500Y-15004500D01*
X9426786Y-15018786D01*
X9441071Y-15047357D01*
X9455357Y-15104500D01*
X9455357Y-15175929D01*
X9441071Y-15233071D01*
X9426786Y-15261643D01*
X9412500Y-15275929D01*
X9383928Y-15290214D01*
X9355357Y-15290214D01*
X9326786Y-15275929D01*
X9312500Y-15261643D01*
X9298214Y-15233071D01*
X9283928Y-15175929D01*
X9283928Y-15104500D01*
X9298214Y-15047357D01*
X9312500Y-15018786D01*
X9326786Y-15004500D01*
X9355357Y-14990214D01*
X9812500Y-15290214D02*
X9812500Y-14990214D01*
X9941071Y-15290214D02*
X9941071Y-15133071D01*
X9926786Y-15104500D01*
X9898214Y-15090214D01*
X9855357Y-15090214D01*
X9826786Y-15104500D01*
X9812500Y-15118786D01*
X10126786Y-15290214D02*
X10098214Y-15275929D01*
X10083928Y-15261643D01*
X10069643Y-15233071D01*
X10069643Y-15147357D01*
X10083928Y-15118786D01*
X10098214Y-15104500D01*
X10126786Y-15090214D01*
X10169643Y-15090214D01*
X10198214Y-15104500D01*
X10212500Y-15118786D01*
X10226786Y-15147357D01*
X10226786Y-15233071D01*
X10212500Y-15261643D01*
X10198214Y-15275929D01*
X10169643Y-15290214D01*
X10126786Y-15290214D01*
X10398214Y-15290214D02*
X10369643Y-15275929D01*
X10355357Y-15247357D01*
X10355357Y-14990214D01*
X10626786Y-15275929D02*
X10598214Y-15290214D01*
X10541071Y-15290214D01*
X10512500Y-15275929D01*
X10498214Y-15247357D01*
X10498214Y-15133071D01*
X10512500Y-15104500D01*
X10541071Y-15090214D01*
X10598214Y-15090214D01*
X10626786Y-15104500D01*
X10641071Y-15133071D01*
X10641071Y-15161643D01*
X10498214Y-15190214D01*
X10755357Y-15275929D02*
X10783928Y-15290214D01*
X10841071Y-15290214D01*
X10869643Y-15275929D01*
X10883928Y-15247357D01*
X10883928Y-15233071D01*
X10869643Y-15204500D01*
X10841071Y-15190214D01*
X10798214Y-15190214D01*
X10769643Y-15175929D01*
X10755357Y-15147357D01*
X10755357Y-15133071D01*
X10769643Y-15104500D01*
X10798214Y-15090214D01*
X10841071Y-15090214D01*
X10869643Y-15104500D01*
X11241071Y-15175929D02*
X11469643Y-15175929D01*
X11355357Y-15290214D02*
X11355357Y-15061643D01*
X11826786Y-15018786D02*
X11841071Y-15004500D01*
X11869643Y-14990214D01*
X11941071Y-14990214D01*
X11969643Y-15004500D01*
X11983928Y-15018786D01*
X11998214Y-15047357D01*
X11998214Y-15075929D01*
X11983928Y-15118786D01*
X11812500Y-15290214D01*
X11998214Y-15290214D01*
X12341071Y-15275929D02*
X12369643Y-15290214D01*
X12426786Y-15290214D01*
X12455357Y-15275929D01*
X12469643Y-15247357D01*
X12469643Y-15233071D01*
X12455357Y-15204500D01*
X12426786Y-15190214D01*
X12383928Y-15190214D01*
X12355357Y-15175929D01*
X12341071Y-15147357D01*
X12341071Y-15133071D01*
X12355357Y-15104500D01*
X12383928Y-15090214D01*
X12426786Y-15090214D01*
X12455357Y-15104500D01*
X12641071Y-15290214D02*
X12612500Y-15275929D01*
X12598214Y-15247357D01*
X12598214Y-14990214D01*
X12798214Y-15290214D02*
X12769643Y-15275929D01*
X12755357Y-15261643D01*
X12741071Y-15233071D01*
X12741071Y-15147357D01*
X12755357Y-15118786D01*
X12769643Y-15104500D01*
X12798214Y-15090214D01*
X12841071Y-15090214D01*
X12869643Y-15104500D01*
X12883928Y-15118786D01*
X12898214Y-15147357D01*
X12898214Y-15233071D01*
X12883928Y-15261643D01*
X12869643Y-15275929D01*
X12841071Y-15290214D01*
X12798214Y-15290214D01*
X12983928Y-15090214D02*
X13098214Y-15090214D01*
X13026786Y-14990214D02*
X13026786Y-15247357D01*
X13041071Y-15275929D01*
X13069643Y-15290214D01*
X13098214Y-15290214D01*
X13183928Y-15275929D02*
X13212500Y-15290214D01*
X13269643Y-15290214D01*
X13298214Y-15275929D01*
X13312500Y-15247357D01*
X13312500Y-15233071D01*
X13298214Y-15204500D01*
X13269643Y-15190214D01*
X13226786Y-15190214D01*
X13198214Y-15175929D01*
X13183928Y-15147357D01*
X13183928Y-15133071D01*
X13198214Y-15104500D01*
X13226786Y-15090214D01*
X13269643Y-15090214D01*
X13298214Y-15104500D01*
X13412500Y-15404500D02*
X13426786Y-15390214D01*
X13455357Y-15347357D01*
X13469643Y-15318786D01*
X13483928Y-15275929D01*
X13498214Y-15204500D01*
X13498214Y-15147357D01*
X13483928Y-15075929D01*
X13469643Y-15033071D01*
X13455357Y-15004500D01*
X13426786Y-14961643D01*
X13412500Y-14947357D01*
X4487249Y-15575249D02*
X4487249Y-15525751D01*
X4437751Y-15525751D01*
X4437751Y-15575249D01*
X4487249Y-15575249D01*
X4841071Y-15386214D02*
X4869643Y-15386214D01*
X4898214Y-15400500D01*
X4912500Y-15414786D01*
X4926786Y-15443357D01*
X4941071Y-15500500D01*
X4941071Y-15571929D01*
X4926786Y-15629071D01*
X4912500Y-15657643D01*
X4898214Y-15671929D01*
X4869643Y-15686214D01*
X4841071Y-15686214D01*
X4812500Y-15671929D01*
X4798214Y-15657643D01*
X4783928Y-15629071D01*
X4769643Y-15571929D01*
X4769643Y-15500500D01*
X4783928Y-15443357D01*
X4798214Y-15414786D01*
X4812500Y-15400500D01*
X4841071Y-15386214D01*
X5069643Y-15657643D02*
X5083928Y-15671929D01*
X5069643Y-15686214D01*
X5055357Y-15671929D01*
X5069643Y-15657643D01*
X5069643Y-15686214D01*
X5183928Y-15386214D02*
X5383928Y-15386214D01*
X5255357Y-15686214D01*
X5555357Y-15386214D02*
X5583928Y-15386214D01*
X5612500Y-15400500D01*
X5626786Y-15414786D01*
X5641071Y-15443357D01*
X5655357Y-15500500D01*
X5655357Y-15571929D01*
X5641071Y-15629071D01*
X5626786Y-15657643D01*
X5612500Y-15671929D01*
X5583928Y-15686214D01*
X5555357Y-15686214D01*
X5526786Y-15671929D01*
X5512500Y-15657643D01*
X5498214Y-15629071D01*
X5483928Y-15571929D01*
X5483928Y-15500500D01*
X5498214Y-15443357D01*
X5512500Y-15414786D01*
X5526786Y-15400500D01*
X5555357Y-15386214D01*
X5783928Y-15686214D02*
X5783928Y-15486214D01*
X5783928Y-15514786D02*
X5798214Y-15500500D01*
X5826786Y-15486214D01*
X5869643Y-15486214D01*
X5898214Y-15500500D01*
X5912500Y-15529071D01*
X5912500Y-15686214D01*
X5912500Y-15529071D02*
X5926786Y-15500500D01*
X5955357Y-15486214D01*
X5998214Y-15486214D01*
X6026786Y-15500500D01*
X6041071Y-15529071D01*
X6041071Y-15686214D01*
X6183928Y-15686214D02*
X6183928Y-15486214D01*
X6183928Y-15514786D02*
X6198214Y-15500500D01*
X6226786Y-15486214D01*
X6269643Y-15486214D01*
X6298214Y-15500500D01*
X6312500Y-15529071D01*
X6312500Y-15686214D01*
X6312500Y-15529071D02*
X6326786Y-15500500D01*
X6355357Y-15486214D01*
X6398214Y-15486214D01*
X6426786Y-15500500D01*
X6441071Y-15529071D01*
X6441071Y-15686214D01*
X7026786Y-15371929D02*
X6769643Y-15757643D01*
X7412500Y-15386214D02*
X7441071Y-15386214D01*
X7469643Y-15400500D01*
X7483928Y-15414786D01*
X7498214Y-15443357D01*
X7512500Y-15500500D01*
X7512500Y-15571929D01*
X7498214Y-15629071D01*
X7483928Y-15657643D01*
X7469643Y-15671929D01*
X7441071Y-15686214D01*
X7412500Y-15686214D01*
X7383928Y-15671929D01*
X7369643Y-15657643D01*
X7355357Y-15629071D01*
X7341071Y-15571929D01*
X7341071Y-15500500D01*
X7355357Y-15443357D01*
X7369643Y-15414786D01*
X7383928Y-15400500D01*
X7412500Y-15386214D01*
X7641071Y-15657643D02*
X7655357Y-15671929D01*
X7641071Y-15686214D01*
X7626786Y-15671929D01*
X7641071Y-15657643D01*
X7641071Y-15686214D01*
X7841071Y-15386214D02*
X7869643Y-15386214D01*
X7898214Y-15400500D01*
X7912500Y-15414786D01*
X7926786Y-15443357D01*
X7941071Y-15500500D01*
X7941071Y-15571929D01*
X7926786Y-15629071D01*
X7912500Y-15657643D01*
X7898214Y-15671929D01*
X7869643Y-15686214D01*
X7841071Y-15686214D01*
X7812500Y-15671929D01*
X7798214Y-15657643D01*
X7783928Y-15629071D01*
X7769643Y-15571929D01*
X7769643Y-15500500D01*
X7783928Y-15443357D01*
X7798214Y-15414786D01*
X7812500Y-15400500D01*
X7841071Y-15386214D01*
X8055357Y-15414786D02*
X8069643Y-15400500D01*
X8098214Y-15386214D01*
X8169643Y-15386214D01*
X8198214Y-15400500D01*
X8212500Y-15414786D01*
X8226786Y-15443357D01*
X8226786Y-15471929D01*
X8212500Y-15514786D01*
X8041071Y-15686214D01*
X8226786Y-15686214D01*
X8398214Y-15514786D02*
X8369643Y-15500500D01*
X8355357Y-15486214D01*
X8341071Y-15457643D01*
X8341071Y-15443357D01*
X8355357Y-15414786D01*
X8369643Y-15400500D01*
X8398214Y-15386214D01*
X8455357Y-15386214D01*
X8483928Y-15400500D01*
X8498214Y-15414786D01*
X8512500Y-15443357D01*
X8512500Y-15457643D01*
X8498214Y-15486214D01*
X8483928Y-15500500D01*
X8455357Y-15514786D01*
X8398214Y-15514786D01*
X8369643Y-15529071D01*
X8355357Y-15543357D01*
X8341071Y-15571929D01*
X8341071Y-15629071D01*
X8355357Y-15657643D01*
X8369643Y-15671929D01*
X8398214Y-15686214D01*
X8455357Y-15686214D01*
X8483928Y-15671929D01*
X8498214Y-15657643D01*
X8512500Y-15629071D01*
X8512500Y-15571929D01*
X8498214Y-15543357D01*
X8483928Y-15529071D01*
X8455357Y-15514786D01*
X8626786Y-15386214D02*
X8626786Y-15443357D01*
X8741071Y-15386214D02*
X8741071Y-15443357D01*
X9183928Y-15800500D02*
X9169643Y-15786214D01*
X9141071Y-15743357D01*
X9126786Y-15714786D01*
X9112500Y-15671929D01*
X9098214Y-15600500D01*
X9098214Y-15543357D01*
X9112500Y-15471929D01*
X9126786Y-15429071D01*
X9141071Y-15400500D01*
X9169643Y-15357643D01*
X9183928Y-15343357D01*
X9355357Y-15386214D02*
X9383928Y-15386214D01*
X9412500Y-15400500D01*
X9426786Y-15414786D01*
X9441071Y-15443357D01*
X9455357Y-15500500D01*
X9455357Y-15571929D01*
X9441071Y-15629071D01*
X9426786Y-15657643D01*
X9412500Y-15671929D01*
X9383928Y-15686214D01*
X9355357Y-15686214D01*
X9326786Y-15671929D01*
X9312500Y-15657643D01*
X9298214Y-15629071D01*
X9283928Y-15571929D01*
X9283928Y-15500500D01*
X9298214Y-15443357D01*
X9312500Y-15414786D01*
X9326786Y-15400500D01*
X9355357Y-15386214D01*
X9812500Y-15686214D02*
X9812500Y-15386214D01*
X9941071Y-15686214D02*
X9941071Y-15529071D01*
X9926786Y-15500500D01*
X9898214Y-15486214D01*
X9855357Y-15486214D01*
X9826786Y-15500500D01*
X9812500Y-15514786D01*
X10126786Y-15686214D02*
X10098214Y-15671929D01*
X10083928Y-15657643D01*
X10069643Y-15629071D01*
X10069643Y-15543357D01*
X10083928Y-15514786D01*
X10098214Y-15500500D01*
X10126786Y-15486214D01*
X10169643Y-15486214D01*
X10198214Y-15500500D01*
X10212500Y-15514786D01*
X10226786Y-15543357D01*
X10226786Y-15629071D01*
X10212500Y-15657643D01*
X10198214Y-15671929D01*
X10169643Y-15686214D01*
X10126786Y-15686214D01*
X10398214Y-15686214D02*
X10369643Y-15671929D01*
X10355357Y-15643357D01*
X10355357Y-15386214D01*
X10626786Y-15671929D02*
X10598214Y-15686214D01*
X10541071Y-15686214D01*
X10512500Y-15671929D01*
X10498214Y-15643357D01*
X10498214Y-15529071D01*
X10512500Y-15500500D01*
X10541071Y-15486214D01*
X10598214Y-15486214D01*
X10626786Y-15500500D01*
X10641071Y-15529071D01*
X10641071Y-15557643D01*
X10498214Y-15586214D01*
X10755357Y-15671929D02*
X10783928Y-15686214D01*
X10841071Y-15686214D01*
X10869643Y-15671929D01*
X10883928Y-15643357D01*
X10883928Y-15629071D01*
X10869643Y-15600500D01*
X10841071Y-15586214D01*
X10798214Y-15586214D01*
X10769643Y-15571929D01*
X10755357Y-15543357D01*
X10755357Y-15529071D01*
X10769643Y-15500500D01*
X10798214Y-15486214D01*
X10841071Y-15486214D01*
X10869643Y-15500500D01*
X11241071Y-15571929D02*
X11469643Y-15571929D01*
X11355357Y-15686214D02*
X11355357Y-15457643D01*
X11826786Y-15414786D02*
X11841071Y-15400500D01*
X11869643Y-15386214D01*
X11941071Y-15386214D01*
X11969643Y-15400500D01*
X11983928Y-15414786D01*
X11998214Y-15443357D01*
X11998214Y-15471929D01*
X11983928Y-15514786D01*
X11812500Y-15686214D01*
X11998214Y-15686214D01*
X12341071Y-15671929D02*
X12369643Y-15686214D01*
X12426786Y-15686214D01*
X12455357Y-15671929D01*
X12469643Y-15643357D01*
X12469643Y-15629071D01*
X12455357Y-15600500D01*
X12426786Y-15586214D01*
X12383928Y-15586214D01*
X12355357Y-15571929D01*
X12341071Y-15543357D01*
X12341071Y-15529071D01*
X12355357Y-15500500D01*
X12383928Y-15486214D01*
X12426786Y-15486214D01*
X12455357Y-15500500D01*
X12641071Y-15686214D02*
X12612500Y-15671929D01*
X12598214Y-15643357D01*
X12598214Y-15386214D01*
X12798214Y-15686214D02*
X12769643Y-15671929D01*
X12755357Y-15657643D01*
X12741071Y-15629071D01*
X12741071Y-15543357D01*
X12755357Y-15514786D01*
X12769643Y-15500500D01*
X12798214Y-15486214D01*
X12841071Y-15486214D01*
X12869643Y-15500500D01*
X12883928Y-15514786D01*
X12898214Y-15543357D01*
X12898214Y-15629071D01*
X12883928Y-15657643D01*
X12869643Y-15671929D01*
X12841071Y-15686214D01*
X12798214Y-15686214D01*
X12983928Y-15486214D02*
X13098214Y-15486214D01*
X13026786Y-15386214D02*
X13026786Y-15643357D01*
X13041071Y-15671929D01*
X13069643Y-15686214D01*
X13098214Y-15686214D01*
X13183928Y-15671929D02*
X13212500Y-15686214D01*
X13269643Y-15686214D01*
X13298214Y-15671929D01*
X13312500Y-15643357D01*
X13312500Y-15629071D01*
X13298214Y-15600500D01*
X13269643Y-15586214D01*
X13226786Y-15586214D01*
X13198214Y-15571929D01*
X13183928Y-15543357D01*
X13183928Y-15529071D01*
X13198214Y-15500500D01*
X13226786Y-15486214D01*
X13269643Y-15486214D01*
X13298214Y-15500500D01*
X13412500Y-15800500D02*
X13426786Y-15786214D01*
X13455357Y-15743357D01*
X13469643Y-15714786D01*
X13483928Y-15671929D01*
X13498214Y-15600500D01*
X13498214Y-15543357D01*
X13483928Y-15471929D01*
X13469643Y-15429071D01*
X13455357Y-15400500D01*
X13426786Y-15357643D01*
X13412500Y-15343357D01*
X4460000Y-15984000D02*
X4497500Y-15946500D01*
X4460000Y-15909000D01*
X4422500Y-15946500D01*
X4460000Y-15984000D01*
X4841071Y-15782214D02*
X4869643Y-15782214D01*
X4898214Y-15796500D01*
X4912500Y-15810786D01*
X4926786Y-15839357D01*
X4941071Y-15896500D01*
X4941071Y-15967929D01*
X4926786Y-16025071D01*
X4912500Y-16053643D01*
X4898214Y-16067929D01*
X4869643Y-16082214D01*
X4841071Y-16082214D01*
X4812500Y-16067929D01*
X4798214Y-16053643D01*
X4783928Y-16025071D01*
X4769643Y-15967929D01*
X4769643Y-15896500D01*
X4783928Y-15839357D01*
X4798214Y-15810786D01*
X4812500Y-15796500D01*
X4841071Y-15782214D01*
X5069643Y-16053643D02*
X5083928Y-16067929D01*
X5069643Y-16082214D01*
X5055357Y-16067929D01*
X5069643Y-16053643D01*
X5069643Y-16082214D01*
X5183928Y-15782214D02*
X5383928Y-15782214D01*
X5255357Y-16082214D01*
X5641071Y-15782214D02*
X5498214Y-15782214D01*
X5483928Y-15925071D01*
X5498214Y-15910786D01*
X5526786Y-15896500D01*
X5598214Y-15896500D01*
X5626786Y-15910786D01*
X5641071Y-15925071D01*
X5655357Y-15953643D01*
X5655357Y-16025071D01*
X5641071Y-16053643D01*
X5626786Y-16067929D01*
X5598214Y-16082214D01*
X5526786Y-16082214D01*
X5498214Y-16067929D01*
X5483928Y-16053643D01*
X5783928Y-16082214D02*
X5783928Y-15882214D01*
X5783928Y-15910786D02*
X5798214Y-15896500D01*
X5826786Y-15882214D01*
X5869643Y-15882214D01*
X5898214Y-15896500D01*
X5912500Y-15925071D01*
X5912500Y-16082214D01*
X5912500Y-15925071D02*
X5926786Y-15896500D01*
X5955357Y-15882214D01*
X5998214Y-15882214D01*
X6026786Y-15896500D01*
X6041071Y-15925071D01*
X6041071Y-16082214D01*
X6183928Y-16082214D02*
X6183928Y-15882214D01*
X6183928Y-15910786D02*
X6198214Y-15896500D01*
X6226786Y-15882214D01*
X6269643Y-15882214D01*
X6298214Y-15896500D01*
X6312500Y-15925071D01*
X6312500Y-16082214D01*
X6312500Y-15925071D02*
X6326786Y-15896500D01*
X6355357Y-15882214D01*
X6398214Y-15882214D01*
X6426786Y-15896500D01*
X6441071Y-15925071D01*
X6441071Y-16082214D01*
X7026786Y-15767929D02*
X6769643Y-16153643D01*
X7412500Y-15782214D02*
X7441071Y-15782214D01*
X7469643Y-15796500D01*
X7483928Y-15810786D01*
X7498214Y-15839357D01*
X7512500Y-15896500D01*
X7512500Y-15967929D01*
X7498214Y-16025071D01*
X7483928Y-16053643D01*
X7469643Y-16067929D01*
X7441071Y-16082214D01*
X7412500Y-16082214D01*
X7383928Y-16067929D01*
X7369643Y-16053643D01*
X7355357Y-16025071D01*
X7341071Y-15967929D01*
X7341071Y-15896500D01*
X7355357Y-15839357D01*
X7369643Y-15810786D01*
X7383928Y-15796500D01*
X7412500Y-15782214D01*
X7641071Y-16053643D02*
X7655357Y-16067929D01*
X7641071Y-16082214D01*
X7626786Y-16067929D01*
X7641071Y-16053643D01*
X7641071Y-16082214D01*
X7841071Y-15782214D02*
X7869643Y-15782214D01*
X7898214Y-15796500D01*
X7912500Y-15810786D01*
X7926786Y-15839357D01*
X7941071Y-15896500D01*
X7941071Y-15967929D01*
X7926786Y-16025071D01*
X7912500Y-16053643D01*
X7898214Y-16067929D01*
X7869643Y-16082214D01*
X7841071Y-16082214D01*
X7812500Y-16067929D01*
X7798214Y-16053643D01*
X7783928Y-16025071D01*
X7769643Y-15967929D01*
X7769643Y-15896500D01*
X7783928Y-15839357D01*
X7798214Y-15810786D01*
X7812500Y-15796500D01*
X7841071Y-15782214D01*
X8041071Y-15782214D02*
X8226786Y-15782214D01*
X8126786Y-15896500D01*
X8169643Y-15896500D01*
X8198214Y-15910786D01*
X8212500Y-15925071D01*
X8226786Y-15953643D01*
X8226786Y-16025071D01*
X8212500Y-16053643D01*
X8198214Y-16067929D01*
X8169643Y-16082214D01*
X8083928Y-16082214D01*
X8055357Y-16067929D01*
X8041071Y-16053643D01*
X8412500Y-15782214D02*
X8441071Y-15782214D01*
X8469643Y-15796500D01*
X8483928Y-15810786D01*
X8498214Y-15839357D01*
X8512500Y-15896500D01*
X8512500Y-15967929D01*
X8498214Y-16025071D01*
X8483928Y-16053643D01*
X8469643Y-16067929D01*
X8441071Y-16082214D01*
X8412500Y-16082214D01*
X8383928Y-16067929D01*
X8369643Y-16053643D01*
X8355357Y-16025071D01*
X8341071Y-15967929D01*
X8341071Y-15896500D01*
X8355357Y-15839357D01*
X8369643Y-15810786D01*
X8383928Y-15796500D01*
X8412500Y-15782214D01*
X8626786Y-15782214D02*
X8626786Y-15839357D01*
X8741071Y-15782214D02*
X8741071Y-15839357D01*
X9183928Y-16196500D02*
X9169643Y-16182214D01*
X9141071Y-16139357D01*
X9126786Y-16110786D01*
X9112500Y-16067929D01*
X9098214Y-15996500D01*
X9098214Y-15939357D01*
X9112500Y-15867929D01*
X9126786Y-15825071D01*
X9141071Y-15796500D01*
X9169643Y-15753643D01*
X9183928Y-15739357D01*
X9283928Y-15810786D02*
X9298214Y-15796500D01*
X9326786Y-15782214D01*
X9398214Y-15782214D01*
X9426786Y-15796500D01*
X9441071Y-15810786D01*
X9455357Y-15839357D01*
X9455357Y-15867929D01*
X9441071Y-15910786D01*
X9269643Y-16082214D01*
X9455357Y-16082214D01*
X9712500Y-15882214D02*
X9712500Y-16082214D01*
X9641071Y-15767929D02*
X9569643Y-15982214D01*
X9755357Y-15982214D01*
X10098214Y-16082214D02*
X10098214Y-15782214D01*
X10226786Y-16082214D02*
X10226786Y-15925071D01*
X10212500Y-15896500D01*
X10183928Y-15882214D01*
X10141071Y-15882214D01*
X10112500Y-15896500D01*
X10098214Y-15910786D01*
X10412500Y-16082214D02*
X10383928Y-16067929D01*
X10369643Y-16053643D01*
X10355357Y-16025071D01*
X10355357Y-15939357D01*
X10369643Y-15910786D01*
X10383928Y-15896500D01*
X10412500Y-15882214D01*
X10455357Y-15882214D01*
X10483928Y-15896500D01*
X10498214Y-15910786D01*
X10512500Y-15939357D01*
X10512500Y-16025071D01*
X10498214Y-16053643D01*
X10483928Y-16067929D01*
X10455357Y-16082214D01*
X10412500Y-16082214D01*
X10683928Y-16082214D02*
X10655357Y-16067929D01*
X10641071Y-16039357D01*
X10641071Y-15782214D01*
X10912500Y-16067929D02*
X10883928Y-16082214D01*
X10826786Y-16082214D01*
X10798214Y-16067929D01*
X10783928Y-16039357D01*
X10783928Y-15925071D01*
X10798214Y-15896500D01*
X10826786Y-15882214D01*
X10883928Y-15882214D01*
X10912500Y-15896500D01*
X10926786Y-15925071D01*
X10926786Y-15953643D01*
X10783928Y-15982214D01*
X11041071Y-16067929D02*
X11069643Y-16082214D01*
X11126786Y-16082214D01*
X11155357Y-16067929D01*
X11169643Y-16039357D01*
X11169643Y-16025071D01*
X11155357Y-15996500D01*
X11126786Y-15982214D01*
X11083928Y-15982214D01*
X11055357Y-15967929D01*
X11041071Y-15939357D01*
X11041071Y-15925071D01*
X11055357Y-15896500D01*
X11083928Y-15882214D01*
X11126786Y-15882214D01*
X11155357Y-15896500D01*
X11269643Y-16196500D02*
X11283928Y-16182214D01*
X11312500Y-16139357D01*
X11326786Y-16110786D01*
X11341071Y-16067929D01*
X11355357Y-15996500D01*
X11355357Y-15939357D01*
X11341071Y-15867929D01*
X11326786Y-15825071D01*
X11312500Y-15796500D01*
X11283928Y-15753643D01*
X11269643Y-15739357D01*
X4397500Y-16292500D02*
X4497500Y-16392500D01*
X4497500Y-16292500D02*
X4397500Y-16392500D01*
X4497500Y-16342500D02*
G75*
G03X4497500Y-16342500I-50000J0D01*
G01*
X4941071Y-16478214D02*
X4769643Y-16478214D01*
X4855357Y-16478214D02*
X4855357Y-16178214D01*
X4826786Y-16221071D01*
X4798214Y-16249643D01*
X4769643Y-16263929D01*
X5069643Y-16449643D02*
X5083928Y-16463929D01*
X5069643Y-16478214D01*
X5055357Y-16463929D01*
X5069643Y-16449643D01*
X5069643Y-16478214D01*
X5269643Y-16178214D02*
X5298214Y-16178214D01*
X5326786Y-16192500D01*
X5341071Y-16206786D01*
X5355357Y-16235357D01*
X5369643Y-16292500D01*
X5369643Y-16363929D01*
X5355357Y-16421071D01*
X5341071Y-16449643D01*
X5326786Y-16463929D01*
X5298214Y-16478214D01*
X5269643Y-16478214D01*
X5241071Y-16463929D01*
X5226786Y-16449643D01*
X5212500Y-16421071D01*
X5198214Y-16363929D01*
X5198214Y-16292500D01*
X5212500Y-16235357D01*
X5226786Y-16206786D01*
X5241071Y-16192500D01*
X5269643Y-16178214D01*
X5555357Y-16178214D02*
X5583928Y-16178214D01*
X5612500Y-16192500D01*
X5626786Y-16206786D01*
X5641071Y-16235357D01*
X5655357Y-16292500D01*
X5655357Y-16363929D01*
X5641071Y-16421071D01*
X5626786Y-16449643D01*
X5612500Y-16463929D01*
X5583928Y-16478214D01*
X5555357Y-16478214D01*
X5526786Y-16463929D01*
X5512500Y-16449643D01*
X5498214Y-16421071D01*
X5483928Y-16363929D01*
X5483928Y-16292500D01*
X5498214Y-16235357D01*
X5512500Y-16206786D01*
X5526786Y-16192500D01*
X5555357Y-16178214D01*
X5783928Y-16478214D02*
X5783928Y-16278214D01*
X5783928Y-16306786D02*
X5798214Y-16292500D01*
X5826786Y-16278214D01*
X5869643Y-16278214D01*
X5898214Y-16292500D01*
X5912500Y-16321071D01*
X5912500Y-16478214D01*
X5912500Y-16321071D02*
X5926786Y-16292500D01*
X5955357Y-16278214D01*
X5998214Y-16278214D01*
X6026786Y-16292500D01*
X6041071Y-16321071D01*
X6041071Y-16478214D01*
X6183928Y-16478214D02*
X6183928Y-16278214D01*
X6183928Y-16306786D02*
X6198214Y-16292500D01*
X6226786Y-16278214D01*
X6269643Y-16278214D01*
X6298214Y-16292500D01*
X6312500Y-16321071D01*
X6312500Y-16478214D01*
X6312500Y-16321071D02*
X6326786Y-16292500D01*
X6355357Y-16278214D01*
X6398214Y-16278214D01*
X6426786Y-16292500D01*
X6441071Y-16321071D01*
X6441071Y-16478214D01*
X7026786Y-16163929D02*
X6769643Y-16549643D01*
X7412500Y-16178214D02*
X7441071Y-16178214D01*
X7469643Y-16192500D01*
X7483928Y-16206786D01*
X7498214Y-16235357D01*
X7512500Y-16292500D01*
X7512500Y-16363929D01*
X7498214Y-16421071D01*
X7483928Y-16449643D01*
X7469643Y-16463929D01*
X7441071Y-16478214D01*
X7412500Y-16478214D01*
X7383928Y-16463929D01*
X7369643Y-16449643D01*
X7355357Y-16421071D01*
X7341071Y-16363929D01*
X7341071Y-16292500D01*
X7355357Y-16235357D01*
X7369643Y-16206786D01*
X7383928Y-16192500D01*
X7412500Y-16178214D01*
X7641071Y-16449643D02*
X7655357Y-16463929D01*
X7641071Y-16478214D01*
X7626786Y-16463929D01*
X7641071Y-16449643D01*
X7641071Y-16478214D01*
X7841071Y-16178214D02*
X7869643Y-16178214D01*
X7898214Y-16192500D01*
X7912500Y-16206786D01*
X7926786Y-16235357D01*
X7941071Y-16292500D01*
X7941071Y-16363929D01*
X7926786Y-16421071D01*
X7912500Y-16449643D01*
X7898214Y-16463929D01*
X7869643Y-16478214D01*
X7841071Y-16478214D01*
X7812500Y-16463929D01*
X7798214Y-16449643D01*
X7783928Y-16421071D01*
X7769643Y-16363929D01*
X7769643Y-16292500D01*
X7783928Y-16235357D01*
X7798214Y-16206786D01*
X7812500Y-16192500D01*
X7841071Y-16178214D01*
X8041071Y-16178214D02*
X8226786Y-16178214D01*
X8126786Y-16292500D01*
X8169643Y-16292500D01*
X8198214Y-16306786D01*
X8212500Y-16321071D01*
X8226786Y-16349643D01*
X8226786Y-16421071D01*
X8212500Y-16449643D01*
X8198214Y-16463929D01*
X8169643Y-16478214D01*
X8083928Y-16478214D01*
X8055357Y-16463929D01*
X8041071Y-16449643D01*
X8369643Y-16478214D02*
X8426786Y-16478214D01*
X8455357Y-16463929D01*
X8469643Y-16449643D01*
X8498214Y-16406786D01*
X8512500Y-16349643D01*
X8512500Y-16235357D01*
X8498214Y-16206786D01*
X8483928Y-16192500D01*
X8455357Y-16178214D01*
X8398214Y-16178214D01*
X8369643Y-16192500D01*
X8355357Y-16206786D01*
X8341071Y-16235357D01*
X8341071Y-16306786D01*
X8355357Y-16335357D01*
X8369643Y-16349643D01*
X8398214Y-16363929D01*
X8455357Y-16363929D01*
X8483928Y-16349643D01*
X8498214Y-16335357D01*
X8512500Y-16306786D01*
X8626786Y-16178214D02*
X8626786Y-16235357D01*
X8741071Y-16178214D02*
X8741071Y-16235357D01*
X9183928Y-16592500D02*
X9169643Y-16578214D01*
X9141071Y-16535357D01*
X9126786Y-16506786D01*
X9112500Y-16463929D01*
X9098214Y-16392500D01*
X9098214Y-16335357D01*
X9112500Y-16263929D01*
X9126786Y-16221071D01*
X9141071Y-16192500D01*
X9169643Y-16149643D01*
X9183928Y-16135357D01*
X9441071Y-16178214D02*
X9298214Y-16178214D01*
X9283928Y-16321071D01*
X9298214Y-16306786D01*
X9326786Y-16292500D01*
X9398214Y-16292500D01*
X9426786Y-16306786D01*
X9441071Y-16321071D01*
X9455357Y-16349643D01*
X9455357Y-16421071D01*
X9441071Y-16449643D01*
X9426786Y-16463929D01*
X9398214Y-16478214D01*
X9326786Y-16478214D01*
X9298214Y-16463929D01*
X9283928Y-16449643D01*
X9726786Y-16178214D02*
X9583928Y-16178214D01*
X9569643Y-16321071D01*
X9583928Y-16306786D01*
X9612500Y-16292500D01*
X9683928Y-16292500D01*
X9712500Y-16306786D01*
X9726786Y-16321071D01*
X9741071Y-16349643D01*
X9741071Y-16421071D01*
X9726786Y-16449643D01*
X9712500Y-16463929D01*
X9683928Y-16478214D01*
X9612500Y-16478214D01*
X9583928Y-16463929D01*
X9569643Y-16449643D01*
X10098214Y-16478214D02*
X10098214Y-16178214D01*
X10226786Y-16478214D02*
X10226786Y-16321071D01*
X10212500Y-16292500D01*
X10183928Y-16278214D01*
X10141071Y-16278214D01*
X10112500Y-16292500D01*
X10098214Y-16306786D01*
X10412500Y-16478214D02*
X10383928Y-16463929D01*
X10369643Y-16449643D01*
X10355357Y-16421071D01*
X10355357Y-16335357D01*
X10369643Y-16306786D01*
X10383928Y-16292500D01*
X10412500Y-16278214D01*
X10455357Y-16278214D01*
X10483928Y-16292500D01*
X10498214Y-16306786D01*
X10512500Y-16335357D01*
X10512500Y-16421071D01*
X10498214Y-16449643D01*
X10483928Y-16463929D01*
X10455357Y-16478214D01*
X10412500Y-16478214D01*
X10683928Y-16478214D02*
X10655357Y-16463929D01*
X10641071Y-16435357D01*
X10641071Y-16178214D01*
X10912500Y-16463929D02*
X10883928Y-16478214D01*
X10826786Y-16478214D01*
X10798214Y-16463929D01*
X10783928Y-16435357D01*
X10783928Y-16321071D01*
X10798214Y-16292500D01*
X10826786Y-16278214D01*
X10883928Y-16278214D01*
X10912500Y-16292500D01*
X10926786Y-16321071D01*
X10926786Y-16349643D01*
X10783928Y-16378214D01*
X11041071Y-16463929D02*
X11069643Y-16478214D01*
X11126786Y-16478214D01*
X11155357Y-16463929D01*
X11169643Y-16435357D01*
X11169643Y-16421071D01*
X11155357Y-16392500D01*
X11126786Y-16378214D01*
X11083928Y-16378214D01*
X11055357Y-16363929D01*
X11041071Y-16335357D01*
X11041071Y-16321071D01*
X11055357Y-16292500D01*
X11083928Y-16278214D01*
X11126786Y-16278214D01*
X11155357Y-16292500D01*
X11269643Y-16592500D02*
X11283928Y-16578214D01*
X11312500Y-16535357D01*
X11326786Y-16506786D01*
X11341071Y-16463929D01*
X11355357Y-16392500D01*
X11355357Y-16335357D01*
X11341071Y-16263929D01*
X11326786Y-16221071D01*
X11312500Y-16192500D01*
X11283928Y-16149643D01*
X11269643Y-16135357D01*
X4367500Y-16673500D02*
X4497500Y-16803500D01*
X4497500Y-16673500D02*
X4367500Y-16803500D01*
X4432500Y-16673500D02*
X4432500Y-16803500D01*
X4367500Y-16738500D02*
X4497500Y-16738500D01*
X4941071Y-16874214D02*
X4769643Y-16874214D01*
X4855357Y-16874214D02*
X4855357Y-16574214D01*
X4826786Y-16617071D01*
X4798214Y-16645643D01*
X4769643Y-16659929D01*
X5069643Y-16845643D02*
X5083928Y-16859929D01*
X5069643Y-16874214D01*
X5055357Y-16859929D01*
X5069643Y-16845643D01*
X5069643Y-16874214D01*
X5183928Y-16574214D02*
X5369643Y-16574214D01*
X5269643Y-16688500D01*
X5312500Y-16688500D01*
X5341071Y-16702786D01*
X5355357Y-16717071D01*
X5369643Y-16745643D01*
X5369643Y-16817072D01*
X5355357Y-16845643D01*
X5341071Y-16859929D01*
X5312500Y-16874214D01*
X5226786Y-16874214D01*
X5198214Y-16859929D01*
X5183928Y-16845643D01*
X5555357Y-16574214D02*
X5583928Y-16574214D01*
X5612500Y-16588500D01*
X5626786Y-16602786D01*
X5641071Y-16631357D01*
X5655357Y-16688500D01*
X5655357Y-16759929D01*
X5641071Y-16817072D01*
X5626786Y-16845643D01*
X5612500Y-16859929D01*
X5583928Y-16874214D01*
X5555357Y-16874214D01*
X5526786Y-16859929D01*
X5512500Y-16845643D01*
X5498214Y-16817072D01*
X5483928Y-16759929D01*
X5483928Y-16688500D01*
X5498214Y-16631357D01*
X5512500Y-16602786D01*
X5526786Y-16588500D01*
X5555357Y-16574214D01*
X5783928Y-16874214D02*
X5783928Y-16674214D01*
X5783928Y-16702786D02*
X5798214Y-16688500D01*
X5826786Y-16674214D01*
X5869643Y-16674214D01*
X5898214Y-16688500D01*
X5912500Y-16717071D01*
X5912500Y-16874214D01*
X5912500Y-16717071D02*
X5926786Y-16688500D01*
X5955357Y-16674214D01*
X5998214Y-16674214D01*
X6026786Y-16688500D01*
X6041071Y-16717071D01*
X6041071Y-16874214D01*
X6183928Y-16874214D02*
X6183928Y-16674214D01*
X6183928Y-16702786D02*
X6198214Y-16688500D01*
X6226786Y-16674214D01*
X6269643Y-16674214D01*
X6298214Y-16688500D01*
X6312500Y-16717071D01*
X6312500Y-16874214D01*
X6312500Y-16717071D02*
X6326786Y-16688500D01*
X6355357Y-16674214D01*
X6398214Y-16674214D01*
X6426786Y-16688500D01*
X6441071Y-16717071D01*
X6441071Y-16874214D01*
X7026786Y-16559929D02*
X6769643Y-16945643D01*
X7412500Y-16574214D02*
X7441071Y-16574214D01*
X7469643Y-16588500D01*
X7483928Y-16602786D01*
X7498214Y-16631357D01*
X7512500Y-16688500D01*
X7512500Y-16759929D01*
X7498214Y-16817072D01*
X7483928Y-16845643D01*
X7469643Y-16859929D01*
X7441071Y-16874214D01*
X7412500Y-16874214D01*
X7383928Y-16859929D01*
X7369643Y-16845643D01*
X7355357Y-16817072D01*
X7341071Y-16759929D01*
X7341071Y-16688500D01*
X7355357Y-16631357D01*
X7369643Y-16602786D01*
X7383928Y-16588500D01*
X7412500Y-16574214D01*
X7641071Y-16845643D02*
X7655357Y-16859929D01*
X7641071Y-16874214D01*
X7626786Y-16859929D01*
X7641071Y-16845643D01*
X7641071Y-16874214D01*
X7841071Y-16574214D02*
X7869643Y-16574214D01*
X7898214Y-16588500D01*
X7912500Y-16602786D01*
X7926786Y-16631357D01*
X7941071Y-16688500D01*
X7941071Y-16759929D01*
X7926786Y-16817072D01*
X7912500Y-16845643D01*
X7898214Y-16859929D01*
X7869643Y-16874214D01*
X7841071Y-16874214D01*
X7812500Y-16859929D01*
X7798214Y-16845643D01*
X7783928Y-16817072D01*
X7769643Y-16759929D01*
X7769643Y-16688500D01*
X7783928Y-16631357D01*
X7798214Y-16602786D01*
X7812500Y-16588500D01*
X7841071Y-16574214D01*
X8212500Y-16574214D02*
X8069643Y-16574214D01*
X8055357Y-16717071D01*
X8069643Y-16702786D01*
X8098214Y-16688500D01*
X8169643Y-16688500D01*
X8198214Y-16702786D01*
X8212500Y-16717071D01*
X8226786Y-16745643D01*
X8226786Y-16817072D01*
X8212500Y-16845643D01*
X8198214Y-16859929D01*
X8169643Y-16874214D01*
X8098214Y-16874214D01*
X8069643Y-16859929D01*
X8055357Y-16845643D01*
X8512500Y-16874214D02*
X8341071Y-16874214D01*
X8426786Y-16874214D02*
X8426786Y-16574214D01*
X8398214Y-16617071D01*
X8369643Y-16645643D01*
X8341071Y-16659929D01*
X8626786Y-16574214D02*
X8626786Y-16631357D01*
X8741071Y-16574214D02*
X8741071Y-16631357D01*
X9183928Y-16988500D02*
X9169643Y-16974214D01*
X9141071Y-16931357D01*
X9126786Y-16902786D01*
X9112500Y-16859929D01*
X9098214Y-16788500D01*
X9098214Y-16731357D01*
X9112500Y-16659929D01*
X9126786Y-16617071D01*
X9141071Y-16588500D01*
X9169643Y-16545643D01*
X9183928Y-16531357D01*
X9283928Y-16602786D02*
X9298214Y-16588500D01*
X9326786Y-16574214D01*
X9398214Y-16574214D01*
X9426786Y-16588500D01*
X9441071Y-16602786D01*
X9455357Y-16631357D01*
X9455357Y-16659929D01*
X9441071Y-16702786D01*
X9269643Y-16874214D01*
X9455357Y-16874214D01*
X9812500Y-16874214D02*
X9812500Y-16574214D01*
X9941071Y-16874214D02*
X9941071Y-16717071D01*
X9926786Y-16688500D01*
X9898214Y-16674214D01*
X9855357Y-16674214D01*
X9826786Y-16688500D01*
X9812500Y-16702786D01*
X10126786Y-16874214D02*
X10098214Y-16859929D01*
X10083928Y-16845643D01*
X10069643Y-16817072D01*
X10069643Y-16731357D01*
X10083928Y-16702786D01*
X10098214Y-16688500D01*
X10126786Y-16674214D01*
X10169643Y-16674214D01*
X10198214Y-16688500D01*
X10212500Y-16702786D01*
X10226786Y-16731357D01*
X10226786Y-16817072D01*
X10212500Y-16845643D01*
X10198214Y-16859929D01*
X10169643Y-16874214D01*
X10126786Y-16874214D01*
X10398214Y-16874214D02*
X10369643Y-16859929D01*
X10355357Y-16831357D01*
X10355357Y-16574214D01*
X10626786Y-16859929D02*
X10598214Y-16874214D01*
X10541071Y-16874214D01*
X10512500Y-16859929D01*
X10498214Y-16831357D01*
X10498214Y-16717071D01*
X10512500Y-16688500D01*
X10541071Y-16674214D01*
X10598214Y-16674214D01*
X10626786Y-16688500D01*
X10641071Y-16717071D01*
X10641071Y-16745643D01*
X10498214Y-16774214D01*
X10755357Y-16859929D02*
X10783928Y-16874214D01*
X10841071Y-16874214D01*
X10869643Y-16859929D01*
X10883928Y-16831357D01*
X10883928Y-16817072D01*
X10869643Y-16788500D01*
X10841071Y-16774214D01*
X10798214Y-16774214D01*
X10769643Y-16759929D01*
X10755357Y-16731357D01*
X10755357Y-16717071D01*
X10769643Y-16688500D01*
X10798214Y-16674214D01*
X10841071Y-16674214D01*
X10869643Y-16688500D01*
X10983928Y-16988500D02*
X10998214Y-16974214D01*
X11026786Y-16931357D01*
X11041071Y-16902786D01*
X11055357Y-16859929D01*
X11069643Y-16788500D01*
X11069643Y-16731357D01*
X11055357Y-16659929D01*
X11041071Y-16617071D01*
X11026786Y-16588500D01*
X10998214Y-16545643D01*
X10983928Y-16531357D01*
X4177500Y-16974500D02*
X4497500Y-17294500D01*
X4497500Y-16974500D02*
X4177500Y-17294500D01*
X4450638Y-17247638D02*
X4450638Y-17021362D01*
X4224362Y-17021362D01*
X4224362Y-17247638D01*
X4450638Y-17247638D01*
X4755357Y-16970214D02*
X4941071Y-16970214D01*
X4841071Y-17084500D01*
X4883928Y-17084500D01*
X4912500Y-17098786D01*
X4926786Y-17113072D01*
X4941071Y-17141643D01*
X4941071Y-17213072D01*
X4926786Y-17241643D01*
X4912500Y-17255929D01*
X4883928Y-17270214D01*
X4798214Y-17270214D01*
X4769643Y-17255929D01*
X4755357Y-17241643D01*
X5069643Y-17241643D02*
X5083928Y-17255929D01*
X5069643Y-17270214D01*
X5055357Y-17255929D01*
X5069643Y-17241643D01*
X5069643Y-17270214D01*
X5198214Y-16998786D02*
X5212500Y-16984500D01*
X5241071Y-16970214D01*
X5312500Y-16970214D01*
X5341071Y-16984500D01*
X5355357Y-16998786D01*
X5369643Y-17027357D01*
X5369643Y-17055929D01*
X5355357Y-17098786D01*
X5183928Y-17270214D01*
X5369643Y-17270214D01*
X5555357Y-16970214D02*
X5583928Y-16970214D01*
X5612500Y-16984500D01*
X5626786Y-16998786D01*
X5641071Y-17027357D01*
X5655357Y-17084500D01*
X5655357Y-17155929D01*
X5641071Y-17213072D01*
X5626786Y-17241643D01*
X5612500Y-17255929D01*
X5583928Y-17270214D01*
X5555357Y-17270214D01*
X5526786Y-17255929D01*
X5512500Y-17241643D01*
X5498214Y-17213072D01*
X5483928Y-17155929D01*
X5483928Y-17084500D01*
X5498214Y-17027357D01*
X5512500Y-16998786D01*
X5526786Y-16984500D01*
X5555357Y-16970214D01*
X5783928Y-17270214D02*
X5783928Y-17070214D01*
X5783928Y-17098786D02*
X5798214Y-17084500D01*
X5826786Y-17070214D01*
X5869643Y-17070214D01*
X5898214Y-17084500D01*
X5912500Y-17113072D01*
X5912500Y-17270214D01*
X5912500Y-17113072D02*
X5926786Y-17084500D01*
X5955357Y-17070214D01*
X5998214Y-17070214D01*
X6026786Y-17084500D01*
X6041071Y-17113072D01*
X6041071Y-17270214D01*
X6183928Y-17270214D02*
X6183928Y-17070214D01*
X6183928Y-17098786D02*
X6198214Y-17084500D01*
X6226786Y-17070214D01*
X6269643Y-17070214D01*
X6298214Y-17084500D01*
X6312500Y-17113072D01*
X6312500Y-17270214D01*
X6312500Y-17113072D02*
X6326786Y-17084500D01*
X6355357Y-17070214D01*
X6398214Y-17070214D01*
X6426786Y-17084500D01*
X6441071Y-17113072D01*
X6441071Y-17270214D01*
X7026786Y-16955929D02*
X6769643Y-17341643D01*
X7412500Y-16970214D02*
X7441071Y-16970214D01*
X7469643Y-16984500D01*
X7483928Y-16998786D01*
X7498214Y-17027357D01*
X7512500Y-17084500D01*
X7512500Y-17155929D01*
X7498214Y-17213072D01*
X7483928Y-17241643D01*
X7469643Y-17255929D01*
X7441071Y-17270214D01*
X7412500Y-17270214D01*
X7383928Y-17255929D01*
X7369643Y-17241643D01*
X7355357Y-17213072D01*
X7341071Y-17155929D01*
X7341071Y-17084500D01*
X7355357Y-17027357D01*
X7369643Y-16998786D01*
X7383928Y-16984500D01*
X7412500Y-16970214D01*
X7641071Y-17241643D02*
X7655357Y-17255929D01*
X7641071Y-17270214D01*
X7626786Y-17255929D01*
X7641071Y-17241643D01*
X7641071Y-17270214D01*
X7941071Y-17270214D02*
X7769643Y-17270214D01*
X7855357Y-17270214D02*
X7855357Y-16970214D01*
X7826786Y-17013072D01*
X7798214Y-17041643D01*
X7769643Y-17055929D01*
X8055357Y-16998786D02*
X8069643Y-16984500D01*
X8098214Y-16970214D01*
X8169643Y-16970214D01*
X8198214Y-16984500D01*
X8212500Y-16998786D01*
X8226786Y-17027357D01*
X8226786Y-17055929D01*
X8212500Y-17098786D01*
X8041071Y-17270214D01*
X8226786Y-17270214D01*
X8483928Y-16970214D02*
X8426786Y-16970214D01*
X8398214Y-16984500D01*
X8383928Y-16998786D01*
X8355357Y-17041643D01*
X8341071Y-17098786D01*
X8341071Y-17213072D01*
X8355357Y-17241643D01*
X8369643Y-17255929D01*
X8398214Y-17270214D01*
X8455357Y-17270214D01*
X8483928Y-17255929D01*
X8498214Y-17241643D01*
X8512500Y-17213072D01*
X8512500Y-17141643D01*
X8498214Y-17113072D01*
X8483928Y-17098786D01*
X8455357Y-17084500D01*
X8398214Y-17084500D01*
X8369643Y-17098786D01*
X8355357Y-17113072D01*
X8341071Y-17141643D01*
X8626786Y-16970214D02*
X8626786Y-17027357D01*
X8741071Y-16970214D02*
X8741071Y-17027357D01*
X9183928Y-17384500D02*
X9169643Y-17370214D01*
X9141071Y-17327357D01*
X9126786Y-17298786D01*
X9112500Y-17255929D01*
X9098214Y-17184500D01*
X9098214Y-17127357D01*
X9112500Y-17055929D01*
X9126786Y-17013072D01*
X9141071Y-16984500D01*
X9169643Y-16941643D01*
X9183928Y-16927357D01*
X9426786Y-17070214D02*
X9426786Y-17270214D01*
X9355357Y-16955929D02*
X9283928Y-17170214D01*
X9469643Y-17170214D01*
X9812500Y-17270214D02*
X9812500Y-16970214D01*
X9941071Y-17270214D02*
X9941071Y-17113072D01*
X9926786Y-17084500D01*
X9898214Y-17070214D01*
X9855357Y-17070214D01*
X9826786Y-17084500D01*
X9812500Y-17098786D01*
X10126786Y-17270214D02*
X10098214Y-17255929D01*
X10083928Y-17241643D01*
X10069643Y-17213072D01*
X10069643Y-17127357D01*
X10083928Y-17098786D01*
X10098214Y-17084500D01*
X10126786Y-17070214D01*
X10169643Y-17070214D01*
X10198214Y-17084500D01*
X10212500Y-17098786D01*
X10226786Y-17127357D01*
X10226786Y-17213072D01*
X10212500Y-17241643D01*
X10198214Y-17255929D01*
X10169643Y-17270214D01*
X10126786Y-17270214D01*
X10398214Y-17270214D02*
X10369643Y-17255929D01*
X10355357Y-17227357D01*
X10355357Y-16970214D01*
X10626786Y-17255929D02*
X10598214Y-17270214D01*
X10541071Y-17270214D01*
X10512500Y-17255929D01*
X10498214Y-17227357D01*
X10498214Y-17113072D01*
X10512500Y-17084500D01*
X10541071Y-17070214D01*
X10598214Y-17070214D01*
X10626786Y-17084500D01*
X10641071Y-17113072D01*
X10641071Y-17141643D01*
X10498214Y-17170214D01*
X10755357Y-17255929D02*
X10783928Y-17270214D01*
X10841071Y-17270214D01*
X10869643Y-17255929D01*
X10883928Y-17227357D01*
X10883928Y-17213072D01*
X10869643Y-17184500D01*
X10841071Y-17170214D01*
X10798214Y-17170214D01*
X10769643Y-17155929D01*
X10755357Y-17127357D01*
X10755357Y-17113072D01*
X10769643Y-17084500D01*
X10798214Y-17070214D01*
X10841071Y-17070214D01*
X10869643Y-17084500D01*
X10983928Y-17384500D02*
X10998214Y-17370214D01*
X11026786Y-17327357D01*
X11041071Y-17298786D01*
X11055357Y-17255929D01*
X11069643Y-17184500D01*
X11069643Y-17127357D01*
X11055357Y-17055929D01*
X11041071Y-17013072D01*
X11026786Y-16984500D01*
X10998214Y-16941643D01*
X10983928Y-16927357D01*
M02*
