G04 #@! TF.GenerationSoftware,KiCad,Pcbnew,5.1.5+dfsg1-2build2*
G04 #@! TF.CreationDate,2022-03-08T20:12:57-07:00*
G04 #@! TF.ProjectId,rtic_v2,72746963-5f76-4322-9e6b-696361645f70,rev?*
G04 #@! TF.SameCoordinates,Original*
G04 #@! TF.FileFunction,Copper,L2,Inr*
G04 #@! TF.FilePolarity,Positive*
%FSLAX46Y46*%
G04 Gerber Fmt 4.6, Leading zero omitted, Abs format (unit mm)*
G04 Created by KiCad (PCBNEW 5.1.5+dfsg1-2build2) date 2022-03-08 20:12:57*
%MOMM*%
%LPD*%
G04 APERTURE LIST*
%ADD10R,1.700000X1.700000*%
%ADD11O,1.700000X1.700000*%
%ADD12C,0.800000*%
%ADD13C,6.400000*%
%ADD14R,2.600000X2.600000*%
%ADD15C,2.600000*%
%ADD16O,1.500000X1.100000*%
%ADD17O,1.700000X1.350000*%
%ADD18O,1.200000X1.750000*%
%ADD19C,0.100000*%
%ADD20C,1.524000*%
%ADD21C,0.254000*%
G04 APERTURE END LIST*
D10*
X97072000Y-60636000D03*
D11*
X94532000Y-60636000D03*
X97072000Y-63176000D03*
X94532000Y-63176000D03*
X97072000Y-65716000D03*
X94532000Y-65716000D03*
X97072000Y-68256000D03*
X94532000Y-68256000D03*
X122811100Y-102405400D03*
X120271100Y-102405400D03*
X117731100Y-102405400D03*
X115191100Y-102405400D03*
X112651100Y-102405400D03*
X110111100Y-102405400D03*
X107571100Y-102405400D03*
X105031100Y-102405400D03*
X102491100Y-102405400D03*
X99951100Y-102405400D03*
X117731100Y-117645400D03*
X115191100Y-117645400D03*
X112651100Y-117645400D03*
X110111100Y-117645400D03*
X107571100Y-117645400D03*
X105031100Y-117645400D03*
X66943800Y-117607300D03*
X69483800Y-117607300D03*
X72023800Y-117607300D03*
X74563800Y-117607300D03*
X77103800Y-117607300D03*
X79643800Y-117607300D03*
X61863800Y-102367300D03*
X64403800Y-102367300D03*
X66943800Y-102367300D03*
X69483800Y-102367300D03*
X72023800Y-102367300D03*
X74563800Y-102367300D03*
X77103800Y-102367300D03*
X79643800Y-102367300D03*
X82183800Y-102367300D03*
X84723800Y-102367300D03*
D12*
X136697056Y-52302944D03*
X135000000Y-51600000D03*
X133302944Y-52302944D03*
X132600000Y-54000000D03*
X133302944Y-55697056D03*
X135000000Y-56400000D03*
X136697056Y-55697056D03*
X137400000Y-54000000D03*
D13*
X135000000Y-54000000D03*
X50000000Y-129000000D03*
D12*
X52400000Y-129000000D03*
X51697056Y-130697056D03*
X50000000Y-131400000D03*
X48302944Y-130697056D03*
X47600000Y-129000000D03*
X48302944Y-127302944D03*
X50000000Y-126600000D03*
X51697056Y-127302944D03*
X51697056Y-52302944D03*
X50000000Y-51600000D03*
X48302944Y-52302944D03*
X47600000Y-54000000D03*
X48302944Y-55697056D03*
X50000000Y-56400000D03*
X51697056Y-55697056D03*
X52400000Y-54000000D03*
D13*
X50000000Y-54000000D03*
X135000000Y-129000000D03*
D12*
X137400000Y-129000000D03*
X136697056Y-130697056D03*
X135000000Y-131400000D03*
X133302944Y-130697056D03*
X132600000Y-129000000D03*
X133302944Y-127302944D03*
X135000000Y-126600000D03*
X136697056Y-127302944D03*
D14*
X133894000Y-94932000D03*
D15*
X133894000Y-89932000D03*
D10*
X71636600Y-53584600D03*
D11*
X69096600Y-53584600D03*
X66556600Y-53584600D03*
X64016600Y-53584600D03*
X61476600Y-53584600D03*
X58936600Y-53584600D03*
D16*
X135301400Y-80324800D03*
X135301400Y-75484800D03*
D17*
X138301400Y-80634800D03*
X138301400Y-75174800D03*
D18*
X69298400Y-126967200D03*
X67298400Y-126967200D03*
X65298400Y-126967200D03*
X63298400Y-126967200D03*
X61298400Y-126967200D03*
G04 #@! TA.AperFunction,ViaPad*
D19*
G36*
X59672905Y-126093404D02*
G01*
X59697173Y-126097004D01*
X59720972Y-126102965D01*
X59744071Y-126111230D01*
X59766250Y-126121720D01*
X59787293Y-126134332D01*
X59806999Y-126148947D01*
X59825177Y-126165423D01*
X59841653Y-126183601D01*
X59856268Y-126203307D01*
X59868880Y-126224350D01*
X59879370Y-126246529D01*
X59887635Y-126269628D01*
X59893596Y-126293427D01*
X59897196Y-126317695D01*
X59898400Y-126342199D01*
X59898400Y-127592201D01*
X59897196Y-127616705D01*
X59893596Y-127640973D01*
X59887635Y-127664772D01*
X59879370Y-127687871D01*
X59868880Y-127710050D01*
X59856268Y-127731093D01*
X59841653Y-127750799D01*
X59825177Y-127768977D01*
X59806999Y-127785453D01*
X59787293Y-127800068D01*
X59766250Y-127812680D01*
X59744071Y-127823170D01*
X59720972Y-127831435D01*
X59697173Y-127837396D01*
X59672905Y-127840996D01*
X59648401Y-127842200D01*
X58948399Y-127842200D01*
X58923895Y-127840996D01*
X58899627Y-127837396D01*
X58875828Y-127831435D01*
X58852729Y-127823170D01*
X58830550Y-127812680D01*
X58809507Y-127800068D01*
X58789801Y-127785453D01*
X58771623Y-127768977D01*
X58755147Y-127750799D01*
X58740532Y-127731093D01*
X58727920Y-127710050D01*
X58717430Y-127687871D01*
X58709165Y-127664772D01*
X58703204Y-127640973D01*
X58699604Y-127616705D01*
X58698400Y-127592201D01*
X58698400Y-126342199D01*
X58699604Y-126317695D01*
X58703204Y-126293427D01*
X58709165Y-126269628D01*
X58717430Y-126246529D01*
X58727920Y-126224350D01*
X58740532Y-126203307D01*
X58755147Y-126183601D01*
X58771623Y-126165423D01*
X58789801Y-126148947D01*
X58809507Y-126134332D01*
X58830550Y-126121720D01*
X58852729Y-126111230D01*
X58875828Y-126102965D01*
X58899627Y-126097004D01*
X58923895Y-126093404D01*
X58948399Y-126092200D01*
X59648401Y-126092200D01*
X59672905Y-126093404D01*
G37*
G04 #@! TD.AperFunction*
G04 #@! TA.AperFunction,ViaPad*
G36*
X77808505Y-126156904D02*
G01*
X77832773Y-126160504D01*
X77856572Y-126166465D01*
X77879671Y-126174730D01*
X77901850Y-126185220D01*
X77922893Y-126197832D01*
X77942599Y-126212447D01*
X77960777Y-126228923D01*
X77977253Y-126247101D01*
X77991868Y-126266807D01*
X78004480Y-126287850D01*
X78014970Y-126310029D01*
X78023235Y-126333128D01*
X78029196Y-126356927D01*
X78032796Y-126381195D01*
X78034000Y-126405699D01*
X78034000Y-127655701D01*
X78032796Y-127680205D01*
X78029196Y-127704473D01*
X78023235Y-127728272D01*
X78014970Y-127751371D01*
X78004480Y-127773550D01*
X77991868Y-127794593D01*
X77977253Y-127814299D01*
X77960777Y-127832477D01*
X77942599Y-127848953D01*
X77922893Y-127863568D01*
X77901850Y-127876180D01*
X77879671Y-127886670D01*
X77856572Y-127894935D01*
X77832773Y-127900896D01*
X77808505Y-127904496D01*
X77784001Y-127905700D01*
X77083999Y-127905700D01*
X77059495Y-127904496D01*
X77035227Y-127900896D01*
X77011428Y-127894935D01*
X76988329Y-127886670D01*
X76966150Y-127876180D01*
X76945107Y-127863568D01*
X76925401Y-127848953D01*
X76907223Y-127832477D01*
X76890747Y-127814299D01*
X76876132Y-127794593D01*
X76863520Y-127773550D01*
X76853030Y-127751371D01*
X76844765Y-127728272D01*
X76838804Y-127704473D01*
X76835204Y-127680205D01*
X76834000Y-127655701D01*
X76834000Y-126405699D01*
X76835204Y-126381195D01*
X76838804Y-126356927D01*
X76844765Y-126333128D01*
X76853030Y-126310029D01*
X76863520Y-126287850D01*
X76876132Y-126266807D01*
X76890747Y-126247101D01*
X76907223Y-126228923D01*
X76925401Y-126212447D01*
X76945107Y-126197832D01*
X76966150Y-126185220D01*
X76988329Y-126174730D01*
X77011428Y-126166465D01*
X77035227Y-126160504D01*
X77059495Y-126156904D01*
X77083999Y-126155700D01*
X77784001Y-126155700D01*
X77808505Y-126156904D01*
G37*
G04 #@! TD.AperFunction*
D18*
X79434000Y-127030700D03*
X81434000Y-127030700D03*
X83434000Y-127030700D03*
X85434000Y-127030700D03*
X87434000Y-127030700D03*
G04 #@! TA.AperFunction,ViaPad*
D19*
G36*
X97772905Y-126169604D02*
G01*
X97797173Y-126173204D01*
X97820972Y-126179165D01*
X97844071Y-126187430D01*
X97866250Y-126197920D01*
X97887293Y-126210532D01*
X97906999Y-126225147D01*
X97925177Y-126241623D01*
X97941653Y-126259801D01*
X97956268Y-126279507D01*
X97968880Y-126300550D01*
X97979370Y-126322729D01*
X97987635Y-126345828D01*
X97993596Y-126369627D01*
X97997196Y-126393895D01*
X97998400Y-126418399D01*
X97998400Y-127668401D01*
X97997196Y-127692905D01*
X97993596Y-127717173D01*
X97987635Y-127740972D01*
X97979370Y-127764071D01*
X97968880Y-127786250D01*
X97956268Y-127807293D01*
X97941653Y-127826999D01*
X97925177Y-127845177D01*
X97906999Y-127861653D01*
X97887293Y-127876268D01*
X97866250Y-127888880D01*
X97844071Y-127899370D01*
X97820972Y-127907635D01*
X97797173Y-127913596D01*
X97772905Y-127917196D01*
X97748401Y-127918400D01*
X97048399Y-127918400D01*
X97023895Y-127917196D01*
X96999627Y-127913596D01*
X96975828Y-127907635D01*
X96952729Y-127899370D01*
X96930550Y-127888880D01*
X96909507Y-127876268D01*
X96889801Y-127861653D01*
X96871623Y-127845177D01*
X96855147Y-127826999D01*
X96840532Y-127807293D01*
X96827920Y-127786250D01*
X96817430Y-127764071D01*
X96809165Y-127740972D01*
X96803204Y-127717173D01*
X96799604Y-127692905D01*
X96798400Y-127668401D01*
X96798400Y-126418399D01*
X96799604Y-126393895D01*
X96803204Y-126369627D01*
X96809165Y-126345828D01*
X96817430Y-126322729D01*
X96827920Y-126300550D01*
X96840532Y-126279507D01*
X96855147Y-126259801D01*
X96871623Y-126241623D01*
X96889801Y-126225147D01*
X96909507Y-126210532D01*
X96930550Y-126197920D01*
X96952729Y-126187430D01*
X96975828Y-126179165D01*
X96999627Y-126173204D01*
X97023895Y-126169604D01*
X97048399Y-126168400D01*
X97748401Y-126168400D01*
X97772905Y-126169604D01*
G37*
G04 #@! TD.AperFunction*
D18*
X99398400Y-127043400D03*
X101398400Y-127043400D03*
X103398400Y-127043400D03*
X105398400Y-127043400D03*
X107398400Y-127043400D03*
X125521300Y-127043400D03*
X123521300Y-127043400D03*
X121521300Y-127043400D03*
X119521300Y-127043400D03*
X117521300Y-127043400D03*
G04 #@! TA.AperFunction,ViaPad*
D19*
G36*
X115895805Y-126169604D02*
G01*
X115920073Y-126173204D01*
X115943872Y-126179165D01*
X115966971Y-126187430D01*
X115989150Y-126197920D01*
X116010193Y-126210532D01*
X116029899Y-126225147D01*
X116048077Y-126241623D01*
X116064553Y-126259801D01*
X116079168Y-126279507D01*
X116091780Y-126300550D01*
X116102270Y-126322729D01*
X116110535Y-126345828D01*
X116116496Y-126369627D01*
X116120096Y-126393895D01*
X116121300Y-126418399D01*
X116121300Y-127668401D01*
X116120096Y-127692905D01*
X116116496Y-127717173D01*
X116110535Y-127740972D01*
X116102270Y-127764071D01*
X116091780Y-127786250D01*
X116079168Y-127807293D01*
X116064553Y-127826999D01*
X116048077Y-127845177D01*
X116029899Y-127861653D01*
X116010193Y-127876268D01*
X115989150Y-127888880D01*
X115966971Y-127899370D01*
X115943872Y-127907635D01*
X115920073Y-127913596D01*
X115895805Y-127917196D01*
X115871301Y-127918400D01*
X115171299Y-127918400D01*
X115146795Y-127917196D01*
X115122527Y-127913596D01*
X115098728Y-127907635D01*
X115075629Y-127899370D01*
X115053450Y-127888880D01*
X115032407Y-127876268D01*
X115012701Y-127861653D01*
X114994523Y-127845177D01*
X114978047Y-127826999D01*
X114963432Y-127807293D01*
X114950820Y-127786250D01*
X114940330Y-127764071D01*
X114932065Y-127740972D01*
X114926104Y-127717173D01*
X114922504Y-127692905D01*
X114921300Y-127668401D01*
X114921300Y-126418399D01*
X114922504Y-126393895D01*
X114926104Y-126369627D01*
X114932065Y-126345828D01*
X114940330Y-126322729D01*
X114950820Y-126300550D01*
X114963432Y-126279507D01*
X114978047Y-126259801D01*
X114994523Y-126241623D01*
X115012701Y-126225147D01*
X115032407Y-126210532D01*
X115053450Y-126197920D01*
X115075629Y-126187430D01*
X115098728Y-126179165D01*
X115122527Y-126173204D01*
X115146795Y-126169604D01*
X115171299Y-126168400D01*
X115871301Y-126168400D01*
X115895805Y-126169604D01*
G37*
G04 #@! TD.AperFunction*
D20*
X116281200Y-92100400D03*
X116281200Y-89560400D03*
X116281200Y-87020400D03*
D10*
X50622200Y-75488800D03*
D11*
X50622200Y-78028800D03*
X50622200Y-80568800D03*
D10*
X50673000Y-93218000D03*
D11*
X50673000Y-90678000D03*
X50673000Y-88138000D03*
D12*
X82260000Y-52232400D03*
X70427400Y-73158200D03*
X72078400Y-70084800D03*
X72891200Y-70110200D03*
X73805600Y-69576800D03*
X61512000Y-81245500D03*
X83229000Y-86163000D03*
X80460400Y-88830000D03*
X85769000Y-75647400D03*
X71654100Y-54844600D03*
X64750500Y-77336500D03*
X69449500Y-75050500D03*
X108053700Y-88393500D03*
X107228200Y-88393500D03*
X121194000Y-88074000D03*
X122019500Y-88074000D03*
X124143500Y-76241500D03*
X134113000Y-76622500D03*
X127861500Y-88899500D03*
X128687000Y-88899500D03*
X129512500Y-88899500D03*
X68751000Y-79368500D03*
X73284900Y-87090100D03*
X79720000Y-52232400D03*
X83530000Y-52232400D03*
X93109600Y-57715000D03*
X93109600Y-56876800D03*
X52197000Y-80568800D03*
X114932400Y-96460800D03*
X114909600Y-88874600D03*
X114909600Y-89712800D03*
X114909600Y-90551000D03*
X115595400Y-88315800D03*
X117729000Y-106781600D03*
X121462800Y-110159800D03*
X117932200Y-110134400D03*
X79629000Y-98145600D03*
X80441800Y-98171000D03*
X117729000Y-98501200D03*
X118541800Y-98501200D03*
X124434600Y-85445600D03*
X124434600Y-84632800D03*
X60960000Y-65913000D03*
X60325000Y-68834000D03*
X64516000Y-70866000D03*
X70231000Y-78994000D03*
X66827400Y-83794600D03*
X81959000Y-75812500D03*
X85090000Y-62179200D03*
X82804000Y-70708200D03*
X83921600Y-62280800D03*
X78435200Y-74295000D03*
X78125686Y-68383005D03*
X73482200Y-77851000D03*
X78069118Y-67081400D03*
X67335400Y-55702200D03*
X72811665Y-69113366D03*
X75569097Y-69247484D03*
X73736200Y-74599800D03*
X69342000Y-72745600D03*
X64820800Y-88696800D03*
X69418200Y-88620600D03*
X73355200Y-79832200D03*
X71991431Y-84630596D03*
X72567800Y-90754200D03*
X78460600Y-82677000D03*
X78689200Y-87833200D03*
X74447400Y-92633800D03*
X79146400Y-86690200D03*
X74599800Y-93802200D03*
X72491600Y-87757000D03*
X72542400Y-89560400D03*
X106375200Y-100685600D03*
X106730800Y-95021400D03*
X93878400Y-79375000D03*
X81940400Y-79375000D03*
X107594400Y-96875600D03*
X79092425Y-85691655D03*
X98475800Y-103225600D03*
X81864200Y-88061800D03*
X98653600Y-100558600D03*
X81838800Y-86817200D03*
X79460603Y-82677000D03*
X73329800Y-81407000D03*
X71832331Y-83643331D03*
X66624200Y-87020400D03*
X64693800Y-87071200D03*
X67716400Y-84340000D03*
X66522600Y-85840000D03*
X76969322Y-82672202D03*
X77495400Y-88036400D03*
X87731600Y-96460801D03*
X87731600Y-106603800D03*
X86842600Y-124002800D03*
X78359000Y-100736400D03*
X78359000Y-105130600D03*
X80467200Y-114858800D03*
X82257000Y-117983000D03*
X76720020Y-87045800D03*
X75705440Y-88373901D03*
X92405200Y-106527400D03*
X92405200Y-96062800D03*
X93929200Y-106578400D03*
X94015031Y-97932769D03*
X93983069Y-91868731D03*
X93980000Y-86969600D03*
X100965000Y-118897400D03*
X95199200Y-106553000D03*
X95297731Y-99215469D03*
X95275400Y-94589600D03*
X95275400Y-83794600D03*
X102285800Y-120878600D03*
X96520000Y-106578400D03*
X96596200Y-99568000D03*
X96596200Y-94691200D03*
X96570800Y-86385400D03*
X81127600Y-71043800D03*
X83159600Y-67531000D03*
X91998800Y-65709800D03*
X81120800Y-69983200D03*
X78220000Y-71399400D03*
X108344400Y-93980000D03*
X83607169Y-95208831D03*
X75184000Y-81343500D03*
X84772500Y-83629500D03*
X85852000Y-84328000D03*
X98545200Y-57664200D03*
X98545200Y-56826000D03*
X84800000Y-52232400D03*
X66510600Y-54908100D03*
X71481500Y-72955000D03*
X71481500Y-72129500D03*
X70465500Y-75622000D03*
X67100000Y-80130500D03*
X74554900Y-87153600D03*
X83292500Y-84829500D03*
X85007000Y-73907500D03*
X67118000Y-70200000D03*
X67054500Y-66517000D03*
X52197000Y-75488800D03*
X117678200Y-87782400D03*
X117703600Y-86233000D03*
X117017800Y-85801200D03*
X117017800Y-88239600D03*
X108534200Y-85623400D03*
X108381800Y-86436200D03*
X120269000Y-98247200D03*
X82194400Y-98120200D03*
X120345200Y-106527400D03*
X81407000Y-106172000D03*
X83007200Y-98120200D03*
X121081800Y-98247200D03*
X65405000Y-69215000D03*
X60325000Y-67818000D03*
X63754000Y-65913000D03*
X61468000Y-70421500D03*
D21*
G36*
X135768083Y-49731173D02*
G01*
X136511891Y-49934656D01*
X137207905Y-50266638D01*
X137834130Y-50716626D01*
X138370777Y-51270403D01*
X138800871Y-51910451D01*
X139110829Y-52616553D01*
X139292065Y-53371457D01*
X139340001Y-54024220D01*
X139340001Y-74188866D01*
X139207718Y-74080305D01*
X138980141Y-73958662D01*
X138733205Y-73883755D01*
X138540751Y-73864800D01*
X138062049Y-73864800D01*
X137869595Y-73883755D01*
X137622659Y-73958662D01*
X137395082Y-74080305D01*
X137195608Y-74244008D01*
X137031905Y-74443482D01*
X136910262Y-74671059D01*
X136835355Y-74917995D01*
X136810062Y-75174800D01*
X136835355Y-75431605D01*
X136910262Y-75678541D01*
X137031905Y-75906118D01*
X137195608Y-76105592D01*
X137395082Y-76269295D01*
X137622659Y-76390938D01*
X137869595Y-76465845D01*
X138062049Y-76484800D01*
X138540751Y-76484800D01*
X138733205Y-76465845D01*
X138980141Y-76390938D01*
X139207718Y-76269295D01*
X139340001Y-76160734D01*
X139340001Y-79648866D01*
X139207718Y-79540305D01*
X138980141Y-79418662D01*
X138733205Y-79343755D01*
X138540751Y-79324800D01*
X138062049Y-79324800D01*
X137869595Y-79343755D01*
X137622659Y-79418662D01*
X137395082Y-79540305D01*
X137195608Y-79704008D01*
X137031905Y-79903482D01*
X136910262Y-80131059D01*
X136835355Y-80377995D01*
X136810062Y-80634800D01*
X136835355Y-80891605D01*
X136910262Y-81138541D01*
X137031905Y-81366118D01*
X137195608Y-81565592D01*
X137395082Y-81729295D01*
X137622659Y-81850938D01*
X137869595Y-81925845D01*
X138062049Y-81944800D01*
X138540751Y-81944800D01*
X138733205Y-81925845D01*
X138980141Y-81850938D01*
X139207718Y-81729295D01*
X139340001Y-81620734D01*
X139340001Y-85873000D01*
X131000000Y-85873000D01*
X130975224Y-85875440D01*
X130951399Y-85882667D01*
X130929443Y-85894403D01*
X130910197Y-85910197D01*
X130894403Y-85929443D01*
X130882667Y-85951399D01*
X130875440Y-85975224D01*
X130873000Y-86000000D01*
X130873000Y-98873000D01*
X121908438Y-98873000D01*
X121999005Y-98737456D01*
X122077026Y-98549098D01*
X122116800Y-98349139D01*
X122116800Y-98145261D01*
X122077026Y-97945302D01*
X121999005Y-97756944D01*
X121885737Y-97587426D01*
X121741574Y-97443263D01*
X121572056Y-97329995D01*
X121383698Y-97251974D01*
X121183739Y-97212200D01*
X120979861Y-97212200D01*
X120779902Y-97251974D01*
X120675400Y-97295260D01*
X120570898Y-97251974D01*
X120370939Y-97212200D01*
X120167061Y-97212200D01*
X119967102Y-97251974D01*
X119778744Y-97329995D01*
X119609226Y-97443263D01*
X119465063Y-97587426D01*
X119351795Y-97756944D01*
X119273774Y-97945302D01*
X119234000Y-98145261D01*
X119234000Y-98349139D01*
X119273774Y-98549098D01*
X119351795Y-98737456D01*
X119442362Y-98873000D01*
X97364911Y-98873000D01*
X97255974Y-98764063D01*
X97086456Y-98650795D01*
X96898098Y-98572774D01*
X96698139Y-98533000D01*
X96494261Y-98533000D01*
X96294302Y-98572774D01*
X96152364Y-98631567D01*
X96101668Y-98555695D01*
X95957505Y-98411532D01*
X95787987Y-98298264D01*
X95599629Y-98220243D01*
X95399670Y-98180469D01*
X95195792Y-98180469D01*
X95013838Y-98216662D01*
X95050031Y-98034708D01*
X95050031Y-97830830D01*
X95010257Y-97630871D01*
X94932236Y-97442513D01*
X94818968Y-97272995D01*
X94674805Y-97128832D01*
X94505287Y-97015564D01*
X94316929Y-96937543D01*
X94116970Y-96897769D01*
X93913092Y-96897769D01*
X93713133Y-96937543D01*
X93524775Y-97015564D01*
X93355257Y-97128832D01*
X93211094Y-97272995D01*
X93097826Y-97442513D01*
X93019805Y-97630871D01*
X92980031Y-97830830D01*
X92980031Y-98034708D01*
X93019805Y-98234667D01*
X93097826Y-98423025D01*
X93211094Y-98592543D01*
X93355257Y-98736706D01*
X93524775Y-98849974D01*
X93580364Y-98873000D01*
X83718111Y-98873000D01*
X83811137Y-98779974D01*
X83924405Y-98610456D01*
X84002426Y-98422098D01*
X84042200Y-98222139D01*
X84042200Y-98018261D01*
X84002426Y-97818302D01*
X83924405Y-97629944D01*
X83811137Y-97460426D01*
X83666974Y-97316263D01*
X83497456Y-97202995D01*
X83309098Y-97124974D01*
X83109139Y-97085200D01*
X82905261Y-97085200D01*
X82705302Y-97124974D01*
X82600800Y-97168260D01*
X82496298Y-97124974D01*
X82296339Y-97085200D01*
X82092461Y-97085200D01*
X81892502Y-97124974D01*
X81704144Y-97202995D01*
X81534626Y-97316263D01*
X81390463Y-97460426D01*
X81277195Y-97629944D01*
X81199174Y-97818302D01*
X81159400Y-98018261D01*
X81159400Y-98222139D01*
X81199174Y-98422098D01*
X81277195Y-98610456D01*
X81390463Y-98779974D01*
X81483489Y-98873000D01*
X45660000Y-98873000D01*
X45660000Y-96358862D01*
X86696600Y-96358862D01*
X86696600Y-96562740D01*
X86736374Y-96762699D01*
X86814395Y-96951057D01*
X86927663Y-97120575D01*
X87071826Y-97264738D01*
X87241344Y-97378006D01*
X87429702Y-97456027D01*
X87629661Y-97495801D01*
X87833539Y-97495801D01*
X88033498Y-97456027D01*
X88221856Y-97378006D01*
X88391374Y-97264738D01*
X88535537Y-97120575D01*
X88648805Y-96951057D01*
X88726826Y-96762699D01*
X88766600Y-96562740D01*
X88766600Y-96358862D01*
X88726826Y-96158903D01*
X88648805Y-95970545D01*
X88642335Y-95960861D01*
X91370200Y-95960861D01*
X91370200Y-96164739D01*
X91409974Y-96364698D01*
X91487995Y-96553056D01*
X91601263Y-96722574D01*
X91745426Y-96866737D01*
X91914944Y-96980005D01*
X92103302Y-97058026D01*
X92303261Y-97097800D01*
X92507139Y-97097800D01*
X92707098Y-97058026D01*
X92895456Y-96980005D01*
X93064974Y-96866737D01*
X93209137Y-96722574D01*
X93322405Y-96553056D01*
X93400426Y-96364698D01*
X93440200Y-96164739D01*
X93440200Y-95960861D01*
X93400426Y-95760902D01*
X93322405Y-95572544D01*
X93209137Y-95403026D01*
X93064974Y-95258863D01*
X92895456Y-95145595D01*
X92707098Y-95067574D01*
X92507139Y-95027800D01*
X92303261Y-95027800D01*
X92103302Y-95067574D01*
X91914944Y-95145595D01*
X91745426Y-95258863D01*
X91601263Y-95403026D01*
X91487995Y-95572544D01*
X91409974Y-95760902D01*
X91370200Y-95960861D01*
X88642335Y-95960861D01*
X88535537Y-95801027D01*
X88391374Y-95656864D01*
X88221856Y-95543596D01*
X88033498Y-95465575D01*
X87833539Y-95425801D01*
X87629661Y-95425801D01*
X87429702Y-95465575D01*
X87241344Y-95543596D01*
X87071826Y-95656864D01*
X86927663Y-95801027D01*
X86814395Y-95970545D01*
X86736374Y-96158903D01*
X86696600Y-96358862D01*
X45660000Y-96358862D01*
X45660000Y-95106892D01*
X82572169Y-95106892D01*
X82572169Y-95310770D01*
X82611943Y-95510729D01*
X82689964Y-95699087D01*
X82803232Y-95868605D01*
X82947395Y-96012768D01*
X83116913Y-96126036D01*
X83305271Y-96204057D01*
X83505230Y-96243831D01*
X83709108Y-96243831D01*
X83909067Y-96204057D01*
X84097425Y-96126036D01*
X84266943Y-96012768D01*
X84411106Y-95868605D01*
X84524374Y-95699087D01*
X84602395Y-95510729D01*
X84642169Y-95310770D01*
X84642169Y-95106892D01*
X84602395Y-94906933D01*
X84524374Y-94718575D01*
X84411106Y-94549057D01*
X84349710Y-94487661D01*
X94240400Y-94487661D01*
X94240400Y-94691539D01*
X94280174Y-94891498D01*
X94358195Y-95079856D01*
X94471463Y-95249374D01*
X94615626Y-95393537D01*
X94785144Y-95506805D01*
X94973502Y-95584826D01*
X95173461Y-95624600D01*
X95377339Y-95624600D01*
X95577298Y-95584826D01*
X95765656Y-95506805D01*
X95875020Y-95433731D01*
X95936426Y-95495137D01*
X96105944Y-95608405D01*
X96294302Y-95686426D01*
X96494261Y-95726200D01*
X96698139Y-95726200D01*
X96898098Y-95686426D01*
X97086456Y-95608405D01*
X97255974Y-95495137D01*
X97400137Y-95350974D01*
X97513405Y-95181456D01*
X97591426Y-94993098D01*
X97606073Y-94919461D01*
X105695800Y-94919461D01*
X105695800Y-95123339D01*
X105735574Y-95323298D01*
X105813595Y-95511656D01*
X105926863Y-95681174D01*
X106071026Y-95825337D01*
X106240544Y-95938605D01*
X106428902Y-96016626D01*
X106628861Y-96056400D01*
X106832739Y-96056400D01*
X107010339Y-96021073D01*
X106934626Y-96071663D01*
X106790463Y-96215826D01*
X106677195Y-96385344D01*
X106599174Y-96573702D01*
X106559400Y-96773661D01*
X106559400Y-96977539D01*
X106599174Y-97177498D01*
X106677195Y-97365856D01*
X106790463Y-97535374D01*
X106934626Y-97679537D01*
X107104144Y-97792805D01*
X107292502Y-97870826D01*
X107492461Y-97910600D01*
X107696339Y-97910600D01*
X107896298Y-97870826D01*
X108084656Y-97792805D01*
X108254174Y-97679537D01*
X108398337Y-97535374D01*
X108511605Y-97365856D01*
X108589626Y-97177498D01*
X108629400Y-96977539D01*
X108629400Y-96773661D01*
X108589626Y-96573702D01*
X108511605Y-96385344D01*
X108398337Y-96215826D01*
X108254174Y-96071663D01*
X108084656Y-95958395D01*
X107896298Y-95880374D01*
X107696339Y-95840600D01*
X107492461Y-95840600D01*
X107314861Y-95875927D01*
X107390574Y-95825337D01*
X107534737Y-95681174D01*
X107648005Y-95511656D01*
X107726026Y-95323298D01*
X107765800Y-95123339D01*
X107765800Y-94919461D01*
X107747153Y-94825716D01*
X107854144Y-94897205D01*
X108042502Y-94975226D01*
X108242461Y-95015000D01*
X108446339Y-95015000D01*
X108646298Y-94975226D01*
X108834656Y-94897205D01*
X109004174Y-94783937D01*
X109148337Y-94639774D01*
X109261605Y-94470256D01*
X109339626Y-94281898D01*
X109379400Y-94081939D01*
X109379400Y-93878061D01*
X109339626Y-93678102D01*
X109261605Y-93489744D01*
X109148337Y-93320226D01*
X109004174Y-93176063D01*
X108834656Y-93062795D01*
X108646298Y-92984774D01*
X108446339Y-92945000D01*
X108242461Y-92945000D01*
X108042502Y-92984774D01*
X107854144Y-93062795D01*
X107684626Y-93176063D01*
X107540463Y-93320226D01*
X107427195Y-93489744D01*
X107349174Y-93678102D01*
X107309400Y-93878061D01*
X107309400Y-94081939D01*
X107328047Y-94175684D01*
X107221056Y-94104195D01*
X107032698Y-94026174D01*
X106832739Y-93986400D01*
X106628861Y-93986400D01*
X106428902Y-94026174D01*
X106240544Y-94104195D01*
X106071026Y-94217463D01*
X105926863Y-94361626D01*
X105813595Y-94531144D01*
X105735574Y-94719502D01*
X105695800Y-94919461D01*
X97606073Y-94919461D01*
X97631200Y-94793139D01*
X97631200Y-94589261D01*
X97591426Y-94389302D01*
X97513405Y-94200944D01*
X97400137Y-94031426D01*
X97255974Y-93887263D01*
X97086456Y-93773995D01*
X96898098Y-93695974D01*
X96698139Y-93656200D01*
X96494261Y-93656200D01*
X96294302Y-93695974D01*
X96105944Y-93773995D01*
X95996580Y-93847069D01*
X95935174Y-93785663D01*
X95765656Y-93672395D01*
X95577298Y-93594374D01*
X95377339Y-93554600D01*
X95173461Y-93554600D01*
X94973502Y-93594374D01*
X94785144Y-93672395D01*
X94615626Y-93785663D01*
X94471463Y-93929826D01*
X94358195Y-94099344D01*
X94280174Y-94287702D01*
X94240400Y-94487661D01*
X84349710Y-94487661D01*
X84266943Y-94404894D01*
X84097425Y-94291626D01*
X83909067Y-94213605D01*
X83709108Y-94173831D01*
X83505230Y-94173831D01*
X83305271Y-94213605D01*
X83116913Y-94291626D01*
X82947395Y-94404894D01*
X82803232Y-94549057D01*
X82689964Y-94718575D01*
X82611943Y-94906933D01*
X82572169Y-95106892D01*
X45660000Y-95106892D01*
X45660000Y-92368000D01*
X49184928Y-92368000D01*
X49184928Y-94068000D01*
X49197188Y-94192482D01*
X49233498Y-94312180D01*
X49292463Y-94422494D01*
X49371815Y-94519185D01*
X49468506Y-94598537D01*
X49578820Y-94657502D01*
X49698518Y-94693812D01*
X49823000Y-94706072D01*
X51523000Y-94706072D01*
X51647482Y-94693812D01*
X51767180Y-94657502D01*
X51877494Y-94598537D01*
X51974185Y-94519185D01*
X52053537Y-94422494D01*
X52112502Y-94312180D01*
X52148812Y-94192482D01*
X52161072Y-94068000D01*
X52161072Y-92531861D01*
X73412400Y-92531861D01*
X73412400Y-92735739D01*
X73452174Y-92935698D01*
X73530195Y-93124056D01*
X73643463Y-93293574D01*
X73676514Y-93326625D01*
X73604574Y-93500302D01*
X73564800Y-93700261D01*
X73564800Y-93904139D01*
X73604574Y-94104098D01*
X73682595Y-94292456D01*
X73795863Y-94461974D01*
X73940026Y-94606137D01*
X74109544Y-94719405D01*
X74297902Y-94797426D01*
X74497861Y-94837200D01*
X74701739Y-94837200D01*
X74901698Y-94797426D01*
X75090056Y-94719405D01*
X75259574Y-94606137D01*
X75403737Y-94461974D01*
X75517005Y-94292456D01*
X75595026Y-94104098D01*
X75634800Y-93904139D01*
X75634800Y-93700261D01*
X75595026Y-93500302D01*
X75517005Y-93311944D01*
X75403737Y-93142426D01*
X75370686Y-93109375D01*
X75442626Y-92935698D01*
X75482400Y-92735739D01*
X75482400Y-92531861D01*
X75442626Y-92331902D01*
X75364605Y-92143544D01*
X75251337Y-91974026D01*
X75107174Y-91829863D01*
X75012782Y-91766792D01*
X92948069Y-91766792D01*
X92948069Y-91970670D01*
X92987843Y-92170629D01*
X93065864Y-92358987D01*
X93179132Y-92528505D01*
X93323295Y-92672668D01*
X93492813Y-92785936D01*
X93681171Y-92863957D01*
X93881130Y-92903731D01*
X94085008Y-92903731D01*
X94284967Y-92863957D01*
X94473325Y-92785936D01*
X94642843Y-92672668D01*
X94787006Y-92528505D01*
X94900274Y-92358987D01*
X94978295Y-92170629D01*
X95018069Y-91970670D01*
X95018069Y-91962808D01*
X114884200Y-91962808D01*
X114884200Y-92237992D01*
X114937886Y-92507890D01*
X115043195Y-92762127D01*
X115196080Y-92990935D01*
X115390665Y-93185520D01*
X115619473Y-93338405D01*
X115873710Y-93443714D01*
X116143608Y-93497400D01*
X116418792Y-93497400D01*
X116688690Y-93443714D01*
X116942927Y-93338405D01*
X117171735Y-93185520D01*
X117366320Y-92990935D01*
X117519205Y-92762127D01*
X117624514Y-92507890D01*
X117678200Y-92237992D01*
X117678200Y-91962808D01*
X117624514Y-91692910D01*
X117519205Y-91438673D01*
X117366320Y-91209865D01*
X117171735Y-91015280D01*
X116942927Y-90862395D01*
X116871257Y-90832708D01*
X116884223Y-90828036D01*
X117000180Y-90766056D01*
X117067160Y-90525965D01*
X116281200Y-89740005D01*
X115495240Y-90525965D01*
X115562220Y-90766056D01*
X115697960Y-90829885D01*
X115619473Y-90862395D01*
X115390665Y-91015280D01*
X115196080Y-91209865D01*
X115043195Y-91438673D01*
X114937886Y-91692910D01*
X114884200Y-91962808D01*
X95018069Y-91962808D01*
X95018069Y-91766792D01*
X94978295Y-91566833D01*
X94900274Y-91378475D01*
X94787006Y-91208957D01*
X94642843Y-91064794D01*
X94473325Y-90951526D01*
X94284967Y-90873505D01*
X94085008Y-90833731D01*
X93881130Y-90833731D01*
X93681171Y-90873505D01*
X93492813Y-90951526D01*
X93323295Y-91064794D01*
X93179132Y-91208957D01*
X93065864Y-91378475D01*
X92987843Y-91566833D01*
X92948069Y-91766792D01*
X75012782Y-91766792D01*
X74937656Y-91716595D01*
X74749298Y-91638574D01*
X74549339Y-91598800D01*
X74345461Y-91598800D01*
X74145502Y-91638574D01*
X73957144Y-91716595D01*
X73787626Y-91829863D01*
X73643463Y-91974026D01*
X73530195Y-92143544D01*
X73452174Y-92331902D01*
X73412400Y-92531861D01*
X52161072Y-92531861D01*
X52161072Y-92368000D01*
X52148812Y-92243518D01*
X52112502Y-92123820D01*
X52053537Y-92013506D01*
X51974185Y-91916815D01*
X51877494Y-91837463D01*
X51767180Y-91778498D01*
X51694620Y-91756487D01*
X51826475Y-91624632D01*
X51988990Y-91381411D01*
X52100932Y-91111158D01*
X52158000Y-90824260D01*
X52158000Y-90531740D01*
X52100932Y-90244842D01*
X51988990Y-89974589D01*
X51826475Y-89731368D01*
X51619632Y-89524525D01*
X51445240Y-89408000D01*
X51619632Y-89291475D01*
X51826475Y-89084632D01*
X51988990Y-88841411D01*
X52100932Y-88571158D01*
X52158000Y-88284260D01*
X52158000Y-87991740D01*
X52100932Y-87704842D01*
X51988990Y-87434589D01*
X51826475Y-87191368D01*
X51619632Y-86984525D01*
X51596788Y-86969261D01*
X63658800Y-86969261D01*
X63658800Y-87173139D01*
X63698574Y-87373098D01*
X63776595Y-87561456D01*
X63889863Y-87730974D01*
X64034026Y-87875137D01*
X64120783Y-87933106D01*
X64016863Y-88037026D01*
X63903595Y-88206544D01*
X63825574Y-88394902D01*
X63785800Y-88594861D01*
X63785800Y-88798739D01*
X63825574Y-88998698D01*
X63903595Y-89187056D01*
X64016863Y-89356574D01*
X64161026Y-89500737D01*
X64330544Y-89614005D01*
X64518902Y-89692026D01*
X64718861Y-89731800D01*
X64922739Y-89731800D01*
X65122698Y-89692026D01*
X65311056Y-89614005D01*
X65480574Y-89500737D01*
X65624737Y-89356574D01*
X65738005Y-89187056D01*
X65816026Y-88998698D01*
X65855800Y-88798739D01*
X65855800Y-88594861D01*
X65840643Y-88518661D01*
X68383200Y-88518661D01*
X68383200Y-88722539D01*
X68422974Y-88922498D01*
X68500995Y-89110856D01*
X68614263Y-89280374D01*
X68758426Y-89424537D01*
X68927944Y-89537805D01*
X69116302Y-89615826D01*
X69316261Y-89655600D01*
X69520139Y-89655600D01*
X69720098Y-89615826D01*
X69908456Y-89537805D01*
X70077974Y-89424537D01*
X70222137Y-89280374D01*
X70335405Y-89110856D01*
X70413426Y-88922498D01*
X70453200Y-88722539D01*
X70453200Y-88518661D01*
X70413426Y-88318702D01*
X70335405Y-88130344D01*
X70222137Y-87960826D01*
X70077974Y-87816663D01*
X69908456Y-87703395D01*
X69791769Y-87655061D01*
X71456600Y-87655061D01*
X71456600Y-87858939D01*
X71496374Y-88058898D01*
X71574395Y-88247256D01*
X71687663Y-88416774D01*
X71831826Y-88560937D01*
X72001344Y-88674205D01*
X72004054Y-88675328D01*
X71882626Y-88756463D01*
X71738463Y-88900626D01*
X71625195Y-89070144D01*
X71547174Y-89258502D01*
X71507400Y-89458461D01*
X71507400Y-89662339D01*
X71547174Y-89862298D01*
X71625195Y-90050656D01*
X71709152Y-90176307D01*
X71650595Y-90263944D01*
X71572574Y-90452302D01*
X71532800Y-90652261D01*
X71532800Y-90856139D01*
X71572574Y-91056098D01*
X71650595Y-91244456D01*
X71763863Y-91413974D01*
X71908026Y-91558137D01*
X72077544Y-91671405D01*
X72265902Y-91749426D01*
X72465861Y-91789200D01*
X72669739Y-91789200D01*
X72869698Y-91749426D01*
X73058056Y-91671405D01*
X73227574Y-91558137D01*
X73371737Y-91413974D01*
X73485005Y-91244456D01*
X73563026Y-91056098D01*
X73602800Y-90856139D01*
X73602800Y-90652261D01*
X73563026Y-90452302D01*
X73485005Y-90263944D01*
X73401048Y-90138293D01*
X73459605Y-90050656D01*
X73537626Y-89862298D01*
X73577400Y-89662339D01*
X73577400Y-89632417D01*
X114879290Y-89632417D01*
X114920278Y-89904533D01*
X115013564Y-90163423D01*
X115075544Y-90279380D01*
X115315635Y-90346360D01*
X116101595Y-89560400D01*
X115315635Y-88774440D01*
X115075544Y-88841420D01*
X114958444Y-89090448D01*
X114892177Y-89357535D01*
X114879290Y-89632417D01*
X73577400Y-89632417D01*
X73577400Y-89458461D01*
X73537626Y-89258502D01*
X73459605Y-89070144D01*
X73346337Y-88900626D01*
X73202174Y-88756463D01*
X73032656Y-88643195D01*
X73029946Y-88642072D01*
X73151374Y-88560937D01*
X73295537Y-88416774D01*
X73408805Y-88247256D01*
X73486826Y-88058898D01*
X73526600Y-87858939D01*
X73526600Y-87655061D01*
X73486826Y-87455102D01*
X73408805Y-87266744D01*
X73295537Y-87097226D01*
X73249972Y-87051661D01*
X73519900Y-87051661D01*
X73519900Y-87255539D01*
X73559674Y-87455498D01*
X73637695Y-87643856D01*
X73750963Y-87813374D01*
X73895126Y-87957537D01*
X74064644Y-88070805D01*
X74253002Y-88148826D01*
X74452961Y-88188600D01*
X74656839Y-88188600D01*
X74688265Y-88182349D01*
X74670440Y-88271962D01*
X74670440Y-88475840D01*
X74710214Y-88675799D01*
X74788235Y-88864157D01*
X74901503Y-89033675D01*
X75045666Y-89177838D01*
X75215184Y-89291106D01*
X75403542Y-89369127D01*
X75603501Y-89408901D01*
X75807379Y-89408901D01*
X76007338Y-89369127D01*
X76195696Y-89291106D01*
X76365214Y-89177838D01*
X76509377Y-89033675D01*
X76622645Y-88864157D01*
X76692003Y-88696714D01*
X76835626Y-88840337D01*
X77005144Y-88953605D01*
X77193502Y-89031626D01*
X77393461Y-89071400D01*
X77597339Y-89071400D01*
X77797298Y-89031626D01*
X77985656Y-88953605D01*
X78155174Y-88840337D01*
X78231585Y-88763926D01*
X78387302Y-88828426D01*
X78587261Y-88868200D01*
X78791139Y-88868200D01*
X78991098Y-88828426D01*
X79179456Y-88750405D01*
X79348974Y-88637137D01*
X79493137Y-88492974D01*
X79606405Y-88323456D01*
X79684426Y-88135098D01*
X79724200Y-87935139D01*
X79724200Y-87731261D01*
X79692184Y-87570303D01*
X79806174Y-87494137D01*
X79950337Y-87349974D01*
X80063605Y-87180456D01*
X80141626Y-86992098D01*
X80181400Y-86792139D01*
X80181400Y-86715261D01*
X80803800Y-86715261D01*
X80803800Y-86919139D01*
X80843574Y-87119098D01*
X80921595Y-87307456D01*
X81022524Y-87458507D01*
X80946995Y-87571544D01*
X80868974Y-87759902D01*
X80829200Y-87959861D01*
X80829200Y-88163739D01*
X80868974Y-88363698D01*
X80946995Y-88552056D01*
X81060263Y-88721574D01*
X81204426Y-88865737D01*
X81373944Y-88979005D01*
X81562302Y-89057026D01*
X81762261Y-89096800D01*
X81966139Y-89096800D01*
X82166098Y-89057026D01*
X82354456Y-88979005D01*
X82523974Y-88865737D01*
X82668137Y-88721574D01*
X82781405Y-88552056D01*
X82859426Y-88363698D01*
X82899200Y-88163739D01*
X82899200Y-87959861D01*
X82859426Y-87759902D01*
X82781405Y-87571544D01*
X82680476Y-87420493D01*
X82756005Y-87307456D01*
X82834026Y-87119098D01*
X82873800Y-86919139D01*
X82873800Y-86867661D01*
X92945000Y-86867661D01*
X92945000Y-87071539D01*
X92984774Y-87271498D01*
X93062795Y-87459856D01*
X93176063Y-87629374D01*
X93320226Y-87773537D01*
X93489744Y-87886805D01*
X93678102Y-87964826D01*
X93878061Y-88004600D01*
X94081939Y-88004600D01*
X94281898Y-87964826D01*
X94470256Y-87886805D01*
X94639774Y-87773537D01*
X94783937Y-87629374D01*
X94897205Y-87459856D01*
X94975226Y-87271498D01*
X95015000Y-87071539D01*
X95015000Y-86867661D01*
X94975226Y-86667702D01*
X94897205Y-86479344D01*
X94783937Y-86309826D01*
X94757572Y-86283461D01*
X95535800Y-86283461D01*
X95535800Y-86487339D01*
X95575574Y-86687298D01*
X95653595Y-86875656D01*
X95766863Y-87045174D01*
X95911026Y-87189337D01*
X96080544Y-87302605D01*
X96268902Y-87380626D01*
X96468861Y-87420400D01*
X96672739Y-87420400D01*
X96872698Y-87380626D01*
X97061056Y-87302605D01*
X97230574Y-87189337D01*
X97374737Y-87045174D01*
X97488005Y-86875656D01*
X97566026Y-86687298D01*
X97605800Y-86487339D01*
X97605800Y-86334261D01*
X107346800Y-86334261D01*
X107346800Y-86538139D01*
X107386574Y-86738098D01*
X107464595Y-86926456D01*
X107577863Y-87095974D01*
X107722026Y-87240137D01*
X107891544Y-87353405D01*
X108079902Y-87431426D01*
X108279861Y-87471200D01*
X108483739Y-87471200D01*
X108683698Y-87431426D01*
X108872056Y-87353405D01*
X109041574Y-87240137D01*
X109185737Y-87095974D01*
X109299005Y-86926456D01*
X109317084Y-86882808D01*
X114884200Y-86882808D01*
X114884200Y-87157992D01*
X114937886Y-87427890D01*
X115043195Y-87682127D01*
X115196080Y-87910935D01*
X115390665Y-88105520D01*
X115619473Y-88258405D01*
X115691143Y-88288092D01*
X115678177Y-88292764D01*
X115562220Y-88354744D01*
X115495240Y-88594835D01*
X116281200Y-89380795D01*
X116295343Y-89366653D01*
X116474948Y-89546258D01*
X116460805Y-89560400D01*
X117246765Y-90346360D01*
X117486856Y-90279380D01*
X117603956Y-90030352D01*
X117670223Y-89763265D01*
X117683110Y-89488383D01*
X117642122Y-89216267D01*
X117598839Y-89096146D01*
X117677574Y-89043537D01*
X117821737Y-88899374D01*
X117891282Y-88795292D01*
X117980098Y-88777626D01*
X118168456Y-88699605D01*
X118337974Y-88586337D01*
X118482137Y-88442174D01*
X118595405Y-88272656D01*
X118673426Y-88084298D01*
X118713200Y-87884339D01*
X118713200Y-87680461D01*
X118673426Y-87480502D01*
X118595405Y-87292144D01*
X118482137Y-87122626D01*
X118379911Y-87020400D01*
X118507537Y-86892774D01*
X118620805Y-86723256D01*
X118698826Y-86534898D01*
X118738600Y-86334939D01*
X118738600Y-86131061D01*
X118698826Y-85931102D01*
X118620805Y-85742744D01*
X118507537Y-85573226D01*
X118363374Y-85429063D01*
X118193856Y-85315795D01*
X118005498Y-85237774D01*
X117867815Y-85210387D01*
X117821737Y-85141426D01*
X117677574Y-84997263D01*
X117508056Y-84883995D01*
X117319698Y-84805974D01*
X117119739Y-84766200D01*
X116915861Y-84766200D01*
X116715902Y-84805974D01*
X116527544Y-84883995D01*
X116358026Y-84997263D01*
X116213863Y-85141426D01*
X116100595Y-85310944D01*
X116022574Y-85499302D01*
X115991887Y-85653579D01*
X115873710Y-85677086D01*
X115619473Y-85782395D01*
X115390665Y-85935280D01*
X115196080Y-86129865D01*
X115043195Y-86358673D01*
X114937886Y-86612910D01*
X114884200Y-86882808D01*
X109317084Y-86882808D01*
X109377026Y-86738098D01*
X109416800Y-86538139D01*
X109416800Y-86334261D01*
X109390924Y-86204172D01*
X109451405Y-86113656D01*
X109529426Y-85925298D01*
X109569200Y-85725339D01*
X109569200Y-85521461D01*
X109529426Y-85321502D01*
X109451405Y-85133144D01*
X109338137Y-84963626D01*
X109193974Y-84819463D01*
X109024456Y-84706195D01*
X108836098Y-84628174D01*
X108636139Y-84588400D01*
X108432261Y-84588400D01*
X108232302Y-84628174D01*
X108043944Y-84706195D01*
X107874426Y-84819463D01*
X107730263Y-84963626D01*
X107616995Y-85133144D01*
X107538974Y-85321502D01*
X107499200Y-85521461D01*
X107499200Y-85725339D01*
X107525076Y-85855428D01*
X107464595Y-85945944D01*
X107386574Y-86134302D01*
X107346800Y-86334261D01*
X97605800Y-86334261D01*
X97605800Y-86283461D01*
X97566026Y-86083502D01*
X97488005Y-85895144D01*
X97374737Y-85725626D01*
X97230574Y-85581463D01*
X97061056Y-85468195D01*
X96872698Y-85390174D01*
X96672739Y-85350400D01*
X96468861Y-85350400D01*
X96268902Y-85390174D01*
X96080544Y-85468195D01*
X95911026Y-85581463D01*
X95766863Y-85725626D01*
X95653595Y-85895144D01*
X95575574Y-86083502D01*
X95535800Y-86283461D01*
X94757572Y-86283461D01*
X94639774Y-86165663D01*
X94470256Y-86052395D01*
X94281898Y-85974374D01*
X94081939Y-85934600D01*
X93878061Y-85934600D01*
X93678102Y-85974374D01*
X93489744Y-86052395D01*
X93320226Y-86165663D01*
X93176063Y-86309826D01*
X93062795Y-86479344D01*
X92984774Y-86667702D01*
X92945000Y-86867661D01*
X82873800Y-86867661D01*
X82873800Y-86715261D01*
X82834026Y-86515302D01*
X82756005Y-86326944D01*
X82642737Y-86157426D01*
X82498574Y-86013263D01*
X82329056Y-85899995D01*
X82140698Y-85821974D01*
X81940739Y-85782200D01*
X81736861Y-85782200D01*
X81536902Y-85821974D01*
X81348544Y-85899995D01*
X81179026Y-86013263D01*
X81034863Y-86157426D01*
X80921595Y-86326944D01*
X80843574Y-86515302D01*
X80803800Y-86715261D01*
X80181400Y-86715261D01*
X80181400Y-86588261D01*
X80141626Y-86388302D01*
X80063605Y-86199944D01*
X80025674Y-86143177D01*
X80087651Y-85993553D01*
X80127425Y-85793594D01*
X80127425Y-85589716D01*
X80087651Y-85389757D01*
X80009630Y-85201399D01*
X79896362Y-85031881D01*
X79752199Y-84887718D01*
X79582681Y-84774450D01*
X79469482Y-84727561D01*
X82257500Y-84727561D01*
X82257500Y-84931439D01*
X82297274Y-85131398D01*
X82375295Y-85319756D01*
X82488563Y-85489274D01*
X82632726Y-85633437D01*
X82802244Y-85746705D01*
X82990602Y-85824726D01*
X83190561Y-85864500D01*
X83394439Y-85864500D01*
X83594398Y-85824726D01*
X83782756Y-85746705D01*
X83952274Y-85633437D01*
X84096437Y-85489274D01*
X84209705Y-85319756D01*
X84287726Y-85131398D01*
X84327500Y-84931439D01*
X84327500Y-84727561D01*
X84292359Y-84550895D01*
X84470602Y-84624726D01*
X84670561Y-84664500D01*
X84871107Y-84664500D01*
X84934795Y-84818256D01*
X85048063Y-84987774D01*
X85192226Y-85131937D01*
X85361744Y-85245205D01*
X85550102Y-85323226D01*
X85750061Y-85363000D01*
X85953939Y-85363000D01*
X86153898Y-85323226D01*
X86342256Y-85245205D01*
X86511774Y-85131937D01*
X86655937Y-84987774D01*
X86769205Y-84818256D01*
X86847226Y-84629898D01*
X86887000Y-84429939D01*
X86887000Y-84226061D01*
X86847226Y-84026102D01*
X86769205Y-83837744D01*
X86672264Y-83692661D01*
X94240400Y-83692661D01*
X94240400Y-83896539D01*
X94280174Y-84096498D01*
X94358195Y-84284856D01*
X94471463Y-84454374D01*
X94615626Y-84598537D01*
X94785144Y-84711805D01*
X94973502Y-84789826D01*
X95173461Y-84829600D01*
X95377339Y-84829600D01*
X95577298Y-84789826D01*
X95765656Y-84711805D01*
X95935174Y-84598537D01*
X96079337Y-84454374D01*
X96192605Y-84284856D01*
X96270626Y-84096498D01*
X96310400Y-83896539D01*
X96310400Y-83692661D01*
X96270626Y-83492702D01*
X96192605Y-83304344D01*
X96079337Y-83134826D01*
X95935174Y-82990663D01*
X95765656Y-82877395D01*
X95577298Y-82799374D01*
X95377339Y-82759600D01*
X95173461Y-82759600D01*
X94973502Y-82799374D01*
X94785144Y-82877395D01*
X94615626Y-82990663D01*
X94471463Y-83134826D01*
X94358195Y-83304344D01*
X94280174Y-83492702D01*
X94240400Y-83692661D01*
X86672264Y-83692661D01*
X86655937Y-83668226D01*
X86511774Y-83524063D01*
X86342256Y-83410795D01*
X86153898Y-83332774D01*
X85953939Y-83293000D01*
X85753393Y-83293000D01*
X85689705Y-83139244D01*
X85576437Y-82969726D01*
X85432274Y-82825563D01*
X85262756Y-82712295D01*
X85074398Y-82634274D01*
X84874439Y-82594500D01*
X84670561Y-82594500D01*
X84470602Y-82634274D01*
X84282244Y-82712295D01*
X84112726Y-82825563D01*
X83968563Y-82969726D01*
X83855295Y-83139244D01*
X83777274Y-83327602D01*
X83737500Y-83527561D01*
X83737500Y-83731439D01*
X83772641Y-83908105D01*
X83594398Y-83834274D01*
X83394439Y-83794500D01*
X83190561Y-83794500D01*
X82990602Y-83834274D01*
X82802244Y-83912295D01*
X82632726Y-84025563D01*
X82488563Y-84169726D01*
X82375295Y-84339244D01*
X82297274Y-84527602D01*
X82257500Y-84727561D01*
X79469482Y-84727561D01*
X79394323Y-84696429D01*
X79194364Y-84656655D01*
X78990486Y-84656655D01*
X78790527Y-84696429D01*
X78602169Y-84774450D01*
X78432651Y-84887718D01*
X78288488Y-85031881D01*
X78175220Y-85201399D01*
X78097199Y-85389757D01*
X78057425Y-85589716D01*
X78057425Y-85793594D01*
X78097199Y-85993553D01*
X78175220Y-86181911D01*
X78213151Y-86238678D01*
X78151174Y-86388302D01*
X78111400Y-86588261D01*
X78111400Y-86792139D01*
X78143416Y-86953097D01*
X78029426Y-87029263D01*
X77953015Y-87105674D01*
X77797298Y-87041174D01*
X77755020Y-87032764D01*
X77755020Y-86943861D01*
X77715246Y-86743902D01*
X77637225Y-86555544D01*
X77523957Y-86386026D01*
X77379794Y-86241863D01*
X77210276Y-86128595D01*
X77021918Y-86050574D01*
X76821959Y-86010800D01*
X76618081Y-86010800D01*
X76418122Y-86050574D01*
X76229764Y-86128595D01*
X76060246Y-86241863D01*
X75916083Y-86386026D01*
X75802815Y-86555544D01*
X75724794Y-86743902D01*
X75685020Y-86943861D01*
X75685020Y-87147739D01*
X75723044Y-87338901D01*
X75603501Y-87338901D01*
X75572075Y-87345152D01*
X75589900Y-87255539D01*
X75589900Y-87051661D01*
X75550126Y-86851702D01*
X75472105Y-86663344D01*
X75358837Y-86493826D01*
X75214674Y-86349663D01*
X75045156Y-86236395D01*
X74856798Y-86158374D01*
X74656839Y-86118600D01*
X74452961Y-86118600D01*
X74253002Y-86158374D01*
X74064644Y-86236395D01*
X73895126Y-86349663D01*
X73750963Y-86493826D01*
X73637695Y-86663344D01*
X73559674Y-86851702D01*
X73519900Y-87051661D01*
X73249972Y-87051661D01*
X73151374Y-86953063D01*
X72981856Y-86839795D01*
X72793498Y-86761774D01*
X72593539Y-86722000D01*
X72389661Y-86722000D01*
X72189702Y-86761774D01*
X72001344Y-86839795D01*
X71831826Y-86953063D01*
X71687663Y-87097226D01*
X71574395Y-87266744D01*
X71496374Y-87455102D01*
X71456600Y-87655061D01*
X69791769Y-87655061D01*
X69720098Y-87625374D01*
X69520139Y-87585600D01*
X69316261Y-87585600D01*
X69116302Y-87625374D01*
X68927944Y-87703395D01*
X68758426Y-87816663D01*
X68614263Y-87960826D01*
X68500995Y-88130344D01*
X68422974Y-88318702D01*
X68383200Y-88518661D01*
X65840643Y-88518661D01*
X65816026Y-88394902D01*
X65738005Y-88206544D01*
X65624737Y-88037026D01*
X65480574Y-87892863D01*
X65393817Y-87834894D01*
X65497737Y-87730974D01*
X65611005Y-87561456D01*
X65669521Y-87420187D01*
X65706995Y-87510656D01*
X65820263Y-87680174D01*
X65964426Y-87824337D01*
X66133944Y-87937605D01*
X66322302Y-88015626D01*
X66522261Y-88055400D01*
X66726139Y-88055400D01*
X66926098Y-88015626D01*
X67114456Y-87937605D01*
X67283974Y-87824337D01*
X67428137Y-87680174D01*
X67541405Y-87510656D01*
X67619426Y-87322298D01*
X67659200Y-87122339D01*
X67659200Y-86918461D01*
X67619426Y-86718502D01*
X67541405Y-86530144D01*
X67428137Y-86360626D01*
X67422967Y-86355456D01*
X67439805Y-86330256D01*
X67517826Y-86141898D01*
X67557600Y-85941939D01*
X67557600Y-85738061D01*
X67517826Y-85538102D01*
X67439805Y-85349744D01*
X67432496Y-85338805D01*
X67614461Y-85375000D01*
X67818339Y-85375000D01*
X68018298Y-85335226D01*
X68206656Y-85257205D01*
X68376174Y-85143937D01*
X68520337Y-84999774D01*
X68633605Y-84830256D01*
X68711626Y-84641898D01*
X68751400Y-84441939D01*
X68751400Y-84238061D01*
X68711626Y-84038102D01*
X68633605Y-83849744D01*
X68520337Y-83680226D01*
X68381503Y-83541392D01*
X70797331Y-83541392D01*
X70797331Y-83745270D01*
X70837105Y-83945229D01*
X70915126Y-84133587D01*
X71015067Y-84283160D01*
X70996205Y-84328698D01*
X70956431Y-84528657D01*
X70956431Y-84732535D01*
X70996205Y-84932494D01*
X71074226Y-85120852D01*
X71187494Y-85290370D01*
X71331657Y-85434533D01*
X71501175Y-85547801D01*
X71689533Y-85625822D01*
X71889492Y-85665596D01*
X72093370Y-85665596D01*
X72293329Y-85625822D01*
X72481687Y-85547801D01*
X72651205Y-85434533D01*
X72795368Y-85290370D01*
X72908636Y-85120852D01*
X72986657Y-84932494D01*
X73026431Y-84732535D01*
X73026431Y-84528657D01*
X72986657Y-84328698D01*
X72908636Y-84140340D01*
X72808695Y-83990767D01*
X72827557Y-83945229D01*
X72867331Y-83745270D01*
X72867331Y-83541392D01*
X72827557Y-83341433D01*
X72749536Y-83153075D01*
X72636268Y-82983557D01*
X72492105Y-82839394D01*
X72322587Y-82726126D01*
X72134229Y-82648105D01*
X71934270Y-82608331D01*
X71730392Y-82608331D01*
X71530433Y-82648105D01*
X71342075Y-82726126D01*
X71172557Y-82839394D01*
X71028394Y-82983557D01*
X70915126Y-83153075D01*
X70837105Y-83341433D01*
X70797331Y-83541392D01*
X68381503Y-83541392D01*
X68376174Y-83536063D01*
X68206656Y-83422795D01*
X68018298Y-83344774D01*
X67818339Y-83305000D01*
X67744877Y-83305000D01*
X67744605Y-83304344D01*
X67631337Y-83134826D01*
X67487174Y-82990663D01*
X67317656Y-82877395D01*
X67129298Y-82799374D01*
X66929339Y-82759600D01*
X66725461Y-82759600D01*
X66525502Y-82799374D01*
X66337144Y-82877395D01*
X66167626Y-82990663D01*
X66023463Y-83134826D01*
X65910195Y-83304344D01*
X65832174Y-83492702D01*
X65792400Y-83692661D01*
X65792400Y-83896539D01*
X65832174Y-84096498D01*
X65910195Y-84284856D01*
X66023463Y-84454374D01*
X66167626Y-84598537D01*
X66337144Y-84711805D01*
X66525502Y-84789826D01*
X66601787Y-84805000D01*
X66420661Y-84805000D01*
X66220702Y-84844774D01*
X66032344Y-84922795D01*
X65862826Y-85036063D01*
X65718663Y-85180226D01*
X65605395Y-85349744D01*
X65527374Y-85538102D01*
X65487600Y-85738061D01*
X65487600Y-85941939D01*
X65527374Y-86141898D01*
X65605395Y-86330256D01*
X65718663Y-86499774D01*
X65723833Y-86504944D01*
X65706995Y-86530144D01*
X65648479Y-86671413D01*
X65611005Y-86580944D01*
X65497737Y-86411426D01*
X65353574Y-86267263D01*
X65184056Y-86153995D01*
X64995698Y-86075974D01*
X64795739Y-86036200D01*
X64591861Y-86036200D01*
X64391902Y-86075974D01*
X64203544Y-86153995D01*
X64034026Y-86267263D01*
X63889863Y-86411426D01*
X63776595Y-86580944D01*
X63698574Y-86769302D01*
X63658800Y-86969261D01*
X51596788Y-86969261D01*
X51376411Y-86822010D01*
X51106158Y-86710068D01*
X50819260Y-86653000D01*
X50526740Y-86653000D01*
X50239842Y-86710068D01*
X49969589Y-86822010D01*
X49726368Y-86984525D01*
X49519525Y-87191368D01*
X49357010Y-87434589D01*
X49245068Y-87704842D01*
X49188000Y-87991740D01*
X49188000Y-88284260D01*
X49245068Y-88571158D01*
X49357010Y-88841411D01*
X49519525Y-89084632D01*
X49726368Y-89291475D01*
X49900760Y-89408000D01*
X49726368Y-89524525D01*
X49519525Y-89731368D01*
X49357010Y-89974589D01*
X49245068Y-90244842D01*
X49188000Y-90531740D01*
X49188000Y-90824260D01*
X49245068Y-91111158D01*
X49357010Y-91381411D01*
X49519525Y-91624632D01*
X49651380Y-91756487D01*
X49578820Y-91778498D01*
X49468506Y-91837463D01*
X49371815Y-91916815D01*
X49292463Y-92013506D01*
X49233498Y-92123820D01*
X49197188Y-92243518D01*
X49184928Y-92368000D01*
X45660000Y-92368000D01*
X45660000Y-82570263D01*
X75934322Y-82570263D01*
X75934322Y-82774141D01*
X75974096Y-82974100D01*
X76052117Y-83162458D01*
X76165385Y-83331976D01*
X76309548Y-83476139D01*
X76479066Y-83589407D01*
X76667424Y-83667428D01*
X76867383Y-83707202D01*
X77071261Y-83707202D01*
X77271220Y-83667428D01*
X77459578Y-83589407D01*
X77629096Y-83476139D01*
X77712562Y-83392673D01*
X77800826Y-83480937D01*
X77970344Y-83594205D01*
X78158702Y-83672226D01*
X78358661Y-83712000D01*
X78562539Y-83712000D01*
X78762498Y-83672226D01*
X78950856Y-83594205D01*
X78960602Y-83587693D01*
X78970347Y-83594205D01*
X79158705Y-83672226D01*
X79358664Y-83712000D01*
X79562542Y-83712000D01*
X79762501Y-83672226D01*
X79950859Y-83594205D01*
X80120377Y-83480937D01*
X80264540Y-83336774D01*
X80377808Y-83167256D01*
X80455829Y-82978898D01*
X80495603Y-82778939D01*
X80495603Y-82575061D01*
X80455829Y-82375102D01*
X80377808Y-82186744D01*
X80264540Y-82017226D01*
X80120377Y-81873063D01*
X79950859Y-81759795D01*
X79762501Y-81681774D01*
X79562542Y-81642000D01*
X79358664Y-81642000D01*
X79158705Y-81681774D01*
X78970347Y-81759795D01*
X78960602Y-81766307D01*
X78950856Y-81759795D01*
X78762498Y-81681774D01*
X78562539Y-81642000D01*
X78358661Y-81642000D01*
X78158702Y-81681774D01*
X77970344Y-81759795D01*
X77800826Y-81873063D01*
X77717360Y-81956529D01*
X77629096Y-81868265D01*
X77459578Y-81754997D01*
X77271220Y-81676976D01*
X77071261Y-81637202D01*
X76867383Y-81637202D01*
X76667424Y-81676976D01*
X76479066Y-81754997D01*
X76309548Y-81868265D01*
X76165385Y-82012428D01*
X76052117Y-82181946D01*
X75974096Y-82370304D01*
X75934322Y-82570263D01*
X45660000Y-82570263D01*
X45660000Y-80925690D01*
X49180724Y-80925690D01*
X49225375Y-81072899D01*
X49350559Y-81335720D01*
X49524612Y-81569069D01*
X49740845Y-81763978D01*
X49990948Y-81912957D01*
X50265309Y-82010281D01*
X50495200Y-81889614D01*
X50495200Y-80695800D01*
X50749200Y-80695800D01*
X50749200Y-81889614D01*
X50979091Y-82010281D01*
X51253452Y-81912957D01*
X51503555Y-81763978D01*
X51719788Y-81569069D01*
X51893841Y-81335720D01*
X52019025Y-81072899D01*
X52063676Y-80925690D01*
X51942355Y-80695800D01*
X50749200Y-80695800D01*
X50495200Y-80695800D01*
X49302045Y-80695800D01*
X49180724Y-80925690D01*
X45660000Y-80925690D01*
X45660000Y-74638800D01*
X49134128Y-74638800D01*
X49134128Y-76338800D01*
X49146388Y-76463282D01*
X49182698Y-76582980D01*
X49241663Y-76693294D01*
X49321015Y-76789985D01*
X49417706Y-76869337D01*
X49528020Y-76928302D01*
X49600580Y-76950313D01*
X49468725Y-77082168D01*
X49306210Y-77325389D01*
X49194268Y-77595642D01*
X49137200Y-77882540D01*
X49137200Y-78175060D01*
X49194268Y-78461958D01*
X49306210Y-78732211D01*
X49468725Y-78975432D01*
X49675568Y-79182275D01*
X49857734Y-79303995D01*
X49740845Y-79373622D01*
X49524612Y-79568531D01*
X49350559Y-79801880D01*
X49225375Y-80064701D01*
X49180724Y-80211910D01*
X49302045Y-80441800D01*
X50495200Y-80441800D01*
X50495200Y-80421800D01*
X50749200Y-80421800D01*
X50749200Y-80441800D01*
X51942355Y-80441800D01*
X52063676Y-80211910D01*
X52019025Y-80064701D01*
X51893841Y-79801880D01*
X51719788Y-79568531D01*
X51503555Y-79373622D01*
X51386666Y-79303995D01*
X51568832Y-79182275D01*
X51775675Y-78975432D01*
X51938190Y-78732211D01*
X52050132Y-78461958D01*
X52107200Y-78175060D01*
X52107200Y-77882540D01*
X52050132Y-77595642D01*
X51938190Y-77325389D01*
X51775675Y-77082168D01*
X51643820Y-76950313D01*
X51716380Y-76928302D01*
X51826694Y-76869337D01*
X51923385Y-76789985D01*
X52002737Y-76693294D01*
X52061702Y-76582980D01*
X52080531Y-76520910D01*
X52095061Y-76523800D01*
X52298939Y-76523800D01*
X52498898Y-76484026D01*
X52687256Y-76406005D01*
X52856774Y-76292737D01*
X53000937Y-76148574D01*
X53114205Y-75979056D01*
X53192226Y-75790698D01*
X53232000Y-75590739D01*
X53232000Y-75386861D01*
X53192226Y-75186902D01*
X53114205Y-74998544D01*
X53000937Y-74829026D01*
X52856774Y-74684863D01*
X52687256Y-74571595D01*
X52498898Y-74493574D01*
X52298939Y-74453800D01*
X52095061Y-74453800D01*
X52080531Y-74456690D01*
X52061702Y-74394620D01*
X52002737Y-74284306D01*
X51923385Y-74187615D01*
X51826694Y-74108263D01*
X51716380Y-74049298D01*
X51596682Y-74012988D01*
X51472200Y-74000728D01*
X49772200Y-74000728D01*
X49647718Y-74012988D01*
X49528020Y-74049298D01*
X49417706Y-74108263D01*
X49321015Y-74187615D01*
X49241663Y-74284306D01*
X49182698Y-74394620D01*
X49146388Y-74514318D01*
X49134128Y-74638800D01*
X45660000Y-74638800D01*
X45660000Y-72955000D01*
X65068000Y-72955000D01*
X65068000Y-79622500D01*
X65070440Y-79647276D01*
X65077667Y-79671101D01*
X65089403Y-79693057D01*
X65105197Y-79712303D01*
X65124443Y-79728097D01*
X65146399Y-79739833D01*
X65170224Y-79747060D01*
X65195000Y-79749500D01*
X66137539Y-79749500D01*
X66104774Y-79828602D01*
X66065000Y-80028561D01*
X66065000Y-80232439D01*
X66104774Y-80432398D01*
X66182795Y-80620756D01*
X66296063Y-80790274D01*
X66440226Y-80934437D01*
X66609744Y-81047705D01*
X66798102Y-81125726D01*
X66998061Y-81165500D01*
X67201939Y-81165500D01*
X67401898Y-81125726D01*
X67590256Y-81047705D01*
X67759774Y-80934437D01*
X67903937Y-80790274D01*
X68017205Y-80620756D01*
X68095226Y-80432398D01*
X68135000Y-80232439D01*
X68135000Y-80028561D01*
X68095226Y-79828602D01*
X68062461Y-79749500D01*
X68243000Y-79749500D01*
X68267776Y-79747060D01*
X68291601Y-79739833D01*
X68313557Y-79728097D01*
X68332803Y-79712303D01*
X68348597Y-79693057D01*
X68360333Y-79671101D01*
X68367560Y-79647276D01*
X68370000Y-79622500D01*
X68370000Y-78733500D01*
X69068500Y-78733500D01*
X69093276Y-78731060D01*
X69117101Y-78723833D01*
X69139057Y-78712097D01*
X69158303Y-78696303D01*
X69174097Y-78677057D01*
X69185833Y-78655101D01*
X69193060Y-78631276D01*
X69195500Y-78606500D01*
X69195500Y-78162000D01*
X69613225Y-78162000D01*
X69571226Y-78190063D01*
X69427063Y-78334226D01*
X69313795Y-78503744D01*
X69235774Y-78692102D01*
X69196000Y-78892061D01*
X69196000Y-79095939D01*
X69235774Y-79295898D01*
X69313795Y-79484256D01*
X69427063Y-79653774D01*
X69571226Y-79797937D01*
X69740744Y-79911205D01*
X69929102Y-79989226D01*
X70129061Y-80029000D01*
X70332939Y-80029000D01*
X70532898Y-79989226D01*
X70721256Y-79911205D01*
X70890774Y-79797937D01*
X71034937Y-79653774D01*
X71148205Y-79484256D01*
X71226226Y-79295898D01*
X71266000Y-79095939D01*
X71266000Y-78892061D01*
X71226226Y-78692102D01*
X71148205Y-78503744D01*
X71034937Y-78334226D01*
X70890774Y-78190063D01*
X70848775Y-78162000D01*
X70973500Y-78162000D01*
X70998276Y-78159560D01*
X71022101Y-78152333D01*
X71044057Y-78140597D01*
X71063303Y-78124803D01*
X71079097Y-78105557D01*
X71090833Y-78083601D01*
X71098060Y-78059776D01*
X71100500Y-78035000D01*
X71100500Y-77781000D01*
X72447200Y-77781000D01*
X72447200Y-77952939D01*
X72486974Y-78152898D01*
X72564995Y-78341256D01*
X72678263Y-78510774D01*
X72822426Y-78654937D01*
X72991944Y-78768205D01*
X73124011Y-78822909D01*
X73053302Y-78836974D01*
X72864944Y-78914995D01*
X72695426Y-79028263D01*
X72551263Y-79172426D01*
X72437995Y-79341944D01*
X72359974Y-79530302D01*
X72320200Y-79730261D01*
X72320200Y-79934139D01*
X72359974Y-80134098D01*
X72437995Y-80322456D01*
X72551263Y-80491974D01*
X72666189Y-80606900D01*
X72525863Y-80747226D01*
X72412595Y-80916744D01*
X72334574Y-81105102D01*
X72294800Y-81305061D01*
X72294800Y-81508939D01*
X72334574Y-81708898D01*
X72412595Y-81897256D01*
X72525863Y-82066774D01*
X72670026Y-82210937D01*
X72839544Y-82324205D01*
X73027902Y-82402226D01*
X73227861Y-82442000D01*
X73431739Y-82442000D01*
X73631698Y-82402226D01*
X73820056Y-82324205D01*
X73989574Y-82210937D01*
X74133737Y-82066774D01*
X74247005Y-81897256D01*
X74270815Y-81839773D01*
X74380063Y-82003274D01*
X74524226Y-82147437D01*
X74693744Y-82260705D01*
X74882102Y-82338726D01*
X75082061Y-82378500D01*
X75285939Y-82378500D01*
X75485898Y-82338726D01*
X75674256Y-82260705D01*
X75843774Y-82147437D01*
X75987937Y-82003274D01*
X76101205Y-81833756D01*
X76179226Y-81645398D01*
X76219000Y-81445439D01*
X76219000Y-81241561D01*
X76179226Y-81041602D01*
X76101205Y-80853244D01*
X75987937Y-80683726D01*
X75843774Y-80539563D01*
X75674256Y-80426295D01*
X75485898Y-80348274D01*
X75285939Y-80308500D01*
X75082061Y-80308500D01*
X74882102Y-80348274D01*
X74693744Y-80426295D01*
X74524226Y-80539563D01*
X74380063Y-80683726D01*
X74266795Y-80853244D01*
X74242985Y-80910727D01*
X74133737Y-80747226D01*
X74018811Y-80632300D01*
X74159137Y-80491974D01*
X74272405Y-80322456D01*
X74350426Y-80134098D01*
X74390200Y-79934139D01*
X74390200Y-79730261D01*
X74350426Y-79530302D01*
X74272405Y-79341944D01*
X74226379Y-79273061D01*
X80905400Y-79273061D01*
X80905400Y-79476939D01*
X80945174Y-79676898D01*
X81023195Y-79865256D01*
X81136463Y-80034774D01*
X81280626Y-80178937D01*
X81450144Y-80292205D01*
X81638502Y-80370226D01*
X81838461Y-80410000D01*
X82042339Y-80410000D01*
X82242298Y-80370226D01*
X82430656Y-80292205D01*
X82600174Y-80178937D01*
X82744337Y-80034774D01*
X82857605Y-79865256D01*
X82935626Y-79676898D01*
X82975400Y-79476939D01*
X82975400Y-79273061D01*
X92843400Y-79273061D01*
X92843400Y-79476939D01*
X92883174Y-79676898D01*
X92961195Y-79865256D01*
X93074463Y-80034774D01*
X93218626Y-80178937D01*
X93388144Y-80292205D01*
X93576502Y-80370226D01*
X93776461Y-80410000D01*
X93980339Y-80410000D01*
X94180298Y-80370226D01*
X94289965Y-80324800D01*
X133910667Y-80324800D01*
X133933547Y-80557100D01*
X134001306Y-80780474D01*
X134111342Y-80986336D01*
X134259425Y-81166775D01*
X134439864Y-81314858D01*
X134645726Y-81424894D01*
X134869100Y-81492653D01*
X135043193Y-81509800D01*
X135559607Y-81509800D01*
X135733700Y-81492653D01*
X135957074Y-81424894D01*
X136162936Y-81314858D01*
X136343375Y-81166775D01*
X136491458Y-80986336D01*
X136601494Y-80780474D01*
X136669253Y-80557100D01*
X136692133Y-80324800D01*
X136669253Y-80092500D01*
X136601494Y-79869126D01*
X136491458Y-79663264D01*
X136343375Y-79482825D01*
X136162936Y-79334742D01*
X135957074Y-79224706D01*
X135733700Y-79156947D01*
X135559607Y-79139800D01*
X135043193Y-79139800D01*
X134869100Y-79156947D01*
X134645726Y-79224706D01*
X134439864Y-79334742D01*
X134259425Y-79482825D01*
X134111342Y-79663264D01*
X134001306Y-79869126D01*
X133933547Y-80092500D01*
X133910667Y-80324800D01*
X94289965Y-80324800D01*
X94368656Y-80292205D01*
X94538174Y-80178937D01*
X94682337Y-80034774D01*
X94795605Y-79865256D01*
X94873626Y-79676898D01*
X94913400Y-79476939D01*
X94913400Y-79273061D01*
X94873626Y-79073102D01*
X94795605Y-78884744D01*
X94682337Y-78715226D01*
X94538174Y-78571063D01*
X94368656Y-78457795D01*
X94180298Y-78379774D01*
X93980339Y-78340000D01*
X93776461Y-78340000D01*
X93576502Y-78379774D01*
X93388144Y-78457795D01*
X93218626Y-78571063D01*
X93074463Y-78715226D01*
X92961195Y-78884744D01*
X92883174Y-79073102D01*
X92843400Y-79273061D01*
X82975400Y-79273061D01*
X82935626Y-79073102D01*
X82857605Y-78884744D01*
X82744337Y-78715226D01*
X82600174Y-78571063D01*
X82430656Y-78457795D01*
X82242298Y-78379774D01*
X82042339Y-78340000D01*
X81838461Y-78340000D01*
X81638502Y-78379774D01*
X81450144Y-78457795D01*
X81280626Y-78571063D01*
X81136463Y-78715226D01*
X81023195Y-78884744D01*
X80945174Y-79073102D01*
X80905400Y-79273061D01*
X74226379Y-79273061D01*
X74159137Y-79172426D01*
X74014974Y-79028263D01*
X73845456Y-78914995D01*
X73713389Y-78860291D01*
X73784098Y-78846226D01*
X73972456Y-78768205D01*
X74141974Y-78654937D01*
X74286137Y-78510774D01*
X74399405Y-78341256D01*
X74477426Y-78152898D01*
X74517200Y-77952939D01*
X74517200Y-77749061D01*
X74477426Y-77549102D01*
X74399405Y-77360744D01*
X74286137Y-77191226D01*
X74141974Y-77047063D01*
X73972456Y-76933795D01*
X73784098Y-76855774D01*
X73584139Y-76816000D01*
X73380261Y-76816000D01*
X73180302Y-76855774D01*
X73132500Y-76875574D01*
X73132500Y-76638000D01*
X73130060Y-76613224D01*
X73122833Y-76589399D01*
X73111097Y-76567443D01*
X73095303Y-76548197D01*
X73076057Y-76532403D01*
X73054101Y-76520667D01*
X73030276Y-76513440D01*
X73005500Y-76511000D01*
X71320980Y-76511000D01*
X71133801Y-76417410D01*
X71269437Y-76281774D01*
X71382705Y-76112256D01*
X71460726Y-75923898D01*
X71500500Y-75723939D01*
X71500500Y-75710561D01*
X80924000Y-75710561D01*
X80924000Y-75914439D01*
X80963774Y-76114398D01*
X81041795Y-76302756D01*
X81155063Y-76472274D01*
X81299226Y-76616437D01*
X81468744Y-76729705D01*
X81657102Y-76807726D01*
X81857061Y-76847500D01*
X82060939Y-76847500D01*
X82260898Y-76807726D01*
X82449256Y-76729705D01*
X82618774Y-76616437D01*
X82762937Y-76472274D01*
X82876205Y-76302756D01*
X82954226Y-76114398D01*
X82994000Y-75914439D01*
X82994000Y-75710561D01*
X82954226Y-75510602D01*
X82943539Y-75484800D01*
X133910667Y-75484800D01*
X133933547Y-75717100D01*
X134001306Y-75940474D01*
X134111342Y-76146336D01*
X134259425Y-76326775D01*
X134439864Y-76474858D01*
X134645726Y-76584894D01*
X134869100Y-76652653D01*
X135043193Y-76669800D01*
X135559607Y-76669800D01*
X135733700Y-76652653D01*
X135957074Y-76584894D01*
X136162936Y-76474858D01*
X136343375Y-76326775D01*
X136491458Y-76146336D01*
X136601494Y-75940474D01*
X136669253Y-75717100D01*
X136692133Y-75484800D01*
X136669253Y-75252500D01*
X136601494Y-75029126D01*
X136491458Y-74823264D01*
X136343375Y-74642825D01*
X136162936Y-74494742D01*
X135957074Y-74384706D01*
X135733700Y-74316947D01*
X135559607Y-74299800D01*
X135043193Y-74299800D01*
X134869100Y-74316947D01*
X134645726Y-74384706D01*
X134439864Y-74494742D01*
X134259425Y-74642825D01*
X134111342Y-74823264D01*
X134001306Y-75029126D01*
X133933547Y-75252500D01*
X133910667Y-75484800D01*
X82943539Y-75484800D01*
X82876205Y-75322244D01*
X82762937Y-75152726D01*
X82618774Y-75008563D01*
X82449256Y-74895295D01*
X82260898Y-74817274D01*
X82060939Y-74777500D01*
X81857061Y-74777500D01*
X81657102Y-74817274D01*
X81468744Y-74895295D01*
X81299226Y-75008563D01*
X81155063Y-75152726D01*
X81041795Y-75322244D01*
X80963774Y-75510602D01*
X80924000Y-75710561D01*
X71500500Y-75710561D01*
X71500500Y-75520061D01*
X71460726Y-75320102D01*
X71382705Y-75131744D01*
X71269437Y-74962226D01*
X71125274Y-74818063D01*
X70955756Y-74704795D01*
X70767398Y-74626774D01*
X70567439Y-74587000D01*
X70363561Y-74587000D01*
X70163602Y-74626774D01*
X69975244Y-74704795D01*
X69805726Y-74818063D01*
X69661563Y-74962226D01*
X69548295Y-75131744D01*
X69470274Y-75320102D01*
X69430500Y-75520061D01*
X69430500Y-75723939D01*
X69460747Y-75876000D01*
X69322500Y-75876000D01*
X69322500Y-74497861D01*
X72701200Y-74497861D01*
X72701200Y-74701739D01*
X72740974Y-74901698D01*
X72818995Y-75090056D01*
X72932263Y-75259574D01*
X73076426Y-75403737D01*
X73245944Y-75517005D01*
X73434302Y-75595026D01*
X73634261Y-75634800D01*
X73838139Y-75634800D01*
X74038098Y-75595026D01*
X74226456Y-75517005D01*
X74395974Y-75403737D01*
X74540137Y-75259574D01*
X74653405Y-75090056D01*
X74731426Y-74901698D01*
X74771200Y-74701739D01*
X74771200Y-74497861D01*
X74731426Y-74297902D01*
X74688000Y-74193061D01*
X77400200Y-74193061D01*
X77400200Y-74396939D01*
X77439974Y-74596898D01*
X77517995Y-74785256D01*
X77631263Y-74954774D01*
X77775426Y-75098937D01*
X77944944Y-75212205D01*
X78133302Y-75290226D01*
X78333261Y-75330000D01*
X78537139Y-75330000D01*
X78737098Y-75290226D01*
X78925456Y-75212205D01*
X79094974Y-75098937D01*
X79239137Y-74954774D01*
X79352405Y-74785256D01*
X79430426Y-74596898D01*
X79470200Y-74396939D01*
X79470200Y-74193061D01*
X79430426Y-73993102D01*
X79352744Y-73805561D01*
X83972000Y-73805561D01*
X83972000Y-74009439D01*
X84011774Y-74209398D01*
X84089795Y-74397756D01*
X84203063Y-74567274D01*
X84347226Y-74711437D01*
X84516744Y-74824705D01*
X84705102Y-74902726D01*
X84905061Y-74942500D01*
X85108939Y-74942500D01*
X85308898Y-74902726D01*
X85497256Y-74824705D01*
X85666774Y-74711437D01*
X85810937Y-74567274D01*
X85924205Y-74397756D01*
X86002226Y-74209398D01*
X86042000Y-74009439D01*
X86042000Y-73805561D01*
X86002226Y-73605602D01*
X85924205Y-73417244D01*
X85810937Y-73247726D01*
X85666774Y-73103563D01*
X85497256Y-72990295D01*
X85308898Y-72912274D01*
X85108939Y-72872500D01*
X84905061Y-72872500D01*
X84705102Y-72912274D01*
X84516744Y-72990295D01*
X84347226Y-73103563D01*
X84203063Y-73247726D01*
X84089795Y-73417244D01*
X84011774Y-73605602D01*
X83972000Y-73805561D01*
X79352744Y-73805561D01*
X79352405Y-73804744D01*
X79239137Y-73635226D01*
X79094974Y-73491063D01*
X78925456Y-73377795D01*
X78737098Y-73299774D01*
X78537139Y-73260000D01*
X78333261Y-73260000D01*
X78133302Y-73299774D01*
X77944944Y-73377795D01*
X77775426Y-73491063D01*
X77631263Y-73635226D01*
X77517995Y-73804744D01*
X77439974Y-73993102D01*
X77400200Y-74193061D01*
X74688000Y-74193061D01*
X74653405Y-74109544D01*
X74540137Y-73940026D01*
X74395974Y-73795863D01*
X74226456Y-73682595D01*
X74038098Y-73604574D01*
X73838139Y-73564800D01*
X73634261Y-73564800D01*
X73434302Y-73604574D01*
X73245944Y-73682595D01*
X73076426Y-73795863D01*
X72932263Y-73940026D01*
X72818995Y-74109544D01*
X72740974Y-74297902D01*
X72701200Y-74497861D01*
X69322500Y-74497861D01*
X69322500Y-73907500D01*
X69320060Y-73882724D01*
X69312833Y-73858899D01*
X69301097Y-73836943D01*
X69285303Y-73817697D01*
X69266057Y-73801903D01*
X69244101Y-73790167D01*
X69220276Y-73782940D01*
X69195500Y-73780500D01*
X68941500Y-73780500D01*
X68941500Y-73699983D01*
X69040102Y-73740826D01*
X69240061Y-73780600D01*
X69443939Y-73780600D01*
X69643898Y-73740826D01*
X69832256Y-73662805D01*
X70001774Y-73549537D01*
X70145937Y-73405374D01*
X70259205Y-73235856D01*
X70337226Y-73047498D01*
X70377000Y-72847539D01*
X70377000Y-72643661D01*
X70337226Y-72443702D01*
X70259205Y-72255344D01*
X70145937Y-72085826D01*
X70087672Y-72027561D01*
X70446500Y-72027561D01*
X70446500Y-72231439D01*
X70486274Y-72431398D01*
X70532191Y-72542250D01*
X70486274Y-72653102D01*
X70446500Y-72853061D01*
X70446500Y-73056939D01*
X70486274Y-73256898D01*
X70564295Y-73445256D01*
X70677563Y-73614774D01*
X70821726Y-73758937D01*
X70991244Y-73872205D01*
X71179602Y-73950226D01*
X71379561Y-73990000D01*
X71583439Y-73990000D01*
X71783398Y-73950226D01*
X71971756Y-73872205D01*
X72141274Y-73758937D01*
X72285437Y-73614774D01*
X72398705Y-73445256D01*
X72476726Y-73256898D01*
X72516500Y-73056939D01*
X72516500Y-72853061D01*
X72476726Y-72653102D01*
X72430809Y-72542250D01*
X72476726Y-72431398D01*
X72516500Y-72231439D01*
X72516500Y-72027561D01*
X72476726Y-71827602D01*
X72398705Y-71639244D01*
X72285437Y-71469726D01*
X72141274Y-71325563D01*
X72099217Y-71297461D01*
X77185000Y-71297461D01*
X77185000Y-71501339D01*
X77224774Y-71701298D01*
X77302795Y-71889656D01*
X77416063Y-72059174D01*
X77560226Y-72203337D01*
X77729744Y-72316605D01*
X77918102Y-72394626D01*
X78118061Y-72434400D01*
X78321939Y-72434400D01*
X78521898Y-72394626D01*
X78710256Y-72316605D01*
X78879774Y-72203337D01*
X79023937Y-72059174D01*
X79137205Y-71889656D01*
X79215226Y-71701298D01*
X79255000Y-71501339D01*
X79255000Y-71297461D01*
X79215226Y-71097502D01*
X79137205Y-70909144D01*
X79023937Y-70739626D01*
X78879774Y-70595463D01*
X78710256Y-70482195D01*
X78521898Y-70404174D01*
X78321939Y-70364400D01*
X78118061Y-70364400D01*
X77918102Y-70404174D01*
X77729744Y-70482195D01*
X77560226Y-70595463D01*
X77416063Y-70739626D01*
X77302795Y-70909144D01*
X77224774Y-71097502D01*
X77185000Y-71297461D01*
X72099217Y-71297461D01*
X71971756Y-71212295D01*
X71783398Y-71134274D01*
X71583439Y-71094500D01*
X71379561Y-71094500D01*
X71179602Y-71134274D01*
X70991244Y-71212295D01*
X70821726Y-71325563D01*
X70677563Y-71469726D01*
X70564295Y-71639244D01*
X70486274Y-71827602D01*
X70446500Y-72027561D01*
X70087672Y-72027561D01*
X70001774Y-71941663D01*
X69832256Y-71828395D01*
X69643898Y-71750374D01*
X69443939Y-71710600D01*
X69240061Y-71710600D01*
X69040102Y-71750374D01*
X68851744Y-71828395D01*
X68682226Y-71941663D01*
X68538063Y-72085826D01*
X68424795Y-72255344D01*
X68346774Y-72443702D01*
X68307000Y-72643661D01*
X68307000Y-72828000D01*
X65195000Y-72828000D01*
X65170224Y-72830440D01*
X65146399Y-72837667D01*
X65124443Y-72849403D01*
X65105197Y-72865197D01*
X65089403Y-72884443D01*
X65077667Y-72906399D01*
X65070440Y-72930224D01*
X65068000Y-72955000D01*
X45660000Y-72955000D01*
X45660000Y-70319561D01*
X60433000Y-70319561D01*
X60433000Y-70523439D01*
X60472774Y-70723398D01*
X60550795Y-70911756D01*
X60664063Y-71081274D01*
X60808226Y-71225437D01*
X60977744Y-71338705D01*
X61166102Y-71416726D01*
X61366061Y-71456500D01*
X61569939Y-71456500D01*
X61769898Y-71416726D01*
X61958256Y-71338705D01*
X62127774Y-71225437D01*
X62271937Y-71081274D01*
X62385205Y-70911756D01*
X62463226Y-70723398D01*
X62503000Y-70523439D01*
X62503000Y-70319561D01*
X62463226Y-70119602D01*
X62385205Y-69931244D01*
X62271937Y-69761726D01*
X62127774Y-69617563D01*
X61958256Y-69504295D01*
X61769898Y-69426274D01*
X61569939Y-69386500D01*
X61366061Y-69386500D01*
X61166102Y-69426274D01*
X60977744Y-69504295D01*
X60808226Y-69617563D01*
X60664063Y-69761726D01*
X60550795Y-69931244D01*
X60472774Y-70119602D01*
X60433000Y-70319561D01*
X45660000Y-70319561D01*
X45660000Y-69113061D01*
X64370000Y-69113061D01*
X64370000Y-69316939D01*
X64409774Y-69516898D01*
X64487795Y-69705256D01*
X64601063Y-69874774D01*
X64745226Y-70018937D01*
X64914744Y-70132205D01*
X65103102Y-70210226D01*
X65303061Y-70250000D01*
X65506939Y-70250000D01*
X65706898Y-70210226D01*
X65895256Y-70132205D01*
X66064774Y-70018937D01*
X66107172Y-69976539D01*
X66083000Y-70098061D01*
X66083000Y-70301939D01*
X66122774Y-70501898D01*
X66200795Y-70690256D01*
X66314063Y-70859774D01*
X66458226Y-71003937D01*
X66627744Y-71117205D01*
X66816102Y-71195226D01*
X67016061Y-71235000D01*
X67219939Y-71235000D01*
X67419898Y-71195226D01*
X67608256Y-71117205D01*
X67777774Y-71003937D01*
X67921937Y-70859774D01*
X68035205Y-70690256D01*
X68113226Y-70501898D01*
X68153000Y-70301939D01*
X68153000Y-70098061D01*
X68113226Y-69898102D01*
X68035205Y-69709744D01*
X67921937Y-69540226D01*
X67777774Y-69396063D01*
X67608256Y-69282795D01*
X67419898Y-69204774D01*
X67219939Y-69165000D01*
X67016061Y-69165000D01*
X66816102Y-69204774D01*
X66627744Y-69282795D01*
X66458226Y-69396063D01*
X66415828Y-69438461D01*
X66440000Y-69316939D01*
X66440000Y-69113061D01*
X66419784Y-69011427D01*
X71776665Y-69011427D01*
X71776665Y-69215305D01*
X71816439Y-69415264D01*
X71894460Y-69603622D01*
X72007728Y-69773140D01*
X72151891Y-69917303D01*
X72321409Y-70030571D01*
X72509767Y-70108592D01*
X72709726Y-70148366D01*
X72913604Y-70148366D01*
X73113563Y-70108592D01*
X73301921Y-70030571D01*
X73471439Y-69917303D01*
X73615602Y-69773140D01*
X73728870Y-69603622D01*
X73806891Y-69415264D01*
X73846665Y-69215305D01*
X73846665Y-69145545D01*
X74534097Y-69145545D01*
X74534097Y-69349423D01*
X74573871Y-69549382D01*
X74651892Y-69737740D01*
X74765160Y-69907258D01*
X74909323Y-70051421D01*
X75078841Y-70164689D01*
X75267199Y-70242710D01*
X75467158Y-70282484D01*
X75671036Y-70282484D01*
X75870995Y-70242710D01*
X76059353Y-70164689D01*
X76228871Y-70051421D01*
X76373034Y-69907258D01*
X76390404Y-69881261D01*
X80085800Y-69881261D01*
X80085800Y-70085139D01*
X80125574Y-70285098D01*
X80203595Y-70473456D01*
X80233751Y-70518588D01*
X80210395Y-70553544D01*
X80132374Y-70741902D01*
X80092600Y-70941861D01*
X80092600Y-71145739D01*
X80132374Y-71345698D01*
X80210395Y-71534056D01*
X80323663Y-71703574D01*
X80467826Y-71847737D01*
X80637344Y-71961005D01*
X80825702Y-72039026D01*
X81025661Y-72078800D01*
X81229539Y-72078800D01*
X81429498Y-72039026D01*
X81617856Y-71961005D01*
X81787374Y-71847737D01*
X81931537Y-71703574D01*
X82044805Y-71534056D01*
X82080345Y-71448256D01*
X82144226Y-71512137D01*
X82313744Y-71625405D01*
X82502102Y-71703426D01*
X82702061Y-71743200D01*
X82905939Y-71743200D01*
X83105898Y-71703426D01*
X83294256Y-71625405D01*
X83463774Y-71512137D01*
X83607937Y-71367974D01*
X83721205Y-71198456D01*
X83799226Y-71010098D01*
X83839000Y-70810139D01*
X83839000Y-70606261D01*
X83799226Y-70406302D01*
X83721205Y-70217944D01*
X83607937Y-70048426D01*
X83463774Y-69904263D01*
X83294256Y-69790995D01*
X83105898Y-69712974D01*
X82905939Y-69673200D01*
X82702061Y-69673200D01*
X82502102Y-69712974D01*
X82313744Y-69790995D01*
X82155800Y-69896530D01*
X82155800Y-69881261D01*
X82116026Y-69681302D01*
X82038005Y-69492944D01*
X81924737Y-69323426D01*
X81780574Y-69179263D01*
X81611056Y-69065995D01*
X81422698Y-68987974D01*
X81222739Y-68948200D01*
X81018861Y-68948200D01*
X80818902Y-68987974D01*
X80630544Y-69065995D01*
X80461026Y-69179263D01*
X80316863Y-69323426D01*
X80203595Y-69492944D01*
X80125574Y-69681302D01*
X80085800Y-69881261D01*
X76390404Y-69881261D01*
X76486302Y-69737740D01*
X76564323Y-69549382D01*
X76604097Y-69349423D01*
X76604097Y-69145545D01*
X76564323Y-68945586D01*
X76486302Y-68757228D01*
X76373034Y-68587710D01*
X76228871Y-68443547D01*
X76059353Y-68330279D01*
X75870995Y-68252258D01*
X75671036Y-68212484D01*
X75467158Y-68212484D01*
X75267199Y-68252258D01*
X75078841Y-68330279D01*
X74909323Y-68443547D01*
X74765160Y-68587710D01*
X74651892Y-68757228D01*
X74573871Y-68945586D01*
X74534097Y-69145545D01*
X73846665Y-69145545D01*
X73846665Y-69011427D01*
X73806891Y-68811468D01*
X73728870Y-68623110D01*
X73615602Y-68453592D01*
X73471439Y-68309429D01*
X73301921Y-68196161D01*
X73113563Y-68118140D01*
X72913604Y-68078366D01*
X72709726Y-68078366D01*
X72509767Y-68118140D01*
X72321409Y-68196161D01*
X72151891Y-68309429D01*
X72007728Y-68453592D01*
X71894460Y-68623110D01*
X71816439Y-68811468D01*
X71776665Y-69011427D01*
X66419784Y-69011427D01*
X66400226Y-68913102D01*
X66322205Y-68724744D01*
X66208937Y-68555226D01*
X66064774Y-68411063D01*
X65895256Y-68297795D01*
X65706898Y-68219774D01*
X65506939Y-68180000D01*
X65303061Y-68180000D01*
X65103102Y-68219774D01*
X64914744Y-68297795D01*
X64745226Y-68411063D01*
X64601063Y-68555226D01*
X64487795Y-68724744D01*
X64409774Y-68913102D01*
X64370000Y-69113061D01*
X45660000Y-69113061D01*
X45660000Y-67716061D01*
X59290000Y-67716061D01*
X59290000Y-67919939D01*
X59329774Y-68119898D01*
X59407795Y-68308256D01*
X59521063Y-68477774D01*
X59665226Y-68621937D01*
X59834744Y-68735205D01*
X60023102Y-68813226D01*
X60223061Y-68853000D01*
X60426939Y-68853000D01*
X60626898Y-68813226D01*
X60815256Y-68735205D01*
X60984774Y-68621937D01*
X61128937Y-68477774D01*
X61242205Y-68308256D01*
X61320226Y-68119898D01*
X61360000Y-67919939D01*
X61360000Y-67716061D01*
X61320226Y-67516102D01*
X61242205Y-67327744D01*
X61128937Y-67158226D01*
X60984774Y-67014063D01*
X60815256Y-66900795D01*
X60626898Y-66822774D01*
X60426939Y-66783000D01*
X60223061Y-66783000D01*
X60023102Y-66822774D01*
X59834744Y-66900795D01*
X59665226Y-67014063D01*
X59521063Y-67158226D01*
X59407795Y-67327744D01*
X59329774Y-67516102D01*
X59290000Y-67716061D01*
X45660000Y-67716061D01*
X45660000Y-65811061D01*
X62719000Y-65811061D01*
X62719000Y-66014939D01*
X62758774Y-66214898D01*
X62836795Y-66403256D01*
X62950063Y-66572774D01*
X63094226Y-66716937D01*
X63263744Y-66830205D01*
X63452102Y-66908226D01*
X63652061Y-66948000D01*
X63855939Y-66948000D01*
X64055898Y-66908226D01*
X64244256Y-66830205D01*
X64413774Y-66716937D01*
X64557937Y-66572774D01*
X64663317Y-66415061D01*
X66019500Y-66415061D01*
X66019500Y-66618939D01*
X66059274Y-66818898D01*
X66137295Y-67007256D01*
X66250563Y-67176774D01*
X66394726Y-67320937D01*
X66564244Y-67434205D01*
X66752602Y-67512226D01*
X66952561Y-67552000D01*
X67156439Y-67552000D01*
X67356398Y-67512226D01*
X67544756Y-67434205D01*
X67714274Y-67320937D01*
X67858437Y-67176774D01*
X67971705Y-67007256D01*
X67983218Y-66979461D01*
X77034118Y-66979461D01*
X77034118Y-67183339D01*
X77073892Y-67383298D01*
X77151913Y-67571656D01*
X77265181Y-67741174D01*
X77291904Y-67767897D01*
X77208481Y-67892749D01*
X77130460Y-68081107D01*
X77090686Y-68281066D01*
X77090686Y-68484944D01*
X77130460Y-68684903D01*
X77208481Y-68873261D01*
X77321749Y-69042779D01*
X77465912Y-69186942D01*
X77635430Y-69300210D01*
X77823788Y-69378231D01*
X78023747Y-69418005D01*
X78227625Y-69418005D01*
X78427584Y-69378231D01*
X78615942Y-69300210D01*
X78785460Y-69186942D01*
X78929623Y-69042779D01*
X79042891Y-68873261D01*
X79120912Y-68684903D01*
X79160686Y-68484944D01*
X79160686Y-68281066D01*
X79120912Y-68081107D01*
X79042891Y-67892749D01*
X78929623Y-67723231D01*
X78902900Y-67696508D01*
X78986323Y-67571656D01*
X79045388Y-67429061D01*
X82124600Y-67429061D01*
X82124600Y-67632939D01*
X82164374Y-67832898D01*
X82242395Y-68021256D01*
X82355663Y-68190774D01*
X82499826Y-68334937D01*
X82669344Y-68448205D01*
X82857702Y-68526226D01*
X83057661Y-68566000D01*
X83261539Y-68566000D01*
X83461498Y-68526226D01*
X83649856Y-68448205D01*
X83819374Y-68334937D01*
X83963537Y-68190774D01*
X84076805Y-68021256D01*
X84154826Y-67832898D01*
X84194600Y-67632939D01*
X84194600Y-67429061D01*
X84154826Y-67229102D01*
X84076805Y-67040744D01*
X83963537Y-66871226D01*
X83819374Y-66727063D01*
X83649856Y-66613795D01*
X83461498Y-66535774D01*
X83261539Y-66496000D01*
X83057661Y-66496000D01*
X82857702Y-66535774D01*
X82669344Y-66613795D01*
X82499826Y-66727063D01*
X82355663Y-66871226D01*
X82242395Y-67040744D01*
X82164374Y-67229102D01*
X82124600Y-67429061D01*
X79045388Y-67429061D01*
X79064344Y-67383298D01*
X79104118Y-67183339D01*
X79104118Y-66979461D01*
X79064344Y-66779502D01*
X78986323Y-66591144D01*
X78873055Y-66421626D01*
X78728892Y-66277463D01*
X78559374Y-66164195D01*
X78371016Y-66086174D01*
X78171057Y-66046400D01*
X77967179Y-66046400D01*
X77767220Y-66086174D01*
X77578862Y-66164195D01*
X77409344Y-66277463D01*
X77265181Y-66421626D01*
X77151913Y-66591144D01*
X77073892Y-66779502D01*
X77034118Y-66979461D01*
X67983218Y-66979461D01*
X68049726Y-66818898D01*
X68089500Y-66618939D01*
X68089500Y-66415061D01*
X68049726Y-66215102D01*
X67971705Y-66026744D01*
X67858437Y-65857226D01*
X67714274Y-65713063D01*
X67556828Y-65607861D01*
X90963800Y-65607861D01*
X90963800Y-65811739D01*
X91003574Y-66011698D01*
X91081595Y-66200056D01*
X91194863Y-66369574D01*
X91339026Y-66513737D01*
X91508544Y-66627005D01*
X91696902Y-66705026D01*
X91896861Y-66744800D01*
X92100739Y-66744800D01*
X92300698Y-66705026D01*
X92489056Y-66627005D01*
X92658574Y-66513737D01*
X92802737Y-66369574D01*
X92916005Y-66200056D01*
X92994026Y-66011698D01*
X93033800Y-65811739D01*
X93033800Y-65607861D01*
X92994026Y-65407902D01*
X92916005Y-65219544D01*
X92802737Y-65050026D01*
X92658574Y-64905863D01*
X92489056Y-64792595D01*
X92300698Y-64714574D01*
X92100739Y-64674800D01*
X91896861Y-64674800D01*
X91696902Y-64714574D01*
X91508544Y-64792595D01*
X91339026Y-64905863D01*
X91194863Y-65050026D01*
X91081595Y-65219544D01*
X91003574Y-65407902D01*
X90963800Y-65607861D01*
X67556828Y-65607861D01*
X67544756Y-65599795D01*
X67356398Y-65521774D01*
X67156439Y-65482000D01*
X66952561Y-65482000D01*
X66752602Y-65521774D01*
X66564244Y-65599795D01*
X66394726Y-65713063D01*
X66250563Y-65857226D01*
X66137295Y-66026744D01*
X66059274Y-66215102D01*
X66019500Y-66415061D01*
X64663317Y-66415061D01*
X64671205Y-66403256D01*
X64749226Y-66214898D01*
X64789000Y-66014939D01*
X64789000Y-65811061D01*
X64749226Y-65611102D01*
X64671205Y-65422744D01*
X64557937Y-65253226D01*
X64413774Y-65109063D01*
X64244256Y-64995795D01*
X64055898Y-64917774D01*
X63855939Y-64878000D01*
X63652061Y-64878000D01*
X63452102Y-64917774D01*
X63263744Y-64995795D01*
X63094226Y-65109063D01*
X62950063Y-65253226D01*
X62836795Y-65422744D01*
X62758774Y-65611102D01*
X62719000Y-65811061D01*
X45660000Y-65811061D01*
X45660000Y-62178861D01*
X82886600Y-62178861D01*
X82886600Y-62382739D01*
X82926374Y-62582698D01*
X83004395Y-62771056D01*
X83117663Y-62940574D01*
X83261826Y-63084737D01*
X83431344Y-63198005D01*
X83619702Y-63276026D01*
X83819661Y-63315800D01*
X84023539Y-63315800D01*
X84223498Y-63276026D01*
X84411856Y-63198005D01*
X84581374Y-63084737D01*
X84581738Y-63084373D01*
X84599744Y-63096405D01*
X84788102Y-63174426D01*
X84988061Y-63214200D01*
X85191939Y-63214200D01*
X85391898Y-63174426D01*
X85580256Y-63096405D01*
X85680027Y-63029740D01*
X93047000Y-63029740D01*
X93047000Y-63322260D01*
X93104068Y-63609158D01*
X93216010Y-63879411D01*
X93378525Y-64122632D01*
X93585368Y-64329475D01*
X93759760Y-64446000D01*
X93585368Y-64562525D01*
X93378525Y-64769368D01*
X93216010Y-65012589D01*
X93104068Y-65282842D01*
X93047000Y-65569740D01*
X93047000Y-65862260D01*
X93104068Y-66149158D01*
X93216010Y-66419411D01*
X93378525Y-66662632D01*
X93585368Y-66869475D01*
X93759760Y-66986000D01*
X93585368Y-67102525D01*
X93378525Y-67309368D01*
X93216010Y-67552589D01*
X93104068Y-67822842D01*
X93047000Y-68109740D01*
X93047000Y-68402260D01*
X93104068Y-68689158D01*
X93216010Y-68959411D01*
X93378525Y-69202632D01*
X93585368Y-69409475D01*
X93828589Y-69571990D01*
X94098842Y-69683932D01*
X94385740Y-69741000D01*
X94678260Y-69741000D01*
X94965158Y-69683932D01*
X95235411Y-69571990D01*
X95478632Y-69409475D01*
X95685475Y-69202632D01*
X95802000Y-69028240D01*
X95918525Y-69202632D01*
X96125368Y-69409475D01*
X96368589Y-69571990D01*
X96638842Y-69683932D01*
X96925740Y-69741000D01*
X97218260Y-69741000D01*
X97505158Y-69683932D01*
X97775411Y-69571990D01*
X98018632Y-69409475D01*
X98225475Y-69202632D01*
X98387990Y-68959411D01*
X98499932Y-68689158D01*
X98557000Y-68402260D01*
X98557000Y-68109740D01*
X98499932Y-67822842D01*
X98387990Y-67552589D01*
X98225475Y-67309368D01*
X98018632Y-67102525D01*
X97844240Y-66986000D01*
X98018632Y-66869475D01*
X98225475Y-66662632D01*
X98387990Y-66419411D01*
X98499932Y-66149158D01*
X98557000Y-65862260D01*
X98557000Y-65569740D01*
X98499932Y-65282842D01*
X98387990Y-65012589D01*
X98225475Y-64769368D01*
X98018632Y-64562525D01*
X97844240Y-64446000D01*
X98018632Y-64329475D01*
X98225475Y-64122632D01*
X98387990Y-63879411D01*
X98499932Y-63609158D01*
X98524530Y-63485496D01*
X104441000Y-63485496D01*
X104441000Y-63876506D01*
X104517282Y-64260004D01*
X104666915Y-64621251D01*
X104884149Y-64946365D01*
X105160636Y-65222852D01*
X105485750Y-65440086D01*
X105846997Y-65589719D01*
X106230495Y-65666001D01*
X106621505Y-65666001D01*
X107005003Y-65589719D01*
X107366250Y-65440086D01*
X107691364Y-65222852D01*
X107967851Y-64946365D01*
X108185085Y-64621251D01*
X108334718Y-64260004D01*
X108411000Y-63876506D01*
X108411000Y-63485496D01*
X125015000Y-63485496D01*
X125015000Y-63876506D01*
X125091282Y-64260004D01*
X125240915Y-64621251D01*
X125458149Y-64946365D01*
X125734636Y-65222852D01*
X126059750Y-65440086D01*
X126420997Y-65589719D01*
X126804495Y-65666001D01*
X127195505Y-65666001D01*
X127579003Y-65589719D01*
X127940250Y-65440086D01*
X128265364Y-65222852D01*
X128541851Y-64946365D01*
X128759085Y-64621251D01*
X128908718Y-64260004D01*
X128985000Y-63876506D01*
X128985000Y-63485496D01*
X128908718Y-63101998D01*
X128759085Y-62740751D01*
X128541851Y-62415637D01*
X128265364Y-62139150D01*
X127940250Y-61921916D01*
X127579003Y-61772283D01*
X127195505Y-61696001D01*
X126804495Y-61696001D01*
X126420997Y-61772283D01*
X126059750Y-61921916D01*
X125734636Y-62139150D01*
X125458149Y-62415637D01*
X125240915Y-62740751D01*
X125091282Y-63101998D01*
X125015000Y-63485496D01*
X108411000Y-63485496D01*
X108334718Y-63101998D01*
X108185085Y-62740751D01*
X107967851Y-62415637D01*
X107691364Y-62139150D01*
X107366250Y-61921916D01*
X107005003Y-61772283D01*
X106621505Y-61696001D01*
X106230495Y-61696001D01*
X105846997Y-61772283D01*
X105485750Y-61921916D01*
X105160636Y-62139150D01*
X104884149Y-62415637D01*
X104666915Y-62740751D01*
X104517282Y-63101998D01*
X104441000Y-63485496D01*
X98524530Y-63485496D01*
X98557000Y-63322260D01*
X98557000Y-63029740D01*
X98499932Y-62742842D01*
X98387990Y-62472589D01*
X98225475Y-62229368D01*
X98093620Y-62097513D01*
X98166180Y-62075502D01*
X98276494Y-62016537D01*
X98373185Y-61937185D01*
X98452537Y-61840494D01*
X98511502Y-61730180D01*
X98547812Y-61610482D01*
X98560072Y-61486000D01*
X98560072Y-59786000D01*
X98547812Y-59661518D01*
X98511502Y-59541820D01*
X98452537Y-59431506D01*
X98373185Y-59334815D01*
X98276494Y-59255463D01*
X98166180Y-59196498D01*
X98046482Y-59160188D01*
X97922000Y-59147928D01*
X96222000Y-59147928D01*
X96097518Y-59160188D01*
X95977820Y-59196498D01*
X95867506Y-59255463D01*
X95770815Y-59334815D01*
X95691463Y-59431506D01*
X95632498Y-59541820D01*
X95609502Y-59617626D01*
X95413355Y-59440822D01*
X95163252Y-59291843D01*
X94888891Y-59194519D01*
X94659000Y-59315186D01*
X94659000Y-60509000D01*
X94679000Y-60509000D01*
X94679000Y-60763000D01*
X94659000Y-60763000D01*
X94659000Y-60783000D01*
X94405000Y-60783000D01*
X94405000Y-60763000D01*
X93211845Y-60763000D01*
X93090524Y-60992890D01*
X93135175Y-61140099D01*
X93260359Y-61402920D01*
X93434412Y-61636269D01*
X93650645Y-61831178D01*
X93767534Y-61900805D01*
X93585368Y-62022525D01*
X93378525Y-62229368D01*
X93216010Y-62472589D01*
X93104068Y-62742842D01*
X93047000Y-63029740D01*
X85680027Y-63029740D01*
X85749774Y-62983137D01*
X85893937Y-62838974D01*
X86007205Y-62669456D01*
X86085226Y-62481098D01*
X86125000Y-62281139D01*
X86125000Y-62077261D01*
X86085226Y-61877302D01*
X86007205Y-61688944D01*
X85893937Y-61519426D01*
X85749774Y-61375263D01*
X85580256Y-61261995D01*
X85391898Y-61183974D01*
X85191939Y-61144200D01*
X84988061Y-61144200D01*
X84788102Y-61183974D01*
X84599744Y-61261995D01*
X84430226Y-61375263D01*
X84429862Y-61375627D01*
X84411856Y-61363595D01*
X84223498Y-61285574D01*
X84023539Y-61245800D01*
X83819661Y-61245800D01*
X83619702Y-61285574D01*
X83431344Y-61363595D01*
X83261826Y-61476863D01*
X83117663Y-61621026D01*
X83004395Y-61790544D01*
X82926374Y-61978902D01*
X82886600Y-62178861D01*
X45660000Y-62178861D01*
X45660000Y-60279110D01*
X93090524Y-60279110D01*
X93211845Y-60509000D01*
X94405000Y-60509000D01*
X94405000Y-59315186D01*
X94175109Y-59194519D01*
X93900748Y-59291843D01*
X93650645Y-59440822D01*
X93434412Y-59635731D01*
X93260359Y-59869080D01*
X93135175Y-60131901D01*
X93090524Y-60279110D01*
X45660000Y-60279110D01*
X45660000Y-56700881D01*
X47478724Y-56700881D01*
X47838912Y-57190548D01*
X48502882Y-57550849D01*
X49224385Y-57774694D01*
X49975695Y-57853480D01*
X50727938Y-57784178D01*
X51452208Y-57569452D01*
X52120670Y-57217555D01*
X52161088Y-57190548D01*
X52521276Y-56700881D01*
X50000000Y-54179605D01*
X47478724Y-56700881D01*
X45660000Y-56700881D01*
X45660000Y-54029392D01*
X45664792Y-53975695D01*
X46146520Y-53975695D01*
X46215822Y-54727938D01*
X46430548Y-55452208D01*
X46782445Y-56120670D01*
X46809452Y-56161088D01*
X47299119Y-56521276D01*
X49820395Y-54000000D01*
X50179605Y-54000000D01*
X52700881Y-56521276D01*
X53190548Y-56161088D01*
X53550849Y-55497118D01*
X53774694Y-54775615D01*
X53853480Y-54024305D01*
X53799497Y-53438340D01*
X57451600Y-53438340D01*
X57451600Y-53730860D01*
X57508668Y-54017758D01*
X57620610Y-54288011D01*
X57783125Y-54531232D01*
X57989968Y-54738075D01*
X58233189Y-54900590D01*
X58503442Y-55012532D01*
X58790340Y-55069600D01*
X59082860Y-55069600D01*
X59369758Y-55012532D01*
X59640011Y-54900590D01*
X59883232Y-54738075D01*
X60090075Y-54531232D01*
X60206600Y-54356840D01*
X60323125Y-54531232D01*
X60529968Y-54738075D01*
X60773189Y-54900590D01*
X61043442Y-55012532D01*
X61330340Y-55069600D01*
X61622860Y-55069600D01*
X61909758Y-55012532D01*
X62180011Y-54900590D01*
X62423232Y-54738075D01*
X62630075Y-54531232D01*
X62746600Y-54356840D01*
X62863125Y-54531232D01*
X63069968Y-54738075D01*
X63313189Y-54900590D01*
X63583442Y-55012532D01*
X63870340Y-55069600D01*
X64162860Y-55069600D01*
X64449758Y-55012532D01*
X64720011Y-54900590D01*
X64963232Y-54738075D01*
X65170075Y-54531232D01*
X65286600Y-54356840D01*
X65403125Y-54531232D01*
X65509189Y-54637296D01*
X65475600Y-54806161D01*
X65475600Y-55010039D01*
X65515374Y-55209998D01*
X65593395Y-55398356D01*
X65706663Y-55567874D01*
X65850826Y-55712037D01*
X66020344Y-55825305D01*
X66208702Y-55903326D01*
X66324720Y-55926403D01*
X66340174Y-56004098D01*
X66418195Y-56192456D01*
X66531463Y-56361974D01*
X66675626Y-56506137D01*
X66845144Y-56619405D01*
X67033502Y-56697426D01*
X67233461Y-56737200D01*
X67437339Y-56737200D01*
X67503393Y-56724061D01*
X97510200Y-56724061D01*
X97510200Y-56927939D01*
X97549974Y-57127898D01*
X97598521Y-57245100D01*
X97549974Y-57362302D01*
X97510200Y-57562261D01*
X97510200Y-57766139D01*
X97549974Y-57966098D01*
X97627995Y-58154456D01*
X97741263Y-58323974D01*
X97885426Y-58468137D01*
X98054944Y-58581405D01*
X98243302Y-58659426D01*
X98443261Y-58699200D01*
X98647139Y-58699200D01*
X98847098Y-58659426D01*
X99035456Y-58581405D01*
X99204974Y-58468137D01*
X99349137Y-58323974D01*
X99462405Y-58154456D01*
X99540426Y-57966098D01*
X99580200Y-57766139D01*
X99580200Y-57562261D01*
X99540426Y-57362302D01*
X99491879Y-57245100D01*
X99540426Y-57127898D01*
X99580200Y-56927939D01*
X99580200Y-56724061D01*
X99575590Y-56700881D01*
X132478724Y-56700881D01*
X132838912Y-57190548D01*
X133502882Y-57550849D01*
X134224385Y-57774694D01*
X134975695Y-57853480D01*
X135727938Y-57784178D01*
X136452208Y-57569452D01*
X137120670Y-57217555D01*
X137161088Y-57190548D01*
X137521276Y-56700881D01*
X135000000Y-54179605D01*
X132478724Y-56700881D01*
X99575590Y-56700881D01*
X99540426Y-56524102D01*
X99462405Y-56335744D01*
X99349137Y-56166226D01*
X99204974Y-56022063D01*
X99035456Y-55908795D01*
X98847098Y-55830774D01*
X98647139Y-55791000D01*
X98443261Y-55791000D01*
X98243302Y-55830774D01*
X98054944Y-55908795D01*
X97885426Y-56022063D01*
X97741263Y-56166226D01*
X97627995Y-56335744D01*
X97549974Y-56524102D01*
X97510200Y-56724061D01*
X67503393Y-56724061D01*
X67637298Y-56697426D01*
X67825656Y-56619405D01*
X67995174Y-56506137D01*
X68139337Y-56361974D01*
X68252605Y-56192456D01*
X68330626Y-56004098D01*
X68370400Y-55804139D01*
X68370400Y-55600261D01*
X68330626Y-55400302D01*
X68252605Y-55211944D01*
X68139337Y-55042426D01*
X67995174Y-54898263D01*
X67825656Y-54784995D01*
X67637298Y-54706974D01*
X67551416Y-54689891D01*
X67710075Y-54531232D01*
X67826600Y-54356840D01*
X67943125Y-54531232D01*
X68149968Y-54738075D01*
X68393189Y-54900590D01*
X68663442Y-55012532D01*
X68950340Y-55069600D01*
X69242860Y-55069600D01*
X69529758Y-55012532D01*
X69800011Y-54900590D01*
X70043232Y-54738075D01*
X70175087Y-54606220D01*
X70197098Y-54678780D01*
X70256063Y-54789094D01*
X70335415Y-54885785D01*
X70432106Y-54965137D01*
X70542420Y-55024102D01*
X70662118Y-55060412D01*
X70786600Y-55072672D01*
X71350850Y-55069600D01*
X71509600Y-54910850D01*
X71509600Y-53711600D01*
X71763600Y-53711600D01*
X71763600Y-54910850D01*
X71922350Y-55069600D01*
X72486600Y-55072672D01*
X72611082Y-55060412D01*
X72730780Y-55024102D01*
X72841094Y-54965137D01*
X72937785Y-54885785D01*
X73017137Y-54789094D01*
X73076102Y-54678780D01*
X73112412Y-54559082D01*
X73124672Y-54434600D01*
X73122174Y-53975695D01*
X131146520Y-53975695D01*
X131215822Y-54727938D01*
X131430548Y-55452208D01*
X131782445Y-56120670D01*
X131809452Y-56161088D01*
X132299119Y-56521276D01*
X134820395Y-54000000D01*
X135179605Y-54000000D01*
X137700881Y-56521276D01*
X138190548Y-56161088D01*
X138550849Y-55497118D01*
X138774694Y-54775615D01*
X138853480Y-54024305D01*
X138784178Y-53272062D01*
X138569452Y-52547792D01*
X138217555Y-51879330D01*
X138190548Y-51838912D01*
X137700881Y-51478724D01*
X135179605Y-54000000D01*
X134820395Y-54000000D01*
X132299119Y-51478724D01*
X131809452Y-51838912D01*
X131449151Y-52502882D01*
X131225306Y-53224385D01*
X131146520Y-53975695D01*
X73122174Y-53975695D01*
X73121600Y-53870350D01*
X72962850Y-53711600D01*
X71763600Y-53711600D01*
X71509600Y-53711600D01*
X71489600Y-53711600D01*
X71489600Y-53457600D01*
X71509600Y-53457600D01*
X71509600Y-52258350D01*
X71763600Y-52258350D01*
X71763600Y-53457600D01*
X72962850Y-53457600D01*
X73121600Y-53298850D01*
X73124672Y-52734600D01*
X73112412Y-52610118D01*
X73076102Y-52490420D01*
X73017137Y-52380106D01*
X72937785Y-52283415D01*
X72841094Y-52204063D01*
X72730780Y-52145098D01*
X72682529Y-52130461D01*
X83765000Y-52130461D01*
X83765000Y-52334339D01*
X83804774Y-52534298D01*
X83882795Y-52722656D01*
X83996063Y-52892174D01*
X84140226Y-53036337D01*
X84309744Y-53149605D01*
X84498102Y-53227626D01*
X84698061Y-53267400D01*
X84901939Y-53267400D01*
X85101898Y-53227626D01*
X85290256Y-53149605D01*
X85459774Y-53036337D01*
X85603937Y-52892174D01*
X85717205Y-52722656D01*
X85795226Y-52534298D01*
X85835000Y-52334339D01*
X85835000Y-52130461D01*
X85795226Y-51930502D01*
X85717205Y-51742144D01*
X85603937Y-51572626D01*
X85459774Y-51428463D01*
X85290256Y-51315195D01*
X85251446Y-51299119D01*
X132478724Y-51299119D01*
X135000000Y-53820395D01*
X137521276Y-51299119D01*
X137161088Y-50809452D01*
X136497118Y-50449151D01*
X135775615Y-50225306D01*
X135024305Y-50146520D01*
X134272062Y-50215822D01*
X133547792Y-50430548D01*
X132879330Y-50782445D01*
X132838912Y-50809452D01*
X132478724Y-51299119D01*
X85251446Y-51299119D01*
X85101898Y-51237174D01*
X84901939Y-51197400D01*
X84698061Y-51197400D01*
X84498102Y-51237174D01*
X84309744Y-51315195D01*
X84140226Y-51428463D01*
X83996063Y-51572626D01*
X83882795Y-51742144D01*
X83804774Y-51930502D01*
X83765000Y-52130461D01*
X72682529Y-52130461D01*
X72611082Y-52108788D01*
X72486600Y-52096528D01*
X71922350Y-52099600D01*
X71763600Y-52258350D01*
X71509600Y-52258350D01*
X71350850Y-52099600D01*
X70786600Y-52096528D01*
X70662118Y-52108788D01*
X70542420Y-52145098D01*
X70432106Y-52204063D01*
X70335415Y-52283415D01*
X70256063Y-52380106D01*
X70197098Y-52490420D01*
X70175087Y-52562980D01*
X70043232Y-52431125D01*
X69800011Y-52268610D01*
X69529758Y-52156668D01*
X69242860Y-52099600D01*
X68950340Y-52099600D01*
X68663442Y-52156668D01*
X68393189Y-52268610D01*
X68149968Y-52431125D01*
X67943125Y-52637968D01*
X67826600Y-52812360D01*
X67710075Y-52637968D01*
X67503232Y-52431125D01*
X67260011Y-52268610D01*
X66989758Y-52156668D01*
X66702860Y-52099600D01*
X66410340Y-52099600D01*
X66123442Y-52156668D01*
X65853189Y-52268610D01*
X65609968Y-52431125D01*
X65403125Y-52637968D01*
X65286600Y-52812360D01*
X65170075Y-52637968D01*
X64963232Y-52431125D01*
X64720011Y-52268610D01*
X64449758Y-52156668D01*
X64162860Y-52099600D01*
X63870340Y-52099600D01*
X63583442Y-52156668D01*
X63313189Y-52268610D01*
X63069968Y-52431125D01*
X62863125Y-52637968D01*
X62746600Y-52812360D01*
X62630075Y-52637968D01*
X62423232Y-52431125D01*
X62180011Y-52268610D01*
X61909758Y-52156668D01*
X61622860Y-52099600D01*
X61330340Y-52099600D01*
X61043442Y-52156668D01*
X60773189Y-52268610D01*
X60529968Y-52431125D01*
X60323125Y-52637968D01*
X60206600Y-52812360D01*
X60090075Y-52637968D01*
X59883232Y-52431125D01*
X59640011Y-52268610D01*
X59369758Y-52156668D01*
X59082860Y-52099600D01*
X58790340Y-52099600D01*
X58503442Y-52156668D01*
X58233189Y-52268610D01*
X57989968Y-52431125D01*
X57783125Y-52637968D01*
X57620610Y-52881189D01*
X57508668Y-53151442D01*
X57451600Y-53438340D01*
X53799497Y-53438340D01*
X53784178Y-53272062D01*
X53569452Y-52547792D01*
X53217555Y-51879330D01*
X53190548Y-51838912D01*
X52700881Y-51478724D01*
X50179605Y-54000000D01*
X49820395Y-54000000D01*
X47299119Y-51478724D01*
X46809452Y-51838912D01*
X46449151Y-52502882D01*
X46225306Y-53224385D01*
X46146520Y-53975695D01*
X45664792Y-53975695D01*
X45731173Y-53231917D01*
X45934656Y-52488109D01*
X46266638Y-51792095D01*
X46620876Y-51299119D01*
X47478724Y-51299119D01*
X50000000Y-53820395D01*
X52521276Y-51299119D01*
X52161088Y-50809452D01*
X51497118Y-50449151D01*
X50775615Y-50225306D01*
X50024305Y-50146520D01*
X49272062Y-50215822D01*
X48547792Y-50430548D01*
X47879330Y-50782445D01*
X47838912Y-50809452D01*
X47478724Y-51299119D01*
X46620876Y-51299119D01*
X46716626Y-51165870D01*
X47270403Y-50629223D01*
X47910451Y-50199129D01*
X48616553Y-49889171D01*
X49371457Y-49707935D01*
X50024207Y-49660000D01*
X134970608Y-49660000D01*
X135768083Y-49731173D01*
G37*
X135768083Y-49731173D02*
X136511891Y-49934656D01*
X137207905Y-50266638D01*
X137834130Y-50716626D01*
X138370777Y-51270403D01*
X138800871Y-51910451D01*
X139110829Y-52616553D01*
X139292065Y-53371457D01*
X139340001Y-54024220D01*
X139340001Y-74188866D01*
X139207718Y-74080305D01*
X138980141Y-73958662D01*
X138733205Y-73883755D01*
X138540751Y-73864800D01*
X138062049Y-73864800D01*
X137869595Y-73883755D01*
X137622659Y-73958662D01*
X137395082Y-74080305D01*
X137195608Y-74244008D01*
X137031905Y-74443482D01*
X136910262Y-74671059D01*
X136835355Y-74917995D01*
X136810062Y-75174800D01*
X136835355Y-75431605D01*
X136910262Y-75678541D01*
X137031905Y-75906118D01*
X137195608Y-76105592D01*
X137395082Y-76269295D01*
X137622659Y-76390938D01*
X137869595Y-76465845D01*
X138062049Y-76484800D01*
X138540751Y-76484800D01*
X138733205Y-76465845D01*
X138980141Y-76390938D01*
X139207718Y-76269295D01*
X139340001Y-76160734D01*
X139340001Y-79648866D01*
X139207718Y-79540305D01*
X138980141Y-79418662D01*
X138733205Y-79343755D01*
X138540751Y-79324800D01*
X138062049Y-79324800D01*
X137869595Y-79343755D01*
X137622659Y-79418662D01*
X137395082Y-79540305D01*
X137195608Y-79704008D01*
X137031905Y-79903482D01*
X136910262Y-80131059D01*
X136835355Y-80377995D01*
X136810062Y-80634800D01*
X136835355Y-80891605D01*
X136910262Y-81138541D01*
X137031905Y-81366118D01*
X137195608Y-81565592D01*
X137395082Y-81729295D01*
X137622659Y-81850938D01*
X137869595Y-81925845D01*
X138062049Y-81944800D01*
X138540751Y-81944800D01*
X138733205Y-81925845D01*
X138980141Y-81850938D01*
X139207718Y-81729295D01*
X139340001Y-81620734D01*
X139340001Y-85873000D01*
X131000000Y-85873000D01*
X130975224Y-85875440D01*
X130951399Y-85882667D01*
X130929443Y-85894403D01*
X130910197Y-85910197D01*
X130894403Y-85929443D01*
X130882667Y-85951399D01*
X130875440Y-85975224D01*
X130873000Y-86000000D01*
X130873000Y-98873000D01*
X121908438Y-98873000D01*
X121999005Y-98737456D01*
X122077026Y-98549098D01*
X122116800Y-98349139D01*
X122116800Y-98145261D01*
X122077026Y-97945302D01*
X121999005Y-97756944D01*
X121885737Y-97587426D01*
X121741574Y-97443263D01*
X121572056Y-97329995D01*
X121383698Y-97251974D01*
X121183739Y-97212200D01*
X120979861Y-97212200D01*
X120779902Y-97251974D01*
X120675400Y-97295260D01*
X120570898Y-97251974D01*
X120370939Y-97212200D01*
X120167061Y-97212200D01*
X119967102Y-97251974D01*
X119778744Y-97329995D01*
X119609226Y-97443263D01*
X119465063Y-97587426D01*
X119351795Y-97756944D01*
X119273774Y-97945302D01*
X119234000Y-98145261D01*
X119234000Y-98349139D01*
X119273774Y-98549098D01*
X119351795Y-98737456D01*
X119442362Y-98873000D01*
X97364911Y-98873000D01*
X97255974Y-98764063D01*
X97086456Y-98650795D01*
X96898098Y-98572774D01*
X96698139Y-98533000D01*
X96494261Y-98533000D01*
X96294302Y-98572774D01*
X96152364Y-98631567D01*
X96101668Y-98555695D01*
X95957505Y-98411532D01*
X95787987Y-98298264D01*
X95599629Y-98220243D01*
X95399670Y-98180469D01*
X95195792Y-98180469D01*
X95013838Y-98216662D01*
X95050031Y-98034708D01*
X95050031Y-97830830D01*
X95010257Y-97630871D01*
X94932236Y-97442513D01*
X94818968Y-97272995D01*
X94674805Y-97128832D01*
X94505287Y-97015564D01*
X94316929Y-96937543D01*
X94116970Y-96897769D01*
X93913092Y-96897769D01*
X93713133Y-96937543D01*
X93524775Y-97015564D01*
X93355257Y-97128832D01*
X93211094Y-97272995D01*
X93097826Y-97442513D01*
X93019805Y-97630871D01*
X92980031Y-97830830D01*
X92980031Y-98034708D01*
X93019805Y-98234667D01*
X93097826Y-98423025D01*
X93211094Y-98592543D01*
X93355257Y-98736706D01*
X93524775Y-98849974D01*
X93580364Y-98873000D01*
X83718111Y-98873000D01*
X83811137Y-98779974D01*
X83924405Y-98610456D01*
X84002426Y-98422098D01*
X84042200Y-98222139D01*
X84042200Y-98018261D01*
X84002426Y-97818302D01*
X83924405Y-97629944D01*
X83811137Y-97460426D01*
X83666974Y-97316263D01*
X83497456Y-97202995D01*
X83309098Y-97124974D01*
X83109139Y-97085200D01*
X82905261Y-97085200D01*
X82705302Y-97124974D01*
X82600800Y-97168260D01*
X82496298Y-97124974D01*
X82296339Y-97085200D01*
X82092461Y-97085200D01*
X81892502Y-97124974D01*
X81704144Y-97202995D01*
X81534626Y-97316263D01*
X81390463Y-97460426D01*
X81277195Y-97629944D01*
X81199174Y-97818302D01*
X81159400Y-98018261D01*
X81159400Y-98222139D01*
X81199174Y-98422098D01*
X81277195Y-98610456D01*
X81390463Y-98779974D01*
X81483489Y-98873000D01*
X45660000Y-98873000D01*
X45660000Y-96358862D01*
X86696600Y-96358862D01*
X86696600Y-96562740D01*
X86736374Y-96762699D01*
X86814395Y-96951057D01*
X86927663Y-97120575D01*
X87071826Y-97264738D01*
X87241344Y-97378006D01*
X87429702Y-97456027D01*
X87629661Y-97495801D01*
X87833539Y-97495801D01*
X88033498Y-97456027D01*
X88221856Y-97378006D01*
X88391374Y-97264738D01*
X88535537Y-97120575D01*
X88648805Y-96951057D01*
X88726826Y-96762699D01*
X88766600Y-96562740D01*
X88766600Y-96358862D01*
X88726826Y-96158903D01*
X88648805Y-95970545D01*
X88642335Y-95960861D01*
X91370200Y-95960861D01*
X91370200Y-96164739D01*
X91409974Y-96364698D01*
X91487995Y-96553056D01*
X91601263Y-96722574D01*
X91745426Y-96866737D01*
X91914944Y-96980005D01*
X92103302Y-97058026D01*
X92303261Y-97097800D01*
X92507139Y-97097800D01*
X92707098Y-97058026D01*
X92895456Y-96980005D01*
X93064974Y-96866737D01*
X93209137Y-96722574D01*
X93322405Y-96553056D01*
X93400426Y-96364698D01*
X93440200Y-96164739D01*
X93440200Y-95960861D01*
X93400426Y-95760902D01*
X93322405Y-95572544D01*
X93209137Y-95403026D01*
X93064974Y-95258863D01*
X92895456Y-95145595D01*
X92707098Y-95067574D01*
X92507139Y-95027800D01*
X92303261Y-95027800D01*
X92103302Y-95067574D01*
X91914944Y-95145595D01*
X91745426Y-95258863D01*
X91601263Y-95403026D01*
X91487995Y-95572544D01*
X91409974Y-95760902D01*
X91370200Y-95960861D01*
X88642335Y-95960861D01*
X88535537Y-95801027D01*
X88391374Y-95656864D01*
X88221856Y-95543596D01*
X88033498Y-95465575D01*
X87833539Y-95425801D01*
X87629661Y-95425801D01*
X87429702Y-95465575D01*
X87241344Y-95543596D01*
X87071826Y-95656864D01*
X86927663Y-95801027D01*
X86814395Y-95970545D01*
X86736374Y-96158903D01*
X86696600Y-96358862D01*
X45660000Y-96358862D01*
X45660000Y-95106892D01*
X82572169Y-95106892D01*
X82572169Y-95310770D01*
X82611943Y-95510729D01*
X82689964Y-95699087D01*
X82803232Y-95868605D01*
X82947395Y-96012768D01*
X83116913Y-96126036D01*
X83305271Y-96204057D01*
X83505230Y-96243831D01*
X83709108Y-96243831D01*
X83909067Y-96204057D01*
X84097425Y-96126036D01*
X84266943Y-96012768D01*
X84411106Y-95868605D01*
X84524374Y-95699087D01*
X84602395Y-95510729D01*
X84642169Y-95310770D01*
X84642169Y-95106892D01*
X84602395Y-94906933D01*
X84524374Y-94718575D01*
X84411106Y-94549057D01*
X84349710Y-94487661D01*
X94240400Y-94487661D01*
X94240400Y-94691539D01*
X94280174Y-94891498D01*
X94358195Y-95079856D01*
X94471463Y-95249374D01*
X94615626Y-95393537D01*
X94785144Y-95506805D01*
X94973502Y-95584826D01*
X95173461Y-95624600D01*
X95377339Y-95624600D01*
X95577298Y-95584826D01*
X95765656Y-95506805D01*
X95875020Y-95433731D01*
X95936426Y-95495137D01*
X96105944Y-95608405D01*
X96294302Y-95686426D01*
X96494261Y-95726200D01*
X96698139Y-95726200D01*
X96898098Y-95686426D01*
X97086456Y-95608405D01*
X97255974Y-95495137D01*
X97400137Y-95350974D01*
X97513405Y-95181456D01*
X97591426Y-94993098D01*
X97606073Y-94919461D01*
X105695800Y-94919461D01*
X105695800Y-95123339D01*
X105735574Y-95323298D01*
X105813595Y-95511656D01*
X105926863Y-95681174D01*
X106071026Y-95825337D01*
X106240544Y-95938605D01*
X106428902Y-96016626D01*
X106628861Y-96056400D01*
X106832739Y-96056400D01*
X107010339Y-96021073D01*
X106934626Y-96071663D01*
X106790463Y-96215826D01*
X106677195Y-96385344D01*
X106599174Y-96573702D01*
X106559400Y-96773661D01*
X106559400Y-96977539D01*
X106599174Y-97177498D01*
X106677195Y-97365856D01*
X106790463Y-97535374D01*
X106934626Y-97679537D01*
X107104144Y-97792805D01*
X107292502Y-97870826D01*
X107492461Y-97910600D01*
X107696339Y-97910600D01*
X107896298Y-97870826D01*
X108084656Y-97792805D01*
X108254174Y-97679537D01*
X108398337Y-97535374D01*
X108511605Y-97365856D01*
X108589626Y-97177498D01*
X108629400Y-96977539D01*
X108629400Y-96773661D01*
X108589626Y-96573702D01*
X108511605Y-96385344D01*
X108398337Y-96215826D01*
X108254174Y-96071663D01*
X108084656Y-95958395D01*
X107896298Y-95880374D01*
X107696339Y-95840600D01*
X107492461Y-95840600D01*
X107314861Y-95875927D01*
X107390574Y-95825337D01*
X107534737Y-95681174D01*
X107648005Y-95511656D01*
X107726026Y-95323298D01*
X107765800Y-95123339D01*
X107765800Y-94919461D01*
X107747153Y-94825716D01*
X107854144Y-94897205D01*
X108042502Y-94975226D01*
X108242461Y-95015000D01*
X108446339Y-95015000D01*
X108646298Y-94975226D01*
X108834656Y-94897205D01*
X109004174Y-94783937D01*
X109148337Y-94639774D01*
X109261605Y-94470256D01*
X109339626Y-94281898D01*
X109379400Y-94081939D01*
X109379400Y-93878061D01*
X109339626Y-93678102D01*
X109261605Y-93489744D01*
X109148337Y-93320226D01*
X109004174Y-93176063D01*
X108834656Y-93062795D01*
X108646298Y-92984774D01*
X108446339Y-92945000D01*
X108242461Y-92945000D01*
X108042502Y-92984774D01*
X107854144Y-93062795D01*
X107684626Y-93176063D01*
X107540463Y-93320226D01*
X107427195Y-93489744D01*
X107349174Y-93678102D01*
X107309400Y-93878061D01*
X107309400Y-94081939D01*
X107328047Y-94175684D01*
X107221056Y-94104195D01*
X107032698Y-94026174D01*
X106832739Y-93986400D01*
X106628861Y-93986400D01*
X106428902Y-94026174D01*
X106240544Y-94104195D01*
X106071026Y-94217463D01*
X105926863Y-94361626D01*
X105813595Y-94531144D01*
X105735574Y-94719502D01*
X105695800Y-94919461D01*
X97606073Y-94919461D01*
X97631200Y-94793139D01*
X97631200Y-94589261D01*
X97591426Y-94389302D01*
X97513405Y-94200944D01*
X97400137Y-94031426D01*
X97255974Y-93887263D01*
X97086456Y-93773995D01*
X96898098Y-93695974D01*
X96698139Y-93656200D01*
X96494261Y-93656200D01*
X96294302Y-93695974D01*
X96105944Y-93773995D01*
X95996580Y-93847069D01*
X95935174Y-93785663D01*
X95765656Y-93672395D01*
X95577298Y-93594374D01*
X95377339Y-93554600D01*
X95173461Y-93554600D01*
X94973502Y-93594374D01*
X94785144Y-93672395D01*
X94615626Y-93785663D01*
X94471463Y-93929826D01*
X94358195Y-94099344D01*
X94280174Y-94287702D01*
X94240400Y-94487661D01*
X84349710Y-94487661D01*
X84266943Y-94404894D01*
X84097425Y-94291626D01*
X83909067Y-94213605D01*
X83709108Y-94173831D01*
X83505230Y-94173831D01*
X83305271Y-94213605D01*
X83116913Y-94291626D01*
X82947395Y-94404894D01*
X82803232Y-94549057D01*
X82689964Y-94718575D01*
X82611943Y-94906933D01*
X82572169Y-95106892D01*
X45660000Y-95106892D01*
X45660000Y-92368000D01*
X49184928Y-92368000D01*
X49184928Y-94068000D01*
X49197188Y-94192482D01*
X49233498Y-94312180D01*
X49292463Y-94422494D01*
X49371815Y-94519185D01*
X49468506Y-94598537D01*
X49578820Y-94657502D01*
X49698518Y-94693812D01*
X49823000Y-94706072D01*
X51523000Y-94706072D01*
X51647482Y-94693812D01*
X51767180Y-94657502D01*
X51877494Y-94598537D01*
X51974185Y-94519185D01*
X52053537Y-94422494D01*
X52112502Y-94312180D01*
X52148812Y-94192482D01*
X52161072Y-94068000D01*
X52161072Y-92531861D01*
X73412400Y-92531861D01*
X73412400Y-92735739D01*
X73452174Y-92935698D01*
X73530195Y-93124056D01*
X73643463Y-93293574D01*
X73676514Y-93326625D01*
X73604574Y-93500302D01*
X73564800Y-93700261D01*
X73564800Y-93904139D01*
X73604574Y-94104098D01*
X73682595Y-94292456D01*
X73795863Y-94461974D01*
X73940026Y-94606137D01*
X74109544Y-94719405D01*
X74297902Y-94797426D01*
X74497861Y-94837200D01*
X74701739Y-94837200D01*
X74901698Y-94797426D01*
X75090056Y-94719405D01*
X75259574Y-94606137D01*
X75403737Y-94461974D01*
X75517005Y-94292456D01*
X75595026Y-94104098D01*
X75634800Y-93904139D01*
X75634800Y-93700261D01*
X75595026Y-93500302D01*
X75517005Y-93311944D01*
X75403737Y-93142426D01*
X75370686Y-93109375D01*
X75442626Y-92935698D01*
X75482400Y-92735739D01*
X75482400Y-92531861D01*
X75442626Y-92331902D01*
X75364605Y-92143544D01*
X75251337Y-91974026D01*
X75107174Y-91829863D01*
X75012782Y-91766792D01*
X92948069Y-91766792D01*
X92948069Y-91970670D01*
X92987843Y-92170629D01*
X93065864Y-92358987D01*
X93179132Y-92528505D01*
X93323295Y-92672668D01*
X93492813Y-92785936D01*
X93681171Y-92863957D01*
X93881130Y-92903731D01*
X94085008Y-92903731D01*
X94284967Y-92863957D01*
X94473325Y-92785936D01*
X94642843Y-92672668D01*
X94787006Y-92528505D01*
X94900274Y-92358987D01*
X94978295Y-92170629D01*
X95018069Y-91970670D01*
X95018069Y-91962808D01*
X114884200Y-91962808D01*
X114884200Y-92237992D01*
X114937886Y-92507890D01*
X115043195Y-92762127D01*
X115196080Y-92990935D01*
X115390665Y-93185520D01*
X115619473Y-93338405D01*
X115873710Y-93443714D01*
X116143608Y-93497400D01*
X116418792Y-93497400D01*
X116688690Y-93443714D01*
X116942927Y-93338405D01*
X117171735Y-93185520D01*
X117366320Y-92990935D01*
X117519205Y-92762127D01*
X117624514Y-92507890D01*
X117678200Y-92237992D01*
X117678200Y-91962808D01*
X117624514Y-91692910D01*
X117519205Y-91438673D01*
X117366320Y-91209865D01*
X117171735Y-91015280D01*
X116942927Y-90862395D01*
X116871257Y-90832708D01*
X116884223Y-90828036D01*
X117000180Y-90766056D01*
X117067160Y-90525965D01*
X116281200Y-89740005D01*
X115495240Y-90525965D01*
X115562220Y-90766056D01*
X115697960Y-90829885D01*
X115619473Y-90862395D01*
X115390665Y-91015280D01*
X115196080Y-91209865D01*
X115043195Y-91438673D01*
X114937886Y-91692910D01*
X114884200Y-91962808D01*
X95018069Y-91962808D01*
X95018069Y-91766792D01*
X94978295Y-91566833D01*
X94900274Y-91378475D01*
X94787006Y-91208957D01*
X94642843Y-91064794D01*
X94473325Y-90951526D01*
X94284967Y-90873505D01*
X94085008Y-90833731D01*
X93881130Y-90833731D01*
X93681171Y-90873505D01*
X93492813Y-90951526D01*
X93323295Y-91064794D01*
X93179132Y-91208957D01*
X93065864Y-91378475D01*
X92987843Y-91566833D01*
X92948069Y-91766792D01*
X75012782Y-91766792D01*
X74937656Y-91716595D01*
X74749298Y-91638574D01*
X74549339Y-91598800D01*
X74345461Y-91598800D01*
X74145502Y-91638574D01*
X73957144Y-91716595D01*
X73787626Y-91829863D01*
X73643463Y-91974026D01*
X73530195Y-92143544D01*
X73452174Y-92331902D01*
X73412400Y-92531861D01*
X52161072Y-92531861D01*
X52161072Y-92368000D01*
X52148812Y-92243518D01*
X52112502Y-92123820D01*
X52053537Y-92013506D01*
X51974185Y-91916815D01*
X51877494Y-91837463D01*
X51767180Y-91778498D01*
X51694620Y-91756487D01*
X51826475Y-91624632D01*
X51988990Y-91381411D01*
X52100932Y-91111158D01*
X52158000Y-90824260D01*
X52158000Y-90531740D01*
X52100932Y-90244842D01*
X51988990Y-89974589D01*
X51826475Y-89731368D01*
X51619632Y-89524525D01*
X51445240Y-89408000D01*
X51619632Y-89291475D01*
X51826475Y-89084632D01*
X51988990Y-88841411D01*
X52100932Y-88571158D01*
X52158000Y-88284260D01*
X52158000Y-87991740D01*
X52100932Y-87704842D01*
X51988990Y-87434589D01*
X51826475Y-87191368D01*
X51619632Y-86984525D01*
X51596788Y-86969261D01*
X63658800Y-86969261D01*
X63658800Y-87173139D01*
X63698574Y-87373098D01*
X63776595Y-87561456D01*
X63889863Y-87730974D01*
X64034026Y-87875137D01*
X64120783Y-87933106D01*
X64016863Y-88037026D01*
X63903595Y-88206544D01*
X63825574Y-88394902D01*
X63785800Y-88594861D01*
X63785800Y-88798739D01*
X63825574Y-88998698D01*
X63903595Y-89187056D01*
X64016863Y-89356574D01*
X64161026Y-89500737D01*
X64330544Y-89614005D01*
X64518902Y-89692026D01*
X64718861Y-89731800D01*
X64922739Y-89731800D01*
X65122698Y-89692026D01*
X65311056Y-89614005D01*
X65480574Y-89500737D01*
X65624737Y-89356574D01*
X65738005Y-89187056D01*
X65816026Y-88998698D01*
X65855800Y-88798739D01*
X65855800Y-88594861D01*
X65840643Y-88518661D01*
X68383200Y-88518661D01*
X68383200Y-88722539D01*
X68422974Y-88922498D01*
X68500995Y-89110856D01*
X68614263Y-89280374D01*
X68758426Y-89424537D01*
X68927944Y-89537805D01*
X69116302Y-89615826D01*
X69316261Y-89655600D01*
X69520139Y-89655600D01*
X69720098Y-89615826D01*
X69908456Y-89537805D01*
X70077974Y-89424537D01*
X70222137Y-89280374D01*
X70335405Y-89110856D01*
X70413426Y-88922498D01*
X70453200Y-88722539D01*
X70453200Y-88518661D01*
X70413426Y-88318702D01*
X70335405Y-88130344D01*
X70222137Y-87960826D01*
X70077974Y-87816663D01*
X69908456Y-87703395D01*
X69791769Y-87655061D01*
X71456600Y-87655061D01*
X71456600Y-87858939D01*
X71496374Y-88058898D01*
X71574395Y-88247256D01*
X71687663Y-88416774D01*
X71831826Y-88560937D01*
X72001344Y-88674205D01*
X72004054Y-88675328D01*
X71882626Y-88756463D01*
X71738463Y-88900626D01*
X71625195Y-89070144D01*
X71547174Y-89258502D01*
X71507400Y-89458461D01*
X71507400Y-89662339D01*
X71547174Y-89862298D01*
X71625195Y-90050656D01*
X71709152Y-90176307D01*
X71650595Y-90263944D01*
X71572574Y-90452302D01*
X71532800Y-90652261D01*
X71532800Y-90856139D01*
X71572574Y-91056098D01*
X71650595Y-91244456D01*
X71763863Y-91413974D01*
X71908026Y-91558137D01*
X72077544Y-91671405D01*
X72265902Y-91749426D01*
X72465861Y-91789200D01*
X72669739Y-91789200D01*
X72869698Y-91749426D01*
X73058056Y-91671405D01*
X73227574Y-91558137D01*
X73371737Y-91413974D01*
X73485005Y-91244456D01*
X73563026Y-91056098D01*
X73602800Y-90856139D01*
X73602800Y-90652261D01*
X73563026Y-90452302D01*
X73485005Y-90263944D01*
X73401048Y-90138293D01*
X73459605Y-90050656D01*
X73537626Y-89862298D01*
X73577400Y-89662339D01*
X73577400Y-89632417D01*
X114879290Y-89632417D01*
X114920278Y-89904533D01*
X115013564Y-90163423D01*
X115075544Y-90279380D01*
X115315635Y-90346360D01*
X116101595Y-89560400D01*
X115315635Y-88774440D01*
X115075544Y-88841420D01*
X114958444Y-89090448D01*
X114892177Y-89357535D01*
X114879290Y-89632417D01*
X73577400Y-89632417D01*
X73577400Y-89458461D01*
X73537626Y-89258502D01*
X73459605Y-89070144D01*
X73346337Y-88900626D01*
X73202174Y-88756463D01*
X73032656Y-88643195D01*
X73029946Y-88642072D01*
X73151374Y-88560937D01*
X73295537Y-88416774D01*
X73408805Y-88247256D01*
X73486826Y-88058898D01*
X73526600Y-87858939D01*
X73526600Y-87655061D01*
X73486826Y-87455102D01*
X73408805Y-87266744D01*
X73295537Y-87097226D01*
X73249972Y-87051661D01*
X73519900Y-87051661D01*
X73519900Y-87255539D01*
X73559674Y-87455498D01*
X73637695Y-87643856D01*
X73750963Y-87813374D01*
X73895126Y-87957537D01*
X74064644Y-88070805D01*
X74253002Y-88148826D01*
X74452961Y-88188600D01*
X74656839Y-88188600D01*
X74688265Y-88182349D01*
X74670440Y-88271962D01*
X74670440Y-88475840D01*
X74710214Y-88675799D01*
X74788235Y-88864157D01*
X74901503Y-89033675D01*
X75045666Y-89177838D01*
X75215184Y-89291106D01*
X75403542Y-89369127D01*
X75603501Y-89408901D01*
X75807379Y-89408901D01*
X76007338Y-89369127D01*
X76195696Y-89291106D01*
X76365214Y-89177838D01*
X76509377Y-89033675D01*
X76622645Y-88864157D01*
X76692003Y-88696714D01*
X76835626Y-88840337D01*
X77005144Y-88953605D01*
X77193502Y-89031626D01*
X77393461Y-89071400D01*
X77597339Y-89071400D01*
X77797298Y-89031626D01*
X77985656Y-88953605D01*
X78155174Y-88840337D01*
X78231585Y-88763926D01*
X78387302Y-88828426D01*
X78587261Y-88868200D01*
X78791139Y-88868200D01*
X78991098Y-88828426D01*
X79179456Y-88750405D01*
X79348974Y-88637137D01*
X79493137Y-88492974D01*
X79606405Y-88323456D01*
X79684426Y-88135098D01*
X79724200Y-87935139D01*
X79724200Y-87731261D01*
X79692184Y-87570303D01*
X79806174Y-87494137D01*
X79950337Y-87349974D01*
X80063605Y-87180456D01*
X80141626Y-86992098D01*
X80181400Y-86792139D01*
X80181400Y-86715261D01*
X80803800Y-86715261D01*
X80803800Y-86919139D01*
X80843574Y-87119098D01*
X80921595Y-87307456D01*
X81022524Y-87458507D01*
X80946995Y-87571544D01*
X80868974Y-87759902D01*
X80829200Y-87959861D01*
X80829200Y-88163739D01*
X80868974Y-88363698D01*
X80946995Y-88552056D01*
X81060263Y-88721574D01*
X81204426Y-88865737D01*
X81373944Y-88979005D01*
X81562302Y-89057026D01*
X81762261Y-89096800D01*
X81966139Y-89096800D01*
X82166098Y-89057026D01*
X82354456Y-88979005D01*
X82523974Y-88865737D01*
X82668137Y-88721574D01*
X82781405Y-88552056D01*
X82859426Y-88363698D01*
X82899200Y-88163739D01*
X82899200Y-87959861D01*
X82859426Y-87759902D01*
X82781405Y-87571544D01*
X82680476Y-87420493D01*
X82756005Y-87307456D01*
X82834026Y-87119098D01*
X82873800Y-86919139D01*
X82873800Y-86867661D01*
X92945000Y-86867661D01*
X92945000Y-87071539D01*
X92984774Y-87271498D01*
X93062795Y-87459856D01*
X93176063Y-87629374D01*
X93320226Y-87773537D01*
X93489744Y-87886805D01*
X93678102Y-87964826D01*
X93878061Y-88004600D01*
X94081939Y-88004600D01*
X94281898Y-87964826D01*
X94470256Y-87886805D01*
X94639774Y-87773537D01*
X94783937Y-87629374D01*
X94897205Y-87459856D01*
X94975226Y-87271498D01*
X95015000Y-87071539D01*
X95015000Y-86867661D01*
X94975226Y-86667702D01*
X94897205Y-86479344D01*
X94783937Y-86309826D01*
X94757572Y-86283461D01*
X95535800Y-86283461D01*
X95535800Y-86487339D01*
X95575574Y-86687298D01*
X95653595Y-86875656D01*
X95766863Y-87045174D01*
X95911026Y-87189337D01*
X96080544Y-87302605D01*
X96268902Y-87380626D01*
X96468861Y-87420400D01*
X96672739Y-87420400D01*
X96872698Y-87380626D01*
X97061056Y-87302605D01*
X97230574Y-87189337D01*
X97374737Y-87045174D01*
X97488005Y-86875656D01*
X97566026Y-86687298D01*
X97605800Y-86487339D01*
X97605800Y-86334261D01*
X107346800Y-86334261D01*
X107346800Y-86538139D01*
X107386574Y-86738098D01*
X107464595Y-86926456D01*
X107577863Y-87095974D01*
X107722026Y-87240137D01*
X107891544Y-87353405D01*
X108079902Y-87431426D01*
X108279861Y-87471200D01*
X108483739Y-87471200D01*
X108683698Y-87431426D01*
X108872056Y-87353405D01*
X109041574Y-87240137D01*
X109185737Y-87095974D01*
X109299005Y-86926456D01*
X109317084Y-86882808D01*
X114884200Y-86882808D01*
X114884200Y-87157992D01*
X114937886Y-87427890D01*
X115043195Y-87682127D01*
X115196080Y-87910935D01*
X115390665Y-88105520D01*
X115619473Y-88258405D01*
X115691143Y-88288092D01*
X115678177Y-88292764D01*
X115562220Y-88354744D01*
X115495240Y-88594835D01*
X116281200Y-89380795D01*
X116295343Y-89366653D01*
X116474948Y-89546258D01*
X116460805Y-89560400D01*
X117246765Y-90346360D01*
X117486856Y-90279380D01*
X117603956Y-90030352D01*
X117670223Y-89763265D01*
X117683110Y-89488383D01*
X117642122Y-89216267D01*
X117598839Y-89096146D01*
X117677574Y-89043537D01*
X117821737Y-88899374D01*
X117891282Y-88795292D01*
X117980098Y-88777626D01*
X118168456Y-88699605D01*
X118337974Y-88586337D01*
X118482137Y-88442174D01*
X118595405Y-88272656D01*
X118673426Y-88084298D01*
X118713200Y-87884339D01*
X118713200Y-87680461D01*
X118673426Y-87480502D01*
X118595405Y-87292144D01*
X118482137Y-87122626D01*
X118379911Y-87020400D01*
X118507537Y-86892774D01*
X118620805Y-86723256D01*
X118698826Y-86534898D01*
X118738600Y-86334939D01*
X118738600Y-86131061D01*
X118698826Y-85931102D01*
X118620805Y-85742744D01*
X118507537Y-85573226D01*
X118363374Y-85429063D01*
X118193856Y-85315795D01*
X118005498Y-85237774D01*
X117867815Y-85210387D01*
X117821737Y-85141426D01*
X117677574Y-84997263D01*
X117508056Y-84883995D01*
X117319698Y-84805974D01*
X117119739Y-84766200D01*
X116915861Y-84766200D01*
X116715902Y-84805974D01*
X116527544Y-84883995D01*
X116358026Y-84997263D01*
X116213863Y-85141426D01*
X116100595Y-85310944D01*
X116022574Y-85499302D01*
X115991887Y-85653579D01*
X115873710Y-85677086D01*
X115619473Y-85782395D01*
X115390665Y-85935280D01*
X115196080Y-86129865D01*
X115043195Y-86358673D01*
X114937886Y-86612910D01*
X114884200Y-86882808D01*
X109317084Y-86882808D01*
X109377026Y-86738098D01*
X109416800Y-86538139D01*
X109416800Y-86334261D01*
X109390924Y-86204172D01*
X109451405Y-86113656D01*
X109529426Y-85925298D01*
X109569200Y-85725339D01*
X109569200Y-85521461D01*
X109529426Y-85321502D01*
X109451405Y-85133144D01*
X109338137Y-84963626D01*
X109193974Y-84819463D01*
X109024456Y-84706195D01*
X108836098Y-84628174D01*
X108636139Y-84588400D01*
X108432261Y-84588400D01*
X108232302Y-84628174D01*
X108043944Y-84706195D01*
X107874426Y-84819463D01*
X107730263Y-84963626D01*
X107616995Y-85133144D01*
X107538974Y-85321502D01*
X107499200Y-85521461D01*
X107499200Y-85725339D01*
X107525076Y-85855428D01*
X107464595Y-85945944D01*
X107386574Y-86134302D01*
X107346800Y-86334261D01*
X97605800Y-86334261D01*
X97605800Y-86283461D01*
X97566026Y-86083502D01*
X97488005Y-85895144D01*
X97374737Y-85725626D01*
X97230574Y-85581463D01*
X97061056Y-85468195D01*
X96872698Y-85390174D01*
X96672739Y-85350400D01*
X96468861Y-85350400D01*
X96268902Y-85390174D01*
X96080544Y-85468195D01*
X95911026Y-85581463D01*
X95766863Y-85725626D01*
X95653595Y-85895144D01*
X95575574Y-86083502D01*
X95535800Y-86283461D01*
X94757572Y-86283461D01*
X94639774Y-86165663D01*
X94470256Y-86052395D01*
X94281898Y-85974374D01*
X94081939Y-85934600D01*
X93878061Y-85934600D01*
X93678102Y-85974374D01*
X93489744Y-86052395D01*
X93320226Y-86165663D01*
X93176063Y-86309826D01*
X93062795Y-86479344D01*
X92984774Y-86667702D01*
X92945000Y-86867661D01*
X82873800Y-86867661D01*
X82873800Y-86715261D01*
X82834026Y-86515302D01*
X82756005Y-86326944D01*
X82642737Y-86157426D01*
X82498574Y-86013263D01*
X82329056Y-85899995D01*
X82140698Y-85821974D01*
X81940739Y-85782200D01*
X81736861Y-85782200D01*
X81536902Y-85821974D01*
X81348544Y-85899995D01*
X81179026Y-86013263D01*
X81034863Y-86157426D01*
X80921595Y-86326944D01*
X80843574Y-86515302D01*
X80803800Y-86715261D01*
X80181400Y-86715261D01*
X80181400Y-86588261D01*
X80141626Y-86388302D01*
X80063605Y-86199944D01*
X80025674Y-86143177D01*
X80087651Y-85993553D01*
X80127425Y-85793594D01*
X80127425Y-85589716D01*
X80087651Y-85389757D01*
X80009630Y-85201399D01*
X79896362Y-85031881D01*
X79752199Y-84887718D01*
X79582681Y-84774450D01*
X79469482Y-84727561D01*
X82257500Y-84727561D01*
X82257500Y-84931439D01*
X82297274Y-85131398D01*
X82375295Y-85319756D01*
X82488563Y-85489274D01*
X82632726Y-85633437D01*
X82802244Y-85746705D01*
X82990602Y-85824726D01*
X83190561Y-85864500D01*
X83394439Y-85864500D01*
X83594398Y-85824726D01*
X83782756Y-85746705D01*
X83952274Y-85633437D01*
X84096437Y-85489274D01*
X84209705Y-85319756D01*
X84287726Y-85131398D01*
X84327500Y-84931439D01*
X84327500Y-84727561D01*
X84292359Y-84550895D01*
X84470602Y-84624726D01*
X84670561Y-84664500D01*
X84871107Y-84664500D01*
X84934795Y-84818256D01*
X85048063Y-84987774D01*
X85192226Y-85131937D01*
X85361744Y-85245205D01*
X85550102Y-85323226D01*
X85750061Y-85363000D01*
X85953939Y-85363000D01*
X86153898Y-85323226D01*
X86342256Y-85245205D01*
X86511774Y-85131937D01*
X86655937Y-84987774D01*
X86769205Y-84818256D01*
X86847226Y-84629898D01*
X86887000Y-84429939D01*
X86887000Y-84226061D01*
X86847226Y-84026102D01*
X86769205Y-83837744D01*
X86672264Y-83692661D01*
X94240400Y-83692661D01*
X94240400Y-83896539D01*
X94280174Y-84096498D01*
X94358195Y-84284856D01*
X94471463Y-84454374D01*
X94615626Y-84598537D01*
X94785144Y-84711805D01*
X94973502Y-84789826D01*
X95173461Y-84829600D01*
X95377339Y-84829600D01*
X95577298Y-84789826D01*
X95765656Y-84711805D01*
X95935174Y-84598537D01*
X96079337Y-84454374D01*
X96192605Y-84284856D01*
X96270626Y-84096498D01*
X96310400Y-83896539D01*
X96310400Y-83692661D01*
X96270626Y-83492702D01*
X96192605Y-83304344D01*
X96079337Y-83134826D01*
X95935174Y-82990663D01*
X95765656Y-82877395D01*
X95577298Y-82799374D01*
X95377339Y-82759600D01*
X95173461Y-82759600D01*
X94973502Y-82799374D01*
X94785144Y-82877395D01*
X94615626Y-82990663D01*
X94471463Y-83134826D01*
X94358195Y-83304344D01*
X94280174Y-83492702D01*
X94240400Y-83692661D01*
X86672264Y-83692661D01*
X86655937Y-83668226D01*
X86511774Y-83524063D01*
X86342256Y-83410795D01*
X86153898Y-83332774D01*
X85953939Y-83293000D01*
X85753393Y-83293000D01*
X85689705Y-83139244D01*
X85576437Y-82969726D01*
X85432274Y-82825563D01*
X85262756Y-82712295D01*
X85074398Y-82634274D01*
X84874439Y-82594500D01*
X84670561Y-82594500D01*
X84470602Y-82634274D01*
X84282244Y-82712295D01*
X84112726Y-82825563D01*
X83968563Y-82969726D01*
X83855295Y-83139244D01*
X83777274Y-83327602D01*
X83737500Y-83527561D01*
X83737500Y-83731439D01*
X83772641Y-83908105D01*
X83594398Y-83834274D01*
X83394439Y-83794500D01*
X83190561Y-83794500D01*
X82990602Y-83834274D01*
X82802244Y-83912295D01*
X82632726Y-84025563D01*
X82488563Y-84169726D01*
X82375295Y-84339244D01*
X82297274Y-84527602D01*
X82257500Y-84727561D01*
X79469482Y-84727561D01*
X79394323Y-84696429D01*
X79194364Y-84656655D01*
X78990486Y-84656655D01*
X78790527Y-84696429D01*
X78602169Y-84774450D01*
X78432651Y-84887718D01*
X78288488Y-85031881D01*
X78175220Y-85201399D01*
X78097199Y-85389757D01*
X78057425Y-85589716D01*
X78057425Y-85793594D01*
X78097199Y-85993553D01*
X78175220Y-86181911D01*
X78213151Y-86238678D01*
X78151174Y-86388302D01*
X78111400Y-86588261D01*
X78111400Y-86792139D01*
X78143416Y-86953097D01*
X78029426Y-87029263D01*
X77953015Y-87105674D01*
X77797298Y-87041174D01*
X77755020Y-87032764D01*
X77755020Y-86943861D01*
X77715246Y-86743902D01*
X77637225Y-86555544D01*
X77523957Y-86386026D01*
X77379794Y-86241863D01*
X77210276Y-86128595D01*
X77021918Y-86050574D01*
X76821959Y-86010800D01*
X76618081Y-86010800D01*
X76418122Y-86050574D01*
X76229764Y-86128595D01*
X76060246Y-86241863D01*
X75916083Y-86386026D01*
X75802815Y-86555544D01*
X75724794Y-86743902D01*
X75685020Y-86943861D01*
X75685020Y-87147739D01*
X75723044Y-87338901D01*
X75603501Y-87338901D01*
X75572075Y-87345152D01*
X75589900Y-87255539D01*
X75589900Y-87051661D01*
X75550126Y-86851702D01*
X75472105Y-86663344D01*
X75358837Y-86493826D01*
X75214674Y-86349663D01*
X75045156Y-86236395D01*
X74856798Y-86158374D01*
X74656839Y-86118600D01*
X74452961Y-86118600D01*
X74253002Y-86158374D01*
X74064644Y-86236395D01*
X73895126Y-86349663D01*
X73750963Y-86493826D01*
X73637695Y-86663344D01*
X73559674Y-86851702D01*
X73519900Y-87051661D01*
X73249972Y-87051661D01*
X73151374Y-86953063D01*
X72981856Y-86839795D01*
X72793498Y-86761774D01*
X72593539Y-86722000D01*
X72389661Y-86722000D01*
X72189702Y-86761774D01*
X72001344Y-86839795D01*
X71831826Y-86953063D01*
X71687663Y-87097226D01*
X71574395Y-87266744D01*
X71496374Y-87455102D01*
X71456600Y-87655061D01*
X69791769Y-87655061D01*
X69720098Y-87625374D01*
X69520139Y-87585600D01*
X69316261Y-87585600D01*
X69116302Y-87625374D01*
X68927944Y-87703395D01*
X68758426Y-87816663D01*
X68614263Y-87960826D01*
X68500995Y-88130344D01*
X68422974Y-88318702D01*
X68383200Y-88518661D01*
X65840643Y-88518661D01*
X65816026Y-88394902D01*
X65738005Y-88206544D01*
X65624737Y-88037026D01*
X65480574Y-87892863D01*
X65393817Y-87834894D01*
X65497737Y-87730974D01*
X65611005Y-87561456D01*
X65669521Y-87420187D01*
X65706995Y-87510656D01*
X65820263Y-87680174D01*
X65964426Y-87824337D01*
X66133944Y-87937605D01*
X66322302Y-88015626D01*
X66522261Y-88055400D01*
X66726139Y-88055400D01*
X66926098Y-88015626D01*
X67114456Y-87937605D01*
X67283974Y-87824337D01*
X67428137Y-87680174D01*
X67541405Y-87510656D01*
X67619426Y-87322298D01*
X67659200Y-87122339D01*
X67659200Y-86918461D01*
X67619426Y-86718502D01*
X67541405Y-86530144D01*
X67428137Y-86360626D01*
X67422967Y-86355456D01*
X67439805Y-86330256D01*
X67517826Y-86141898D01*
X67557600Y-85941939D01*
X67557600Y-85738061D01*
X67517826Y-85538102D01*
X67439805Y-85349744D01*
X67432496Y-85338805D01*
X67614461Y-85375000D01*
X67818339Y-85375000D01*
X68018298Y-85335226D01*
X68206656Y-85257205D01*
X68376174Y-85143937D01*
X68520337Y-84999774D01*
X68633605Y-84830256D01*
X68711626Y-84641898D01*
X68751400Y-84441939D01*
X68751400Y-84238061D01*
X68711626Y-84038102D01*
X68633605Y-83849744D01*
X68520337Y-83680226D01*
X68381503Y-83541392D01*
X70797331Y-83541392D01*
X70797331Y-83745270D01*
X70837105Y-83945229D01*
X70915126Y-84133587D01*
X71015067Y-84283160D01*
X70996205Y-84328698D01*
X70956431Y-84528657D01*
X70956431Y-84732535D01*
X70996205Y-84932494D01*
X71074226Y-85120852D01*
X71187494Y-85290370D01*
X71331657Y-85434533D01*
X71501175Y-85547801D01*
X71689533Y-85625822D01*
X71889492Y-85665596D01*
X72093370Y-85665596D01*
X72293329Y-85625822D01*
X72481687Y-85547801D01*
X72651205Y-85434533D01*
X72795368Y-85290370D01*
X72908636Y-85120852D01*
X72986657Y-84932494D01*
X73026431Y-84732535D01*
X73026431Y-84528657D01*
X72986657Y-84328698D01*
X72908636Y-84140340D01*
X72808695Y-83990767D01*
X72827557Y-83945229D01*
X72867331Y-83745270D01*
X72867331Y-83541392D01*
X72827557Y-83341433D01*
X72749536Y-83153075D01*
X72636268Y-82983557D01*
X72492105Y-82839394D01*
X72322587Y-82726126D01*
X72134229Y-82648105D01*
X71934270Y-82608331D01*
X71730392Y-82608331D01*
X71530433Y-82648105D01*
X71342075Y-82726126D01*
X71172557Y-82839394D01*
X71028394Y-82983557D01*
X70915126Y-83153075D01*
X70837105Y-83341433D01*
X70797331Y-83541392D01*
X68381503Y-83541392D01*
X68376174Y-83536063D01*
X68206656Y-83422795D01*
X68018298Y-83344774D01*
X67818339Y-83305000D01*
X67744877Y-83305000D01*
X67744605Y-83304344D01*
X67631337Y-83134826D01*
X67487174Y-82990663D01*
X67317656Y-82877395D01*
X67129298Y-82799374D01*
X66929339Y-82759600D01*
X66725461Y-82759600D01*
X66525502Y-82799374D01*
X66337144Y-82877395D01*
X66167626Y-82990663D01*
X66023463Y-83134826D01*
X65910195Y-83304344D01*
X65832174Y-83492702D01*
X65792400Y-83692661D01*
X65792400Y-83896539D01*
X65832174Y-84096498D01*
X65910195Y-84284856D01*
X66023463Y-84454374D01*
X66167626Y-84598537D01*
X66337144Y-84711805D01*
X66525502Y-84789826D01*
X66601787Y-84805000D01*
X66420661Y-84805000D01*
X66220702Y-84844774D01*
X66032344Y-84922795D01*
X65862826Y-85036063D01*
X65718663Y-85180226D01*
X65605395Y-85349744D01*
X65527374Y-85538102D01*
X65487600Y-85738061D01*
X65487600Y-85941939D01*
X65527374Y-86141898D01*
X65605395Y-86330256D01*
X65718663Y-86499774D01*
X65723833Y-86504944D01*
X65706995Y-86530144D01*
X65648479Y-86671413D01*
X65611005Y-86580944D01*
X65497737Y-86411426D01*
X65353574Y-86267263D01*
X65184056Y-86153995D01*
X64995698Y-86075974D01*
X64795739Y-86036200D01*
X64591861Y-86036200D01*
X64391902Y-86075974D01*
X64203544Y-86153995D01*
X64034026Y-86267263D01*
X63889863Y-86411426D01*
X63776595Y-86580944D01*
X63698574Y-86769302D01*
X63658800Y-86969261D01*
X51596788Y-86969261D01*
X51376411Y-86822010D01*
X51106158Y-86710068D01*
X50819260Y-86653000D01*
X50526740Y-86653000D01*
X50239842Y-86710068D01*
X49969589Y-86822010D01*
X49726368Y-86984525D01*
X49519525Y-87191368D01*
X49357010Y-87434589D01*
X49245068Y-87704842D01*
X49188000Y-87991740D01*
X49188000Y-88284260D01*
X49245068Y-88571158D01*
X49357010Y-88841411D01*
X49519525Y-89084632D01*
X49726368Y-89291475D01*
X49900760Y-89408000D01*
X49726368Y-89524525D01*
X49519525Y-89731368D01*
X49357010Y-89974589D01*
X49245068Y-90244842D01*
X49188000Y-90531740D01*
X49188000Y-90824260D01*
X49245068Y-91111158D01*
X49357010Y-91381411D01*
X49519525Y-91624632D01*
X49651380Y-91756487D01*
X49578820Y-91778498D01*
X49468506Y-91837463D01*
X49371815Y-91916815D01*
X49292463Y-92013506D01*
X49233498Y-92123820D01*
X49197188Y-92243518D01*
X49184928Y-92368000D01*
X45660000Y-92368000D01*
X45660000Y-82570263D01*
X75934322Y-82570263D01*
X75934322Y-82774141D01*
X75974096Y-82974100D01*
X76052117Y-83162458D01*
X76165385Y-83331976D01*
X76309548Y-83476139D01*
X76479066Y-83589407D01*
X76667424Y-83667428D01*
X76867383Y-83707202D01*
X77071261Y-83707202D01*
X77271220Y-83667428D01*
X77459578Y-83589407D01*
X77629096Y-83476139D01*
X77712562Y-83392673D01*
X77800826Y-83480937D01*
X77970344Y-83594205D01*
X78158702Y-83672226D01*
X78358661Y-83712000D01*
X78562539Y-83712000D01*
X78762498Y-83672226D01*
X78950856Y-83594205D01*
X78960602Y-83587693D01*
X78970347Y-83594205D01*
X79158705Y-83672226D01*
X79358664Y-83712000D01*
X79562542Y-83712000D01*
X79762501Y-83672226D01*
X79950859Y-83594205D01*
X80120377Y-83480937D01*
X80264540Y-83336774D01*
X80377808Y-83167256D01*
X80455829Y-82978898D01*
X80495603Y-82778939D01*
X80495603Y-82575061D01*
X80455829Y-82375102D01*
X80377808Y-82186744D01*
X80264540Y-82017226D01*
X80120377Y-81873063D01*
X79950859Y-81759795D01*
X79762501Y-81681774D01*
X79562542Y-81642000D01*
X79358664Y-81642000D01*
X79158705Y-81681774D01*
X78970347Y-81759795D01*
X78960602Y-81766307D01*
X78950856Y-81759795D01*
X78762498Y-81681774D01*
X78562539Y-81642000D01*
X78358661Y-81642000D01*
X78158702Y-81681774D01*
X77970344Y-81759795D01*
X77800826Y-81873063D01*
X77717360Y-81956529D01*
X77629096Y-81868265D01*
X77459578Y-81754997D01*
X77271220Y-81676976D01*
X77071261Y-81637202D01*
X76867383Y-81637202D01*
X76667424Y-81676976D01*
X76479066Y-81754997D01*
X76309548Y-81868265D01*
X76165385Y-82012428D01*
X76052117Y-82181946D01*
X75974096Y-82370304D01*
X75934322Y-82570263D01*
X45660000Y-82570263D01*
X45660000Y-80925690D01*
X49180724Y-80925690D01*
X49225375Y-81072899D01*
X49350559Y-81335720D01*
X49524612Y-81569069D01*
X49740845Y-81763978D01*
X49990948Y-81912957D01*
X50265309Y-82010281D01*
X50495200Y-81889614D01*
X50495200Y-80695800D01*
X50749200Y-80695800D01*
X50749200Y-81889614D01*
X50979091Y-82010281D01*
X51253452Y-81912957D01*
X51503555Y-81763978D01*
X51719788Y-81569069D01*
X51893841Y-81335720D01*
X52019025Y-81072899D01*
X52063676Y-80925690D01*
X51942355Y-80695800D01*
X50749200Y-80695800D01*
X50495200Y-80695800D01*
X49302045Y-80695800D01*
X49180724Y-80925690D01*
X45660000Y-80925690D01*
X45660000Y-74638800D01*
X49134128Y-74638800D01*
X49134128Y-76338800D01*
X49146388Y-76463282D01*
X49182698Y-76582980D01*
X49241663Y-76693294D01*
X49321015Y-76789985D01*
X49417706Y-76869337D01*
X49528020Y-76928302D01*
X49600580Y-76950313D01*
X49468725Y-77082168D01*
X49306210Y-77325389D01*
X49194268Y-77595642D01*
X49137200Y-77882540D01*
X49137200Y-78175060D01*
X49194268Y-78461958D01*
X49306210Y-78732211D01*
X49468725Y-78975432D01*
X49675568Y-79182275D01*
X49857734Y-79303995D01*
X49740845Y-79373622D01*
X49524612Y-79568531D01*
X49350559Y-79801880D01*
X49225375Y-80064701D01*
X49180724Y-80211910D01*
X49302045Y-80441800D01*
X50495200Y-80441800D01*
X50495200Y-80421800D01*
X50749200Y-80421800D01*
X50749200Y-80441800D01*
X51942355Y-80441800D01*
X52063676Y-80211910D01*
X52019025Y-80064701D01*
X51893841Y-79801880D01*
X51719788Y-79568531D01*
X51503555Y-79373622D01*
X51386666Y-79303995D01*
X51568832Y-79182275D01*
X51775675Y-78975432D01*
X51938190Y-78732211D01*
X52050132Y-78461958D01*
X52107200Y-78175060D01*
X52107200Y-77882540D01*
X52050132Y-77595642D01*
X51938190Y-77325389D01*
X51775675Y-77082168D01*
X51643820Y-76950313D01*
X51716380Y-76928302D01*
X51826694Y-76869337D01*
X51923385Y-76789985D01*
X52002737Y-76693294D01*
X52061702Y-76582980D01*
X52080531Y-76520910D01*
X52095061Y-76523800D01*
X52298939Y-76523800D01*
X52498898Y-76484026D01*
X52687256Y-76406005D01*
X52856774Y-76292737D01*
X53000937Y-76148574D01*
X53114205Y-75979056D01*
X53192226Y-75790698D01*
X53232000Y-75590739D01*
X53232000Y-75386861D01*
X53192226Y-75186902D01*
X53114205Y-74998544D01*
X53000937Y-74829026D01*
X52856774Y-74684863D01*
X52687256Y-74571595D01*
X52498898Y-74493574D01*
X52298939Y-74453800D01*
X52095061Y-74453800D01*
X52080531Y-74456690D01*
X52061702Y-74394620D01*
X52002737Y-74284306D01*
X51923385Y-74187615D01*
X51826694Y-74108263D01*
X51716380Y-74049298D01*
X51596682Y-74012988D01*
X51472200Y-74000728D01*
X49772200Y-74000728D01*
X49647718Y-74012988D01*
X49528020Y-74049298D01*
X49417706Y-74108263D01*
X49321015Y-74187615D01*
X49241663Y-74284306D01*
X49182698Y-74394620D01*
X49146388Y-74514318D01*
X49134128Y-74638800D01*
X45660000Y-74638800D01*
X45660000Y-72955000D01*
X65068000Y-72955000D01*
X65068000Y-79622500D01*
X65070440Y-79647276D01*
X65077667Y-79671101D01*
X65089403Y-79693057D01*
X65105197Y-79712303D01*
X65124443Y-79728097D01*
X65146399Y-79739833D01*
X65170224Y-79747060D01*
X65195000Y-79749500D01*
X66137539Y-79749500D01*
X66104774Y-79828602D01*
X66065000Y-80028561D01*
X66065000Y-80232439D01*
X66104774Y-80432398D01*
X66182795Y-80620756D01*
X66296063Y-80790274D01*
X66440226Y-80934437D01*
X66609744Y-81047705D01*
X66798102Y-81125726D01*
X66998061Y-81165500D01*
X67201939Y-81165500D01*
X67401898Y-81125726D01*
X67590256Y-81047705D01*
X67759774Y-80934437D01*
X67903937Y-80790274D01*
X68017205Y-80620756D01*
X68095226Y-80432398D01*
X68135000Y-80232439D01*
X68135000Y-80028561D01*
X68095226Y-79828602D01*
X68062461Y-79749500D01*
X68243000Y-79749500D01*
X68267776Y-79747060D01*
X68291601Y-79739833D01*
X68313557Y-79728097D01*
X68332803Y-79712303D01*
X68348597Y-79693057D01*
X68360333Y-79671101D01*
X68367560Y-79647276D01*
X68370000Y-79622500D01*
X68370000Y-78733500D01*
X69068500Y-78733500D01*
X69093276Y-78731060D01*
X69117101Y-78723833D01*
X69139057Y-78712097D01*
X69158303Y-78696303D01*
X69174097Y-78677057D01*
X69185833Y-78655101D01*
X69193060Y-78631276D01*
X69195500Y-78606500D01*
X69195500Y-78162000D01*
X69613225Y-78162000D01*
X69571226Y-78190063D01*
X69427063Y-78334226D01*
X69313795Y-78503744D01*
X69235774Y-78692102D01*
X69196000Y-78892061D01*
X69196000Y-79095939D01*
X69235774Y-79295898D01*
X69313795Y-79484256D01*
X69427063Y-79653774D01*
X69571226Y-79797937D01*
X69740744Y-79911205D01*
X69929102Y-79989226D01*
X70129061Y-80029000D01*
X70332939Y-80029000D01*
X70532898Y-79989226D01*
X70721256Y-79911205D01*
X70890774Y-79797937D01*
X71034937Y-79653774D01*
X71148205Y-79484256D01*
X71226226Y-79295898D01*
X71266000Y-79095939D01*
X71266000Y-78892061D01*
X71226226Y-78692102D01*
X71148205Y-78503744D01*
X71034937Y-78334226D01*
X70890774Y-78190063D01*
X70848775Y-78162000D01*
X70973500Y-78162000D01*
X70998276Y-78159560D01*
X71022101Y-78152333D01*
X71044057Y-78140597D01*
X71063303Y-78124803D01*
X71079097Y-78105557D01*
X71090833Y-78083601D01*
X71098060Y-78059776D01*
X71100500Y-78035000D01*
X71100500Y-77781000D01*
X72447200Y-77781000D01*
X72447200Y-77952939D01*
X72486974Y-78152898D01*
X72564995Y-78341256D01*
X72678263Y-78510774D01*
X72822426Y-78654937D01*
X72991944Y-78768205D01*
X73124011Y-78822909D01*
X73053302Y-78836974D01*
X72864944Y-78914995D01*
X72695426Y-79028263D01*
X72551263Y-79172426D01*
X72437995Y-79341944D01*
X72359974Y-79530302D01*
X72320200Y-79730261D01*
X72320200Y-79934139D01*
X72359974Y-80134098D01*
X72437995Y-80322456D01*
X72551263Y-80491974D01*
X72666189Y-80606900D01*
X72525863Y-80747226D01*
X72412595Y-80916744D01*
X72334574Y-81105102D01*
X72294800Y-81305061D01*
X72294800Y-81508939D01*
X72334574Y-81708898D01*
X72412595Y-81897256D01*
X72525863Y-82066774D01*
X72670026Y-82210937D01*
X72839544Y-82324205D01*
X73027902Y-82402226D01*
X73227861Y-82442000D01*
X73431739Y-82442000D01*
X73631698Y-82402226D01*
X73820056Y-82324205D01*
X73989574Y-82210937D01*
X74133737Y-82066774D01*
X74247005Y-81897256D01*
X74270815Y-81839773D01*
X74380063Y-82003274D01*
X74524226Y-82147437D01*
X74693744Y-82260705D01*
X74882102Y-82338726D01*
X75082061Y-82378500D01*
X75285939Y-82378500D01*
X75485898Y-82338726D01*
X75674256Y-82260705D01*
X75843774Y-82147437D01*
X75987937Y-82003274D01*
X76101205Y-81833756D01*
X76179226Y-81645398D01*
X76219000Y-81445439D01*
X76219000Y-81241561D01*
X76179226Y-81041602D01*
X76101205Y-80853244D01*
X75987937Y-80683726D01*
X75843774Y-80539563D01*
X75674256Y-80426295D01*
X75485898Y-80348274D01*
X75285939Y-80308500D01*
X75082061Y-80308500D01*
X74882102Y-80348274D01*
X74693744Y-80426295D01*
X74524226Y-80539563D01*
X74380063Y-80683726D01*
X74266795Y-80853244D01*
X74242985Y-80910727D01*
X74133737Y-80747226D01*
X74018811Y-80632300D01*
X74159137Y-80491974D01*
X74272405Y-80322456D01*
X74350426Y-80134098D01*
X74390200Y-79934139D01*
X74390200Y-79730261D01*
X74350426Y-79530302D01*
X74272405Y-79341944D01*
X74226379Y-79273061D01*
X80905400Y-79273061D01*
X80905400Y-79476939D01*
X80945174Y-79676898D01*
X81023195Y-79865256D01*
X81136463Y-80034774D01*
X81280626Y-80178937D01*
X81450144Y-80292205D01*
X81638502Y-80370226D01*
X81838461Y-80410000D01*
X82042339Y-80410000D01*
X82242298Y-80370226D01*
X82430656Y-80292205D01*
X82600174Y-80178937D01*
X82744337Y-80034774D01*
X82857605Y-79865256D01*
X82935626Y-79676898D01*
X82975400Y-79476939D01*
X82975400Y-79273061D01*
X92843400Y-79273061D01*
X92843400Y-79476939D01*
X92883174Y-79676898D01*
X92961195Y-79865256D01*
X93074463Y-80034774D01*
X93218626Y-80178937D01*
X93388144Y-80292205D01*
X93576502Y-80370226D01*
X93776461Y-80410000D01*
X93980339Y-80410000D01*
X94180298Y-80370226D01*
X94289965Y-80324800D01*
X133910667Y-80324800D01*
X133933547Y-80557100D01*
X134001306Y-80780474D01*
X134111342Y-80986336D01*
X134259425Y-81166775D01*
X134439864Y-81314858D01*
X134645726Y-81424894D01*
X134869100Y-81492653D01*
X135043193Y-81509800D01*
X135559607Y-81509800D01*
X135733700Y-81492653D01*
X135957074Y-81424894D01*
X136162936Y-81314858D01*
X136343375Y-81166775D01*
X136491458Y-80986336D01*
X136601494Y-80780474D01*
X136669253Y-80557100D01*
X136692133Y-80324800D01*
X136669253Y-80092500D01*
X136601494Y-79869126D01*
X136491458Y-79663264D01*
X136343375Y-79482825D01*
X136162936Y-79334742D01*
X135957074Y-79224706D01*
X135733700Y-79156947D01*
X135559607Y-79139800D01*
X135043193Y-79139800D01*
X134869100Y-79156947D01*
X134645726Y-79224706D01*
X134439864Y-79334742D01*
X134259425Y-79482825D01*
X134111342Y-79663264D01*
X134001306Y-79869126D01*
X133933547Y-80092500D01*
X133910667Y-80324800D01*
X94289965Y-80324800D01*
X94368656Y-80292205D01*
X94538174Y-80178937D01*
X94682337Y-80034774D01*
X94795605Y-79865256D01*
X94873626Y-79676898D01*
X94913400Y-79476939D01*
X94913400Y-79273061D01*
X94873626Y-79073102D01*
X94795605Y-78884744D01*
X94682337Y-78715226D01*
X94538174Y-78571063D01*
X94368656Y-78457795D01*
X94180298Y-78379774D01*
X93980339Y-78340000D01*
X93776461Y-78340000D01*
X93576502Y-78379774D01*
X93388144Y-78457795D01*
X93218626Y-78571063D01*
X93074463Y-78715226D01*
X92961195Y-78884744D01*
X92883174Y-79073102D01*
X92843400Y-79273061D01*
X82975400Y-79273061D01*
X82935626Y-79073102D01*
X82857605Y-78884744D01*
X82744337Y-78715226D01*
X82600174Y-78571063D01*
X82430656Y-78457795D01*
X82242298Y-78379774D01*
X82042339Y-78340000D01*
X81838461Y-78340000D01*
X81638502Y-78379774D01*
X81450144Y-78457795D01*
X81280626Y-78571063D01*
X81136463Y-78715226D01*
X81023195Y-78884744D01*
X80945174Y-79073102D01*
X80905400Y-79273061D01*
X74226379Y-79273061D01*
X74159137Y-79172426D01*
X74014974Y-79028263D01*
X73845456Y-78914995D01*
X73713389Y-78860291D01*
X73784098Y-78846226D01*
X73972456Y-78768205D01*
X74141974Y-78654937D01*
X74286137Y-78510774D01*
X74399405Y-78341256D01*
X74477426Y-78152898D01*
X74517200Y-77952939D01*
X74517200Y-77749061D01*
X74477426Y-77549102D01*
X74399405Y-77360744D01*
X74286137Y-77191226D01*
X74141974Y-77047063D01*
X73972456Y-76933795D01*
X73784098Y-76855774D01*
X73584139Y-76816000D01*
X73380261Y-76816000D01*
X73180302Y-76855774D01*
X73132500Y-76875574D01*
X73132500Y-76638000D01*
X73130060Y-76613224D01*
X73122833Y-76589399D01*
X73111097Y-76567443D01*
X73095303Y-76548197D01*
X73076057Y-76532403D01*
X73054101Y-76520667D01*
X73030276Y-76513440D01*
X73005500Y-76511000D01*
X71320980Y-76511000D01*
X71133801Y-76417410D01*
X71269437Y-76281774D01*
X71382705Y-76112256D01*
X71460726Y-75923898D01*
X71500500Y-75723939D01*
X71500500Y-75710561D01*
X80924000Y-75710561D01*
X80924000Y-75914439D01*
X80963774Y-76114398D01*
X81041795Y-76302756D01*
X81155063Y-76472274D01*
X81299226Y-76616437D01*
X81468744Y-76729705D01*
X81657102Y-76807726D01*
X81857061Y-76847500D01*
X82060939Y-76847500D01*
X82260898Y-76807726D01*
X82449256Y-76729705D01*
X82618774Y-76616437D01*
X82762937Y-76472274D01*
X82876205Y-76302756D01*
X82954226Y-76114398D01*
X82994000Y-75914439D01*
X82994000Y-75710561D01*
X82954226Y-75510602D01*
X82943539Y-75484800D01*
X133910667Y-75484800D01*
X133933547Y-75717100D01*
X134001306Y-75940474D01*
X134111342Y-76146336D01*
X134259425Y-76326775D01*
X134439864Y-76474858D01*
X134645726Y-76584894D01*
X134869100Y-76652653D01*
X135043193Y-76669800D01*
X135559607Y-76669800D01*
X135733700Y-76652653D01*
X135957074Y-76584894D01*
X136162936Y-76474858D01*
X136343375Y-76326775D01*
X136491458Y-76146336D01*
X136601494Y-75940474D01*
X136669253Y-75717100D01*
X136692133Y-75484800D01*
X136669253Y-75252500D01*
X136601494Y-75029126D01*
X136491458Y-74823264D01*
X136343375Y-74642825D01*
X136162936Y-74494742D01*
X135957074Y-74384706D01*
X135733700Y-74316947D01*
X135559607Y-74299800D01*
X135043193Y-74299800D01*
X134869100Y-74316947D01*
X134645726Y-74384706D01*
X134439864Y-74494742D01*
X134259425Y-74642825D01*
X134111342Y-74823264D01*
X134001306Y-75029126D01*
X133933547Y-75252500D01*
X133910667Y-75484800D01*
X82943539Y-75484800D01*
X82876205Y-75322244D01*
X82762937Y-75152726D01*
X82618774Y-75008563D01*
X82449256Y-74895295D01*
X82260898Y-74817274D01*
X82060939Y-74777500D01*
X81857061Y-74777500D01*
X81657102Y-74817274D01*
X81468744Y-74895295D01*
X81299226Y-75008563D01*
X81155063Y-75152726D01*
X81041795Y-75322244D01*
X80963774Y-75510602D01*
X80924000Y-75710561D01*
X71500500Y-75710561D01*
X71500500Y-75520061D01*
X71460726Y-75320102D01*
X71382705Y-75131744D01*
X71269437Y-74962226D01*
X71125274Y-74818063D01*
X70955756Y-74704795D01*
X70767398Y-74626774D01*
X70567439Y-74587000D01*
X70363561Y-74587000D01*
X70163602Y-74626774D01*
X69975244Y-74704795D01*
X69805726Y-74818063D01*
X69661563Y-74962226D01*
X69548295Y-75131744D01*
X69470274Y-75320102D01*
X69430500Y-75520061D01*
X69430500Y-75723939D01*
X69460747Y-75876000D01*
X69322500Y-75876000D01*
X69322500Y-74497861D01*
X72701200Y-74497861D01*
X72701200Y-74701739D01*
X72740974Y-74901698D01*
X72818995Y-75090056D01*
X72932263Y-75259574D01*
X73076426Y-75403737D01*
X73245944Y-75517005D01*
X73434302Y-75595026D01*
X73634261Y-75634800D01*
X73838139Y-75634800D01*
X74038098Y-75595026D01*
X74226456Y-75517005D01*
X74395974Y-75403737D01*
X74540137Y-75259574D01*
X74653405Y-75090056D01*
X74731426Y-74901698D01*
X74771200Y-74701739D01*
X74771200Y-74497861D01*
X74731426Y-74297902D01*
X74688000Y-74193061D01*
X77400200Y-74193061D01*
X77400200Y-74396939D01*
X77439974Y-74596898D01*
X77517995Y-74785256D01*
X77631263Y-74954774D01*
X77775426Y-75098937D01*
X77944944Y-75212205D01*
X78133302Y-75290226D01*
X78333261Y-75330000D01*
X78537139Y-75330000D01*
X78737098Y-75290226D01*
X78925456Y-75212205D01*
X79094974Y-75098937D01*
X79239137Y-74954774D01*
X79352405Y-74785256D01*
X79430426Y-74596898D01*
X79470200Y-74396939D01*
X79470200Y-74193061D01*
X79430426Y-73993102D01*
X79352744Y-73805561D01*
X83972000Y-73805561D01*
X83972000Y-74009439D01*
X84011774Y-74209398D01*
X84089795Y-74397756D01*
X84203063Y-74567274D01*
X84347226Y-74711437D01*
X84516744Y-74824705D01*
X84705102Y-74902726D01*
X84905061Y-74942500D01*
X85108939Y-74942500D01*
X85308898Y-74902726D01*
X85497256Y-74824705D01*
X85666774Y-74711437D01*
X85810937Y-74567274D01*
X85924205Y-74397756D01*
X86002226Y-74209398D01*
X86042000Y-74009439D01*
X86042000Y-73805561D01*
X86002226Y-73605602D01*
X85924205Y-73417244D01*
X85810937Y-73247726D01*
X85666774Y-73103563D01*
X85497256Y-72990295D01*
X85308898Y-72912274D01*
X85108939Y-72872500D01*
X84905061Y-72872500D01*
X84705102Y-72912274D01*
X84516744Y-72990295D01*
X84347226Y-73103563D01*
X84203063Y-73247726D01*
X84089795Y-73417244D01*
X84011774Y-73605602D01*
X83972000Y-73805561D01*
X79352744Y-73805561D01*
X79352405Y-73804744D01*
X79239137Y-73635226D01*
X79094974Y-73491063D01*
X78925456Y-73377795D01*
X78737098Y-73299774D01*
X78537139Y-73260000D01*
X78333261Y-73260000D01*
X78133302Y-73299774D01*
X77944944Y-73377795D01*
X77775426Y-73491063D01*
X77631263Y-73635226D01*
X77517995Y-73804744D01*
X77439974Y-73993102D01*
X77400200Y-74193061D01*
X74688000Y-74193061D01*
X74653405Y-74109544D01*
X74540137Y-73940026D01*
X74395974Y-73795863D01*
X74226456Y-73682595D01*
X74038098Y-73604574D01*
X73838139Y-73564800D01*
X73634261Y-73564800D01*
X73434302Y-73604574D01*
X73245944Y-73682595D01*
X73076426Y-73795863D01*
X72932263Y-73940026D01*
X72818995Y-74109544D01*
X72740974Y-74297902D01*
X72701200Y-74497861D01*
X69322500Y-74497861D01*
X69322500Y-73907500D01*
X69320060Y-73882724D01*
X69312833Y-73858899D01*
X69301097Y-73836943D01*
X69285303Y-73817697D01*
X69266057Y-73801903D01*
X69244101Y-73790167D01*
X69220276Y-73782940D01*
X69195500Y-73780500D01*
X68941500Y-73780500D01*
X68941500Y-73699983D01*
X69040102Y-73740826D01*
X69240061Y-73780600D01*
X69443939Y-73780600D01*
X69643898Y-73740826D01*
X69832256Y-73662805D01*
X70001774Y-73549537D01*
X70145937Y-73405374D01*
X70259205Y-73235856D01*
X70337226Y-73047498D01*
X70377000Y-72847539D01*
X70377000Y-72643661D01*
X70337226Y-72443702D01*
X70259205Y-72255344D01*
X70145937Y-72085826D01*
X70087672Y-72027561D01*
X70446500Y-72027561D01*
X70446500Y-72231439D01*
X70486274Y-72431398D01*
X70532191Y-72542250D01*
X70486274Y-72653102D01*
X70446500Y-72853061D01*
X70446500Y-73056939D01*
X70486274Y-73256898D01*
X70564295Y-73445256D01*
X70677563Y-73614774D01*
X70821726Y-73758937D01*
X70991244Y-73872205D01*
X71179602Y-73950226D01*
X71379561Y-73990000D01*
X71583439Y-73990000D01*
X71783398Y-73950226D01*
X71971756Y-73872205D01*
X72141274Y-73758937D01*
X72285437Y-73614774D01*
X72398705Y-73445256D01*
X72476726Y-73256898D01*
X72516500Y-73056939D01*
X72516500Y-72853061D01*
X72476726Y-72653102D01*
X72430809Y-72542250D01*
X72476726Y-72431398D01*
X72516500Y-72231439D01*
X72516500Y-72027561D01*
X72476726Y-71827602D01*
X72398705Y-71639244D01*
X72285437Y-71469726D01*
X72141274Y-71325563D01*
X72099217Y-71297461D01*
X77185000Y-71297461D01*
X77185000Y-71501339D01*
X77224774Y-71701298D01*
X77302795Y-71889656D01*
X77416063Y-72059174D01*
X77560226Y-72203337D01*
X77729744Y-72316605D01*
X77918102Y-72394626D01*
X78118061Y-72434400D01*
X78321939Y-72434400D01*
X78521898Y-72394626D01*
X78710256Y-72316605D01*
X78879774Y-72203337D01*
X79023937Y-72059174D01*
X79137205Y-71889656D01*
X79215226Y-71701298D01*
X79255000Y-71501339D01*
X79255000Y-71297461D01*
X79215226Y-71097502D01*
X79137205Y-70909144D01*
X79023937Y-70739626D01*
X78879774Y-70595463D01*
X78710256Y-70482195D01*
X78521898Y-70404174D01*
X78321939Y-70364400D01*
X78118061Y-70364400D01*
X77918102Y-70404174D01*
X77729744Y-70482195D01*
X77560226Y-70595463D01*
X77416063Y-70739626D01*
X77302795Y-70909144D01*
X77224774Y-71097502D01*
X77185000Y-71297461D01*
X72099217Y-71297461D01*
X71971756Y-71212295D01*
X71783398Y-71134274D01*
X71583439Y-71094500D01*
X71379561Y-71094500D01*
X71179602Y-71134274D01*
X70991244Y-71212295D01*
X70821726Y-71325563D01*
X70677563Y-71469726D01*
X70564295Y-71639244D01*
X70486274Y-71827602D01*
X70446500Y-72027561D01*
X70087672Y-72027561D01*
X70001774Y-71941663D01*
X69832256Y-71828395D01*
X69643898Y-71750374D01*
X69443939Y-71710600D01*
X69240061Y-71710600D01*
X69040102Y-71750374D01*
X68851744Y-71828395D01*
X68682226Y-71941663D01*
X68538063Y-72085826D01*
X68424795Y-72255344D01*
X68346774Y-72443702D01*
X68307000Y-72643661D01*
X68307000Y-72828000D01*
X65195000Y-72828000D01*
X65170224Y-72830440D01*
X65146399Y-72837667D01*
X65124443Y-72849403D01*
X65105197Y-72865197D01*
X65089403Y-72884443D01*
X65077667Y-72906399D01*
X65070440Y-72930224D01*
X65068000Y-72955000D01*
X45660000Y-72955000D01*
X45660000Y-70319561D01*
X60433000Y-70319561D01*
X60433000Y-70523439D01*
X60472774Y-70723398D01*
X60550795Y-70911756D01*
X60664063Y-71081274D01*
X60808226Y-71225437D01*
X60977744Y-71338705D01*
X61166102Y-71416726D01*
X61366061Y-71456500D01*
X61569939Y-71456500D01*
X61769898Y-71416726D01*
X61958256Y-71338705D01*
X62127774Y-71225437D01*
X62271937Y-71081274D01*
X62385205Y-70911756D01*
X62463226Y-70723398D01*
X62503000Y-70523439D01*
X62503000Y-70319561D01*
X62463226Y-70119602D01*
X62385205Y-69931244D01*
X62271937Y-69761726D01*
X62127774Y-69617563D01*
X61958256Y-69504295D01*
X61769898Y-69426274D01*
X61569939Y-69386500D01*
X61366061Y-69386500D01*
X61166102Y-69426274D01*
X60977744Y-69504295D01*
X60808226Y-69617563D01*
X60664063Y-69761726D01*
X60550795Y-69931244D01*
X60472774Y-70119602D01*
X60433000Y-70319561D01*
X45660000Y-70319561D01*
X45660000Y-69113061D01*
X64370000Y-69113061D01*
X64370000Y-69316939D01*
X64409774Y-69516898D01*
X64487795Y-69705256D01*
X64601063Y-69874774D01*
X64745226Y-70018937D01*
X64914744Y-70132205D01*
X65103102Y-70210226D01*
X65303061Y-70250000D01*
X65506939Y-70250000D01*
X65706898Y-70210226D01*
X65895256Y-70132205D01*
X66064774Y-70018937D01*
X66107172Y-69976539D01*
X66083000Y-70098061D01*
X66083000Y-70301939D01*
X66122774Y-70501898D01*
X66200795Y-70690256D01*
X66314063Y-70859774D01*
X66458226Y-71003937D01*
X66627744Y-71117205D01*
X66816102Y-71195226D01*
X67016061Y-71235000D01*
X67219939Y-71235000D01*
X67419898Y-71195226D01*
X67608256Y-71117205D01*
X67777774Y-71003937D01*
X67921937Y-70859774D01*
X68035205Y-70690256D01*
X68113226Y-70501898D01*
X68153000Y-70301939D01*
X68153000Y-70098061D01*
X68113226Y-69898102D01*
X68035205Y-69709744D01*
X67921937Y-69540226D01*
X67777774Y-69396063D01*
X67608256Y-69282795D01*
X67419898Y-69204774D01*
X67219939Y-69165000D01*
X67016061Y-69165000D01*
X66816102Y-69204774D01*
X66627744Y-69282795D01*
X66458226Y-69396063D01*
X66415828Y-69438461D01*
X66440000Y-69316939D01*
X66440000Y-69113061D01*
X66419784Y-69011427D01*
X71776665Y-69011427D01*
X71776665Y-69215305D01*
X71816439Y-69415264D01*
X71894460Y-69603622D01*
X72007728Y-69773140D01*
X72151891Y-69917303D01*
X72321409Y-70030571D01*
X72509767Y-70108592D01*
X72709726Y-70148366D01*
X72913604Y-70148366D01*
X73113563Y-70108592D01*
X73301921Y-70030571D01*
X73471439Y-69917303D01*
X73615602Y-69773140D01*
X73728870Y-69603622D01*
X73806891Y-69415264D01*
X73846665Y-69215305D01*
X73846665Y-69145545D01*
X74534097Y-69145545D01*
X74534097Y-69349423D01*
X74573871Y-69549382D01*
X74651892Y-69737740D01*
X74765160Y-69907258D01*
X74909323Y-70051421D01*
X75078841Y-70164689D01*
X75267199Y-70242710D01*
X75467158Y-70282484D01*
X75671036Y-70282484D01*
X75870995Y-70242710D01*
X76059353Y-70164689D01*
X76228871Y-70051421D01*
X76373034Y-69907258D01*
X76390404Y-69881261D01*
X80085800Y-69881261D01*
X80085800Y-70085139D01*
X80125574Y-70285098D01*
X80203595Y-70473456D01*
X80233751Y-70518588D01*
X80210395Y-70553544D01*
X80132374Y-70741902D01*
X80092600Y-70941861D01*
X80092600Y-71145739D01*
X80132374Y-71345698D01*
X80210395Y-71534056D01*
X80323663Y-71703574D01*
X80467826Y-71847737D01*
X80637344Y-71961005D01*
X80825702Y-72039026D01*
X81025661Y-72078800D01*
X81229539Y-72078800D01*
X81429498Y-72039026D01*
X81617856Y-71961005D01*
X81787374Y-71847737D01*
X81931537Y-71703574D01*
X82044805Y-71534056D01*
X82080345Y-71448256D01*
X82144226Y-71512137D01*
X82313744Y-71625405D01*
X82502102Y-71703426D01*
X82702061Y-71743200D01*
X82905939Y-71743200D01*
X83105898Y-71703426D01*
X83294256Y-71625405D01*
X83463774Y-71512137D01*
X83607937Y-71367974D01*
X83721205Y-71198456D01*
X83799226Y-71010098D01*
X83839000Y-70810139D01*
X83839000Y-70606261D01*
X83799226Y-70406302D01*
X83721205Y-70217944D01*
X83607937Y-70048426D01*
X83463774Y-69904263D01*
X83294256Y-69790995D01*
X83105898Y-69712974D01*
X82905939Y-69673200D01*
X82702061Y-69673200D01*
X82502102Y-69712974D01*
X82313744Y-69790995D01*
X82155800Y-69896530D01*
X82155800Y-69881261D01*
X82116026Y-69681302D01*
X82038005Y-69492944D01*
X81924737Y-69323426D01*
X81780574Y-69179263D01*
X81611056Y-69065995D01*
X81422698Y-68987974D01*
X81222739Y-68948200D01*
X81018861Y-68948200D01*
X80818902Y-68987974D01*
X80630544Y-69065995D01*
X80461026Y-69179263D01*
X80316863Y-69323426D01*
X80203595Y-69492944D01*
X80125574Y-69681302D01*
X80085800Y-69881261D01*
X76390404Y-69881261D01*
X76486302Y-69737740D01*
X76564323Y-69549382D01*
X76604097Y-69349423D01*
X76604097Y-69145545D01*
X76564323Y-68945586D01*
X76486302Y-68757228D01*
X76373034Y-68587710D01*
X76228871Y-68443547D01*
X76059353Y-68330279D01*
X75870995Y-68252258D01*
X75671036Y-68212484D01*
X75467158Y-68212484D01*
X75267199Y-68252258D01*
X75078841Y-68330279D01*
X74909323Y-68443547D01*
X74765160Y-68587710D01*
X74651892Y-68757228D01*
X74573871Y-68945586D01*
X74534097Y-69145545D01*
X73846665Y-69145545D01*
X73846665Y-69011427D01*
X73806891Y-68811468D01*
X73728870Y-68623110D01*
X73615602Y-68453592D01*
X73471439Y-68309429D01*
X73301921Y-68196161D01*
X73113563Y-68118140D01*
X72913604Y-68078366D01*
X72709726Y-68078366D01*
X72509767Y-68118140D01*
X72321409Y-68196161D01*
X72151891Y-68309429D01*
X72007728Y-68453592D01*
X71894460Y-68623110D01*
X71816439Y-68811468D01*
X71776665Y-69011427D01*
X66419784Y-69011427D01*
X66400226Y-68913102D01*
X66322205Y-68724744D01*
X66208937Y-68555226D01*
X66064774Y-68411063D01*
X65895256Y-68297795D01*
X65706898Y-68219774D01*
X65506939Y-68180000D01*
X65303061Y-68180000D01*
X65103102Y-68219774D01*
X64914744Y-68297795D01*
X64745226Y-68411063D01*
X64601063Y-68555226D01*
X64487795Y-68724744D01*
X64409774Y-68913102D01*
X64370000Y-69113061D01*
X45660000Y-69113061D01*
X45660000Y-67716061D01*
X59290000Y-67716061D01*
X59290000Y-67919939D01*
X59329774Y-68119898D01*
X59407795Y-68308256D01*
X59521063Y-68477774D01*
X59665226Y-68621937D01*
X59834744Y-68735205D01*
X60023102Y-68813226D01*
X60223061Y-68853000D01*
X60426939Y-68853000D01*
X60626898Y-68813226D01*
X60815256Y-68735205D01*
X60984774Y-68621937D01*
X61128937Y-68477774D01*
X61242205Y-68308256D01*
X61320226Y-68119898D01*
X61360000Y-67919939D01*
X61360000Y-67716061D01*
X61320226Y-67516102D01*
X61242205Y-67327744D01*
X61128937Y-67158226D01*
X60984774Y-67014063D01*
X60815256Y-66900795D01*
X60626898Y-66822774D01*
X60426939Y-66783000D01*
X60223061Y-66783000D01*
X60023102Y-66822774D01*
X59834744Y-66900795D01*
X59665226Y-67014063D01*
X59521063Y-67158226D01*
X59407795Y-67327744D01*
X59329774Y-67516102D01*
X59290000Y-67716061D01*
X45660000Y-67716061D01*
X45660000Y-65811061D01*
X62719000Y-65811061D01*
X62719000Y-66014939D01*
X62758774Y-66214898D01*
X62836795Y-66403256D01*
X62950063Y-66572774D01*
X63094226Y-66716937D01*
X63263744Y-66830205D01*
X63452102Y-66908226D01*
X63652061Y-66948000D01*
X63855939Y-66948000D01*
X64055898Y-66908226D01*
X64244256Y-66830205D01*
X64413774Y-66716937D01*
X64557937Y-66572774D01*
X64663317Y-66415061D01*
X66019500Y-66415061D01*
X66019500Y-66618939D01*
X66059274Y-66818898D01*
X66137295Y-67007256D01*
X66250563Y-67176774D01*
X66394726Y-67320937D01*
X66564244Y-67434205D01*
X66752602Y-67512226D01*
X66952561Y-67552000D01*
X67156439Y-67552000D01*
X67356398Y-67512226D01*
X67544756Y-67434205D01*
X67714274Y-67320937D01*
X67858437Y-67176774D01*
X67971705Y-67007256D01*
X67983218Y-66979461D01*
X77034118Y-66979461D01*
X77034118Y-67183339D01*
X77073892Y-67383298D01*
X77151913Y-67571656D01*
X77265181Y-67741174D01*
X77291904Y-67767897D01*
X77208481Y-67892749D01*
X77130460Y-68081107D01*
X77090686Y-68281066D01*
X77090686Y-68484944D01*
X77130460Y-68684903D01*
X77208481Y-68873261D01*
X77321749Y-69042779D01*
X77465912Y-69186942D01*
X77635430Y-69300210D01*
X77823788Y-69378231D01*
X78023747Y-69418005D01*
X78227625Y-69418005D01*
X78427584Y-69378231D01*
X78615942Y-69300210D01*
X78785460Y-69186942D01*
X78929623Y-69042779D01*
X79042891Y-68873261D01*
X79120912Y-68684903D01*
X79160686Y-68484944D01*
X79160686Y-68281066D01*
X79120912Y-68081107D01*
X79042891Y-67892749D01*
X78929623Y-67723231D01*
X78902900Y-67696508D01*
X78986323Y-67571656D01*
X79045388Y-67429061D01*
X82124600Y-67429061D01*
X82124600Y-67632939D01*
X82164374Y-67832898D01*
X82242395Y-68021256D01*
X82355663Y-68190774D01*
X82499826Y-68334937D01*
X82669344Y-68448205D01*
X82857702Y-68526226D01*
X83057661Y-68566000D01*
X83261539Y-68566000D01*
X83461498Y-68526226D01*
X83649856Y-68448205D01*
X83819374Y-68334937D01*
X83963537Y-68190774D01*
X84076805Y-68021256D01*
X84154826Y-67832898D01*
X84194600Y-67632939D01*
X84194600Y-67429061D01*
X84154826Y-67229102D01*
X84076805Y-67040744D01*
X83963537Y-66871226D01*
X83819374Y-66727063D01*
X83649856Y-66613795D01*
X83461498Y-66535774D01*
X83261539Y-66496000D01*
X83057661Y-66496000D01*
X82857702Y-66535774D01*
X82669344Y-66613795D01*
X82499826Y-66727063D01*
X82355663Y-66871226D01*
X82242395Y-67040744D01*
X82164374Y-67229102D01*
X82124600Y-67429061D01*
X79045388Y-67429061D01*
X79064344Y-67383298D01*
X79104118Y-67183339D01*
X79104118Y-66979461D01*
X79064344Y-66779502D01*
X78986323Y-66591144D01*
X78873055Y-66421626D01*
X78728892Y-66277463D01*
X78559374Y-66164195D01*
X78371016Y-66086174D01*
X78171057Y-66046400D01*
X77967179Y-66046400D01*
X77767220Y-66086174D01*
X77578862Y-66164195D01*
X77409344Y-66277463D01*
X77265181Y-66421626D01*
X77151913Y-66591144D01*
X77073892Y-66779502D01*
X77034118Y-66979461D01*
X67983218Y-66979461D01*
X68049726Y-66818898D01*
X68089500Y-66618939D01*
X68089500Y-66415061D01*
X68049726Y-66215102D01*
X67971705Y-66026744D01*
X67858437Y-65857226D01*
X67714274Y-65713063D01*
X67556828Y-65607861D01*
X90963800Y-65607861D01*
X90963800Y-65811739D01*
X91003574Y-66011698D01*
X91081595Y-66200056D01*
X91194863Y-66369574D01*
X91339026Y-66513737D01*
X91508544Y-66627005D01*
X91696902Y-66705026D01*
X91896861Y-66744800D01*
X92100739Y-66744800D01*
X92300698Y-66705026D01*
X92489056Y-66627005D01*
X92658574Y-66513737D01*
X92802737Y-66369574D01*
X92916005Y-66200056D01*
X92994026Y-66011698D01*
X93033800Y-65811739D01*
X93033800Y-65607861D01*
X92994026Y-65407902D01*
X92916005Y-65219544D01*
X92802737Y-65050026D01*
X92658574Y-64905863D01*
X92489056Y-64792595D01*
X92300698Y-64714574D01*
X92100739Y-64674800D01*
X91896861Y-64674800D01*
X91696902Y-64714574D01*
X91508544Y-64792595D01*
X91339026Y-64905863D01*
X91194863Y-65050026D01*
X91081595Y-65219544D01*
X91003574Y-65407902D01*
X90963800Y-65607861D01*
X67556828Y-65607861D01*
X67544756Y-65599795D01*
X67356398Y-65521774D01*
X67156439Y-65482000D01*
X66952561Y-65482000D01*
X66752602Y-65521774D01*
X66564244Y-65599795D01*
X66394726Y-65713063D01*
X66250563Y-65857226D01*
X66137295Y-66026744D01*
X66059274Y-66215102D01*
X66019500Y-66415061D01*
X64663317Y-66415061D01*
X64671205Y-66403256D01*
X64749226Y-66214898D01*
X64789000Y-66014939D01*
X64789000Y-65811061D01*
X64749226Y-65611102D01*
X64671205Y-65422744D01*
X64557937Y-65253226D01*
X64413774Y-65109063D01*
X64244256Y-64995795D01*
X64055898Y-64917774D01*
X63855939Y-64878000D01*
X63652061Y-64878000D01*
X63452102Y-64917774D01*
X63263744Y-64995795D01*
X63094226Y-65109063D01*
X62950063Y-65253226D01*
X62836795Y-65422744D01*
X62758774Y-65611102D01*
X62719000Y-65811061D01*
X45660000Y-65811061D01*
X45660000Y-62178861D01*
X82886600Y-62178861D01*
X82886600Y-62382739D01*
X82926374Y-62582698D01*
X83004395Y-62771056D01*
X83117663Y-62940574D01*
X83261826Y-63084737D01*
X83431344Y-63198005D01*
X83619702Y-63276026D01*
X83819661Y-63315800D01*
X84023539Y-63315800D01*
X84223498Y-63276026D01*
X84411856Y-63198005D01*
X84581374Y-63084737D01*
X84581738Y-63084373D01*
X84599744Y-63096405D01*
X84788102Y-63174426D01*
X84988061Y-63214200D01*
X85191939Y-63214200D01*
X85391898Y-63174426D01*
X85580256Y-63096405D01*
X85680027Y-63029740D01*
X93047000Y-63029740D01*
X93047000Y-63322260D01*
X93104068Y-63609158D01*
X93216010Y-63879411D01*
X93378525Y-64122632D01*
X93585368Y-64329475D01*
X93759760Y-64446000D01*
X93585368Y-64562525D01*
X93378525Y-64769368D01*
X93216010Y-65012589D01*
X93104068Y-65282842D01*
X93047000Y-65569740D01*
X93047000Y-65862260D01*
X93104068Y-66149158D01*
X93216010Y-66419411D01*
X93378525Y-66662632D01*
X93585368Y-66869475D01*
X93759760Y-66986000D01*
X93585368Y-67102525D01*
X93378525Y-67309368D01*
X93216010Y-67552589D01*
X93104068Y-67822842D01*
X93047000Y-68109740D01*
X93047000Y-68402260D01*
X93104068Y-68689158D01*
X93216010Y-68959411D01*
X93378525Y-69202632D01*
X93585368Y-69409475D01*
X93828589Y-69571990D01*
X94098842Y-69683932D01*
X94385740Y-69741000D01*
X94678260Y-69741000D01*
X94965158Y-69683932D01*
X95235411Y-69571990D01*
X95478632Y-69409475D01*
X95685475Y-69202632D01*
X95802000Y-69028240D01*
X95918525Y-69202632D01*
X96125368Y-69409475D01*
X96368589Y-69571990D01*
X96638842Y-69683932D01*
X96925740Y-69741000D01*
X97218260Y-69741000D01*
X97505158Y-69683932D01*
X97775411Y-69571990D01*
X98018632Y-69409475D01*
X98225475Y-69202632D01*
X98387990Y-68959411D01*
X98499932Y-68689158D01*
X98557000Y-68402260D01*
X98557000Y-68109740D01*
X98499932Y-67822842D01*
X98387990Y-67552589D01*
X98225475Y-67309368D01*
X98018632Y-67102525D01*
X97844240Y-66986000D01*
X98018632Y-66869475D01*
X98225475Y-66662632D01*
X98387990Y-66419411D01*
X98499932Y-66149158D01*
X98557000Y-65862260D01*
X98557000Y-65569740D01*
X98499932Y-65282842D01*
X98387990Y-65012589D01*
X98225475Y-64769368D01*
X98018632Y-64562525D01*
X97844240Y-64446000D01*
X98018632Y-64329475D01*
X98225475Y-64122632D01*
X98387990Y-63879411D01*
X98499932Y-63609158D01*
X98524530Y-63485496D01*
X104441000Y-63485496D01*
X104441000Y-63876506D01*
X104517282Y-64260004D01*
X104666915Y-64621251D01*
X104884149Y-64946365D01*
X105160636Y-65222852D01*
X105485750Y-65440086D01*
X105846997Y-65589719D01*
X106230495Y-65666001D01*
X106621505Y-65666001D01*
X107005003Y-65589719D01*
X107366250Y-65440086D01*
X107691364Y-65222852D01*
X107967851Y-64946365D01*
X108185085Y-64621251D01*
X108334718Y-64260004D01*
X108411000Y-63876506D01*
X108411000Y-63485496D01*
X125015000Y-63485496D01*
X125015000Y-63876506D01*
X125091282Y-64260004D01*
X125240915Y-64621251D01*
X125458149Y-64946365D01*
X125734636Y-65222852D01*
X126059750Y-65440086D01*
X126420997Y-65589719D01*
X126804495Y-65666001D01*
X127195505Y-65666001D01*
X127579003Y-65589719D01*
X127940250Y-65440086D01*
X128265364Y-65222852D01*
X128541851Y-64946365D01*
X128759085Y-64621251D01*
X128908718Y-64260004D01*
X128985000Y-63876506D01*
X128985000Y-63485496D01*
X128908718Y-63101998D01*
X128759085Y-62740751D01*
X128541851Y-62415637D01*
X128265364Y-62139150D01*
X127940250Y-61921916D01*
X127579003Y-61772283D01*
X127195505Y-61696001D01*
X126804495Y-61696001D01*
X126420997Y-61772283D01*
X126059750Y-61921916D01*
X125734636Y-62139150D01*
X125458149Y-62415637D01*
X125240915Y-62740751D01*
X125091282Y-63101998D01*
X125015000Y-63485496D01*
X108411000Y-63485496D01*
X108334718Y-63101998D01*
X108185085Y-62740751D01*
X107967851Y-62415637D01*
X107691364Y-62139150D01*
X107366250Y-61921916D01*
X107005003Y-61772283D01*
X106621505Y-61696001D01*
X106230495Y-61696001D01*
X105846997Y-61772283D01*
X105485750Y-61921916D01*
X105160636Y-62139150D01*
X104884149Y-62415637D01*
X104666915Y-62740751D01*
X104517282Y-63101998D01*
X104441000Y-63485496D01*
X98524530Y-63485496D01*
X98557000Y-63322260D01*
X98557000Y-63029740D01*
X98499932Y-62742842D01*
X98387990Y-62472589D01*
X98225475Y-62229368D01*
X98093620Y-62097513D01*
X98166180Y-62075502D01*
X98276494Y-62016537D01*
X98373185Y-61937185D01*
X98452537Y-61840494D01*
X98511502Y-61730180D01*
X98547812Y-61610482D01*
X98560072Y-61486000D01*
X98560072Y-59786000D01*
X98547812Y-59661518D01*
X98511502Y-59541820D01*
X98452537Y-59431506D01*
X98373185Y-59334815D01*
X98276494Y-59255463D01*
X98166180Y-59196498D01*
X98046482Y-59160188D01*
X97922000Y-59147928D01*
X96222000Y-59147928D01*
X96097518Y-59160188D01*
X95977820Y-59196498D01*
X95867506Y-59255463D01*
X95770815Y-59334815D01*
X95691463Y-59431506D01*
X95632498Y-59541820D01*
X95609502Y-59617626D01*
X95413355Y-59440822D01*
X95163252Y-59291843D01*
X94888891Y-59194519D01*
X94659000Y-59315186D01*
X94659000Y-60509000D01*
X94679000Y-60509000D01*
X94679000Y-60763000D01*
X94659000Y-60763000D01*
X94659000Y-60783000D01*
X94405000Y-60783000D01*
X94405000Y-60763000D01*
X93211845Y-60763000D01*
X93090524Y-60992890D01*
X93135175Y-61140099D01*
X93260359Y-61402920D01*
X93434412Y-61636269D01*
X93650645Y-61831178D01*
X93767534Y-61900805D01*
X93585368Y-62022525D01*
X93378525Y-62229368D01*
X93216010Y-62472589D01*
X93104068Y-62742842D01*
X93047000Y-63029740D01*
X85680027Y-63029740D01*
X85749774Y-62983137D01*
X85893937Y-62838974D01*
X86007205Y-62669456D01*
X86085226Y-62481098D01*
X86125000Y-62281139D01*
X86125000Y-62077261D01*
X86085226Y-61877302D01*
X86007205Y-61688944D01*
X85893937Y-61519426D01*
X85749774Y-61375263D01*
X85580256Y-61261995D01*
X85391898Y-61183974D01*
X85191939Y-61144200D01*
X84988061Y-61144200D01*
X84788102Y-61183974D01*
X84599744Y-61261995D01*
X84430226Y-61375263D01*
X84429862Y-61375627D01*
X84411856Y-61363595D01*
X84223498Y-61285574D01*
X84023539Y-61245800D01*
X83819661Y-61245800D01*
X83619702Y-61285574D01*
X83431344Y-61363595D01*
X83261826Y-61476863D01*
X83117663Y-61621026D01*
X83004395Y-61790544D01*
X82926374Y-61978902D01*
X82886600Y-62178861D01*
X45660000Y-62178861D01*
X45660000Y-60279110D01*
X93090524Y-60279110D01*
X93211845Y-60509000D01*
X94405000Y-60509000D01*
X94405000Y-59315186D01*
X94175109Y-59194519D01*
X93900748Y-59291843D01*
X93650645Y-59440822D01*
X93434412Y-59635731D01*
X93260359Y-59869080D01*
X93135175Y-60131901D01*
X93090524Y-60279110D01*
X45660000Y-60279110D01*
X45660000Y-56700881D01*
X47478724Y-56700881D01*
X47838912Y-57190548D01*
X48502882Y-57550849D01*
X49224385Y-57774694D01*
X49975695Y-57853480D01*
X50727938Y-57784178D01*
X51452208Y-57569452D01*
X52120670Y-57217555D01*
X52161088Y-57190548D01*
X52521276Y-56700881D01*
X50000000Y-54179605D01*
X47478724Y-56700881D01*
X45660000Y-56700881D01*
X45660000Y-54029392D01*
X45664792Y-53975695D01*
X46146520Y-53975695D01*
X46215822Y-54727938D01*
X46430548Y-55452208D01*
X46782445Y-56120670D01*
X46809452Y-56161088D01*
X47299119Y-56521276D01*
X49820395Y-54000000D01*
X50179605Y-54000000D01*
X52700881Y-56521276D01*
X53190548Y-56161088D01*
X53550849Y-55497118D01*
X53774694Y-54775615D01*
X53853480Y-54024305D01*
X53799497Y-53438340D01*
X57451600Y-53438340D01*
X57451600Y-53730860D01*
X57508668Y-54017758D01*
X57620610Y-54288011D01*
X57783125Y-54531232D01*
X57989968Y-54738075D01*
X58233189Y-54900590D01*
X58503442Y-55012532D01*
X58790340Y-55069600D01*
X59082860Y-55069600D01*
X59369758Y-55012532D01*
X59640011Y-54900590D01*
X59883232Y-54738075D01*
X60090075Y-54531232D01*
X60206600Y-54356840D01*
X60323125Y-54531232D01*
X60529968Y-54738075D01*
X60773189Y-54900590D01*
X61043442Y-55012532D01*
X61330340Y-55069600D01*
X61622860Y-55069600D01*
X61909758Y-55012532D01*
X62180011Y-54900590D01*
X62423232Y-54738075D01*
X62630075Y-54531232D01*
X62746600Y-54356840D01*
X62863125Y-54531232D01*
X63069968Y-54738075D01*
X63313189Y-54900590D01*
X63583442Y-55012532D01*
X63870340Y-55069600D01*
X64162860Y-55069600D01*
X64449758Y-55012532D01*
X64720011Y-54900590D01*
X64963232Y-54738075D01*
X65170075Y-54531232D01*
X65286600Y-54356840D01*
X65403125Y-54531232D01*
X65509189Y-54637296D01*
X65475600Y-54806161D01*
X65475600Y-55010039D01*
X65515374Y-55209998D01*
X65593395Y-55398356D01*
X65706663Y-55567874D01*
X65850826Y-55712037D01*
X66020344Y-55825305D01*
X66208702Y-55903326D01*
X66324720Y-55926403D01*
X66340174Y-56004098D01*
X66418195Y-56192456D01*
X66531463Y-56361974D01*
X66675626Y-56506137D01*
X66845144Y-56619405D01*
X67033502Y-56697426D01*
X67233461Y-56737200D01*
X67437339Y-56737200D01*
X67503393Y-56724061D01*
X97510200Y-56724061D01*
X97510200Y-56927939D01*
X97549974Y-57127898D01*
X97598521Y-57245100D01*
X97549974Y-57362302D01*
X97510200Y-57562261D01*
X97510200Y-57766139D01*
X97549974Y-57966098D01*
X97627995Y-58154456D01*
X97741263Y-58323974D01*
X97885426Y-58468137D01*
X98054944Y-58581405D01*
X98243302Y-58659426D01*
X98443261Y-58699200D01*
X98647139Y-58699200D01*
X98847098Y-58659426D01*
X99035456Y-58581405D01*
X99204974Y-58468137D01*
X99349137Y-58323974D01*
X99462405Y-58154456D01*
X99540426Y-57966098D01*
X99580200Y-57766139D01*
X99580200Y-57562261D01*
X99540426Y-57362302D01*
X99491879Y-57245100D01*
X99540426Y-57127898D01*
X99580200Y-56927939D01*
X99580200Y-56724061D01*
X99575590Y-56700881D01*
X132478724Y-56700881D01*
X132838912Y-57190548D01*
X133502882Y-57550849D01*
X134224385Y-57774694D01*
X134975695Y-57853480D01*
X135727938Y-57784178D01*
X136452208Y-57569452D01*
X137120670Y-57217555D01*
X137161088Y-57190548D01*
X137521276Y-56700881D01*
X135000000Y-54179605D01*
X132478724Y-56700881D01*
X99575590Y-56700881D01*
X99540426Y-56524102D01*
X99462405Y-56335744D01*
X99349137Y-56166226D01*
X99204974Y-56022063D01*
X99035456Y-55908795D01*
X98847098Y-55830774D01*
X98647139Y-55791000D01*
X98443261Y-55791000D01*
X98243302Y-55830774D01*
X98054944Y-55908795D01*
X97885426Y-56022063D01*
X97741263Y-56166226D01*
X97627995Y-56335744D01*
X97549974Y-56524102D01*
X97510200Y-56724061D01*
X67503393Y-56724061D01*
X67637298Y-56697426D01*
X67825656Y-56619405D01*
X67995174Y-56506137D01*
X68139337Y-56361974D01*
X68252605Y-56192456D01*
X68330626Y-56004098D01*
X68370400Y-55804139D01*
X68370400Y-55600261D01*
X68330626Y-55400302D01*
X68252605Y-55211944D01*
X68139337Y-55042426D01*
X67995174Y-54898263D01*
X67825656Y-54784995D01*
X67637298Y-54706974D01*
X67551416Y-54689891D01*
X67710075Y-54531232D01*
X67826600Y-54356840D01*
X67943125Y-54531232D01*
X68149968Y-54738075D01*
X68393189Y-54900590D01*
X68663442Y-55012532D01*
X68950340Y-55069600D01*
X69242860Y-55069600D01*
X69529758Y-55012532D01*
X69800011Y-54900590D01*
X70043232Y-54738075D01*
X70175087Y-54606220D01*
X70197098Y-54678780D01*
X70256063Y-54789094D01*
X70335415Y-54885785D01*
X70432106Y-54965137D01*
X70542420Y-55024102D01*
X70662118Y-55060412D01*
X70786600Y-55072672D01*
X71350850Y-55069600D01*
X71509600Y-54910850D01*
X71509600Y-53711600D01*
X71763600Y-53711600D01*
X71763600Y-54910850D01*
X71922350Y-55069600D01*
X72486600Y-55072672D01*
X72611082Y-55060412D01*
X72730780Y-55024102D01*
X72841094Y-54965137D01*
X72937785Y-54885785D01*
X73017137Y-54789094D01*
X73076102Y-54678780D01*
X73112412Y-54559082D01*
X73124672Y-54434600D01*
X73122174Y-53975695D01*
X131146520Y-53975695D01*
X131215822Y-54727938D01*
X131430548Y-55452208D01*
X131782445Y-56120670D01*
X131809452Y-56161088D01*
X132299119Y-56521276D01*
X134820395Y-54000000D01*
X135179605Y-54000000D01*
X137700881Y-56521276D01*
X138190548Y-56161088D01*
X138550849Y-55497118D01*
X138774694Y-54775615D01*
X138853480Y-54024305D01*
X138784178Y-53272062D01*
X138569452Y-52547792D01*
X138217555Y-51879330D01*
X138190548Y-51838912D01*
X137700881Y-51478724D01*
X135179605Y-54000000D01*
X134820395Y-54000000D01*
X132299119Y-51478724D01*
X131809452Y-51838912D01*
X131449151Y-52502882D01*
X131225306Y-53224385D01*
X131146520Y-53975695D01*
X73122174Y-53975695D01*
X73121600Y-53870350D01*
X72962850Y-53711600D01*
X71763600Y-53711600D01*
X71509600Y-53711600D01*
X71489600Y-53711600D01*
X71489600Y-53457600D01*
X71509600Y-53457600D01*
X71509600Y-52258350D01*
X71763600Y-52258350D01*
X71763600Y-53457600D01*
X72962850Y-53457600D01*
X73121600Y-53298850D01*
X73124672Y-52734600D01*
X73112412Y-52610118D01*
X73076102Y-52490420D01*
X73017137Y-52380106D01*
X72937785Y-52283415D01*
X72841094Y-52204063D01*
X72730780Y-52145098D01*
X72682529Y-52130461D01*
X83765000Y-52130461D01*
X83765000Y-52334339D01*
X83804774Y-52534298D01*
X83882795Y-52722656D01*
X83996063Y-52892174D01*
X84140226Y-53036337D01*
X84309744Y-53149605D01*
X84498102Y-53227626D01*
X84698061Y-53267400D01*
X84901939Y-53267400D01*
X85101898Y-53227626D01*
X85290256Y-53149605D01*
X85459774Y-53036337D01*
X85603937Y-52892174D01*
X85717205Y-52722656D01*
X85795226Y-52534298D01*
X85835000Y-52334339D01*
X85835000Y-52130461D01*
X85795226Y-51930502D01*
X85717205Y-51742144D01*
X85603937Y-51572626D01*
X85459774Y-51428463D01*
X85290256Y-51315195D01*
X85251446Y-51299119D01*
X132478724Y-51299119D01*
X135000000Y-53820395D01*
X137521276Y-51299119D01*
X137161088Y-50809452D01*
X136497118Y-50449151D01*
X135775615Y-50225306D01*
X135024305Y-50146520D01*
X134272062Y-50215822D01*
X133547792Y-50430548D01*
X132879330Y-50782445D01*
X132838912Y-50809452D01*
X132478724Y-51299119D01*
X85251446Y-51299119D01*
X85101898Y-51237174D01*
X84901939Y-51197400D01*
X84698061Y-51197400D01*
X84498102Y-51237174D01*
X84309744Y-51315195D01*
X84140226Y-51428463D01*
X83996063Y-51572626D01*
X83882795Y-51742144D01*
X83804774Y-51930502D01*
X83765000Y-52130461D01*
X72682529Y-52130461D01*
X72611082Y-52108788D01*
X72486600Y-52096528D01*
X71922350Y-52099600D01*
X71763600Y-52258350D01*
X71509600Y-52258350D01*
X71350850Y-52099600D01*
X70786600Y-52096528D01*
X70662118Y-52108788D01*
X70542420Y-52145098D01*
X70432106Y-52204063D01*
X70335415Y-52283415D01*
X70256063Y-52380106D01*
X70197098Y-52490420D01*
X70175087Y-52562980D01*
X70043232Y-52431125D01*
X69800011Y-52268610D01*
X69529758Y-52156668D01*
X69242860Y-52099600D01*
X68950340Y-52099600D01*
X68663442Y-52156668D01*
X68393189Y-52268610D01*
X68149968Y-52431125D01*
X67943125Y-52637968D01*
X67826600Y-52812360D01*
X67710075Y-52637968D01*
X67503232Y-52431125D01*
X67260011Y-52268610D01*
X66989758Y-52156668D01*
X66702860Y-52099600D01*
X66410340Y-52099600D01*
X66123442Y-52156668D01*
X65853189Y-52268610D01*
X65609968Y-52431125D01*
X65403125Y-52637968D01*
X65286600Y-52812360D01*
X65170075Y-52637968D01*
X64963232Y-52431125D01*
X64720011Y-52268610D01*
X64449758Y-52156668D01*
X64162860Y-52099600D01*
X63870340Y-52099600D01*
X63583442Y-52156668D01*
X63313189Y-52268610D01*
X63069968Y-52431125D01*
X62863125Y-52637968D01*
X62746600Y-52812360D01*
X62630075Y-52637968D01*
X62423232Y-52431125D01*
X62180011Y-52268610D01*
X61909758Y-52156668D01*
X61622860Y-52099600D01*
X61330340Y-52099600D01*
X61043442Y-52156668D01*
X60773189Y-52268610D01*
X60529968Y-52431125D01*
X60323125Y-52637968D01*
X60206600Y-52812360D01*
X60090075Y-52637968D01*
X59883232Y-52431125D01*
X59640011Y-52268610D01*
X59369758Y-52156668D01*
X59082860Y-52099600D01*
X58790340Y-52099600D01*
X58503442Y-52156668D01*
X58233189Y-52268610D01*
X57989968Y-52431125D01*
X57783125Y-52637968D01*
X57620610Y-52881189D01*
X57508668Y-53151442D01*
X57451600Y-53438340D01*
X53799497Y-53438340D01*
X53784178Y-53272062D01*
X53569452Y-52547792D01*
X53217555Y-51879330D01*
X53190548Y-51838912D01*
X52700881Y-51478724D01*
X50179605Y-54000000D01*
X49820395Y-54000000D01*
X47299119Y-51478724D01*
X46809452Y-51838912D01*
X46449151Y-52502882D01*
X46225306Y-53224385D01*
X46146520Y-53975695D01*
X45664792Y-53975695D01*
X45731173Y-53231917D01*
X45934656Y-52488109D01*
X46266638Y-51792095D01*
X46620876Y-51299119D01*
X47478724Y-51299119D01*
X50000000Y-53820395D01*
X52521276Y-51299119D01*
X52161088Y-50809452D01*
X51497118Y-50449151D01*
X50775615Y-50225306D01*
X50024305Y-50146520D01*
X49272062Y-50215822D01*
X48547792Y-50430548D01*
X47879330Y-50782445D01*
X47838912Y-50809452D01*
X47478724Y-51299119D01*
X46620876Y-51299119D01*
X46716626Y-51165870D01*
X47270403Y-50629223D01*
X47910451Y-50199129D01*
X48616553Y-49889171D01*
X49371457Y-49707935D01*
X50024207Y-49660000D01*
X134970608Y-49660000D01*
X135768083Y-49731173D01*
M02*
