M48
; DRILL file {KiCad 5.1.5+dfsg1-2build2} date Tue 08 Mar 2022 08:12:55 PM MST
; FORMAT={-:-/ absolute / metric / decimal}
; #@! TF.CreationDate,2022-03-08T20:12:55-07:00
; #@! TF.GenerationSoftware,Kicad,Pcbnew,5.1.5+dfsg1-2build2
; #@! TF.FileFunction,Plated,1,4,PTH
FMAT,2
METRIC
T1C0.400
T2C0.500
T3C0.650
T4C0.700
T5C0.750
T6C1.000
T7C1.300
T8C3.200
%
G90
G05
T1
X52.197Y-75.489
X52.197Y-80.569
X60.325Y-67.818
X60.325Y-68.834
X60.96Y-65.913
X61.468Y-70.421
X61.512Y-81.245
X63.754Y-65.913
X64.516Y-70.866
X64.694Y-87.071
X64.751Y-77.337
X64.821Y-88.697
X65.405Y-69.215
X66.511Y-54.908
X66.523Y-85.84
X66.624Y-87.02
X66.827Y-83.795
X67.054Y-66.517
X67.1Y-80.13
X67.118Y-70.2
X67.335Y-55.702
X67.716Y-84.34
X68.751Y-79.368
X69.342Y-72.746
X69.418Y-88.621
X69.45Y-75.05
X70.231Y-78.994
X70.427Y-73.158
X70.465Y-75.622
X71.481Y-72.129
X71.481Y-72.955
X71.654Y-54.845
X71.832Y-83.643
X71.991Y-84.631
X72.078Y-70.085
X72.492Y-87.757
X72.542Y-89.56
X72.568Y-90.754
X72.812Y-69.113
X72.891Y-70.11
X73.285Y-87.09
X73.33Y-81.407
X73.355Y-79.832
X73.482Y-77.851
X73.736Y-74.6
X73.806Y-69.577
X74.447Y-92.634
X74.555Y-87.154
X74.6Y-93.802
X75.184Y-81.343
X75.569Y-69.247
X75.705Y-88.374
X76.72Y-87.046
X76.969Y-82.672
X77.495Y-88.036
X78.069Y-67.081
X78.126Y-68.383
X78.22Y-71.399
X78.359Y-100.736
X78.359Y-105.131
X78.435Y-74.295
X78.461Y-82.677
X78.689Y-87.833
X79.092Y-85.692
X79.146Y-86.69
X79.461Y-82.677
X79.629Y-98.146
X79.72Y-52.232
X80.442Y-98.171
X80.46Y-88.83
X80.467Y-114.859
X81.121Y-69.983
X81.128Y-71.044
X81.407Y-106.172
X81.839Y-86.817
X81.864Y-88.062
X81.94Y-79.375
X81.959Y-75.812
X82.194Y-98.12
X82.257Y-117.983
X82.26Y-52.232
X82.804Y-70.708
X83.007Y-98.12
X83.16Y-67.531
X83.229Y-86.163
X83.292Y-84.829
X83.53Y-52.232
X83.607Y-95.209
X83.922Y-62.281
X84.772Y-83.629
X84.8Y-52.232
X85.007Y-73.907
X85.09Y-62.179
X85.769Y-75.647
X85.852Y-84.328
X86.843Y-124.003
X87.732Y-96.461
X87.732Y-106.604
X91.999Y-65.71
X92.405Y-96.063
X92.405Y-106.527
X93.11Y-56.877
X93.11Y-57.715
X93.878Y-79.375
X93.929Y-106.578
X93.98Y-86.97
X93.983Y-91.869
X94.015Y-97.933
X95.199Y-106.553
X95.275Y-83.795
X95.275Y-94.59
X95.298Y-99.215
X96.52Y-106.578
X96.571Y-86.385
X96.596Y-94.691
X96.596Y-99.568
X98.476Y-103.226
X98.545Y-56.826
X98.545Y-57.664
X98.654Y-100.559
X100.965Y-118.897
X102.286Y-120.879
X106.375Y-100.686
X106.731Y-95.021
X107.228Y-88.394
X107.594Y-96.876
X108.054Y-88.394
X108.344Y-93.98
X108.382Y-86.436
X108.534Y-85.623
X114.91Y-88.875
X114.91Y-89.713
X114.91Y-90.551
X114.932Y-96.461
X115.595Y-88.316
X117.018Y-85.801
X117.018Y-88.24
X117.678Y-87.782
X117.704Y-86.233
X117.729Y-98.501
X117.729Y-106.782
X117.932Y-110.134
X118.542Y-98.501
X120.269Y-98.247
X120.345Y-106.527
X121.082Y-98.247
X121.194Y-88.074
X121.463Y-110.16
X122.019Y-88.074
X124.143Y-76.242
X124.435Y-84.633
X124.435Y-85.446
X127.861Y-88.899
X128.687Y-88.899
X129.512Y-88.899
X134.113Y-76.623
T2
X132.6Y-54.0
X133.303Y-52.303
X133.303Y-55.697
X135.0Y-51.6
X135.0Y-56.4
X136.697Y-52.303
X136.697Y-55.697
X137.4Y-54.0
X132.6Y-129.0
X133.303Y-127.303
X133.303Y-130.697
X135.0Y-126.6
X135.0Y-131.4
X136.697Y-127.303
X136.697Y-130.697
X137.4Y-129.0
X47.6Y-54.0
X48.303Y-52.303
X48.303Y-55.697
X50.0Y-51.6
X50.0Y-56.4
X51.697Y-52.303
X51.697Y-55.697
X52.4Y-54.0
X47.6Y-129.0
X48.303Y-127.303
X48.303Y-130.697
X50.0Y-126.6
X50.0Y-131.4
X51.697Y-127.303
X51.697Y-130.697
X52.4Y-129.0
T5
X115.521Y-127.043
X117.521Y-127.043
X119.521Y-127.043
X121.521Y-127.043
X123.521Y-127.043
X125.521Y-127.043
X77.434Y-127.031
X79.434Y-127.031
X81.434Y-127.031
X83.434Y-127.031
X85.434Y-127.031
X87.434Y-127.031
X59.298Y-126.967
X61.298Y-126.967
X63.298Y-126.967
X65.298Y-126.967
X67.298Y-126.967
X69.298Y-126.967
X97.398Y-127.043
X99.398Y-127.043
X101.398Y-127.043
X103.398Y-127.043
X105.398Y-127.043
X107.398Y-127.043
T6
X61.864Y-102.367
X64.404Y-102.367
X66.944Y-102.367
X66.944Y-117.607
X69.484Y-102.367
X69.484Y-117.607
X72.024Y-102.367
X72.024Y-117.607
X74.564Y-102.367
X74.564Y-117.607
X77.104Y-102.367
X77.104Y-117.607
X79.644Y-102.367
X79.644Y-117.607
X82.184Y-102.367
X84.724Y-102.367
X94.532Y-60.636
X94.532Y-63.176
X94.532Y-65.716
X94.532Y-68.256
X97.072Y-60.636
X97.072Y-63.176
X97.072Y-65.716
X97.072Y-68.256
X58.937Y-53.585
X61.477Y-53.585
X64.017Y-53.585
X66.557Y-53.585
X69.097Y-53.585
X71.637Y-53.585
X50.622Y-75.489
X50.622Y-78.029
X50.622Y-80.569
X50.673Y-88.138
X50.673Y-90.678
X50.673Y-93.218
X99.951Y-102.405
X102.491Y-102.405
X105.031Y-102.405
X105.031Y-117.645
X107.571Y-102.405
X107.571Y-117.645
X110.111Y-102.405
X110.111Y-117.645
X112.651Y-102.405
X112.651Y-117.645
X115.191Y-102.405
X115.191Y-117.645
X117.731Y-102.405
X117.731Y-117.645
X120.271Y-102.405
X122.811Y-102.405
X116.281Y-87.02
X116.281Y-89.56
X116.281Y-92.1
T7
X133.894Y-89.932
X133.894Y-94.932
T8
X135.0Y-54.0
X135.0Y-129.0
X50.0Y-54.0
X50.0Y-129.0
T3
X135.501Y-75.485G85X135.101Y-75.485
G05
X135.501Y-80.325G85X135.101Y-80.325
G05
T4
X138.551Y-75.175G85X138.051Y-75.175
G05
X138.551Y-80.635G85X138.051Y-80.635
G05
T0
M30
