%FSLAX45Y45*%
G04 Gerber Fmt 4.5, Leading zero omitted, Abs format (unit mm)*
G04 Created by KiCad (PCBNEW 5.1.5+dfsg1-2build2) date 2022-03-08 20:12:54*
%MOMM*%
%LPD*%
G04 APERTURE LIST*
%TA.AperFunction,Profile*%
%ADD10C,0.050000*%
%TD*%
%ADD11C,0.200000*%
%ADD12C,0.300000*%
G04 APERTURE END LIST*
D10*
X13500000Y-4900000D02*
G75*
G02X14000000Y-5400000I0J-500000D01*
G01*
X4500000Y-5400000D02*
G75*
G02X5000000Y-4900000I500000J0D01*
G01*
X5000000Y-13400000D02*
G75*
G02X4500000Y-12900000I0J500000D01*
G01*
X14000000Y-12900000D02*
G75*
G02X13500000Y-13400000I-500000J0D01*
G01*
X13500000Y-13400000D02*
X5000000Y-13400000D01*
X14000000Y-12900000D02*
X14000000Y-5400000D01*
X13500000Y-4900000D02*
X5000000Y-4900000D01*
X4500000Y-5400000D02*
X4500000Y-12900000D01*
D11*
X10507600Y-6233100D02*
X10777600Y-6503100D01*
X10777600Y-6233100D02*
X10507600Y-6503100D01*
X12565000Y-6233100D02*
X12835000Y-6503100D01*
X12835000Y-6233100D02*
X12565000Y-6503100D01*
D12*
X4783928Y-13868214D02*
X4783928Y-13568214D01*
X4855357Y-13568214D01*
X4898214Y-13582500D01*
X4926786Y-13611071D01*
X4941071Y-13639643D01*
X4955357Y-13696786D01*
X4955357Y-13739643D01*
X4941071Y-13796786D01*
X4926786Y-13825357D01*
X4898214Y-13853929D01*
X4855357Y-13868214D01*
X4783928Y-13868214D01*
X5083928Y-13868214D02*
X5083928Y-13668214D01*
X5083928Y-13725357D02*
X5098214Y-13696786D01*
X5112500Y-13682500D01*
X5141071Y-13668214D01*
X5169643Y-13668214D01*
X5269643Y-13868214D02*
X5269643Y-13668214D01*
X5269643Y-13568214D02*
X5255357Y-13582500D01*
X5269643Y-13596786D01*
X5283928Y-13582500D01*
X5269643Y-13568214D01*
X5269643Y-13596786D01*
X5455357Y-13868214D02*
X5426786Y-13853929D01*
X5412500Y-13825357D01*
X5412500Y-13568214D01*
X5612500Y-13868214D02*
X5583928Y-13853929D01*
X5569643Y-13825357D01*
X5569643Y-13568214D01*
X5955357Y-13868214D02*
X5955357Y-13568214D01*
X6055357Y-13782500D01*
X6155357Y-13568214D01*
X6155357Y-13868214D01*
X6426786Y-13868214D02*
X6426786Y-13711071D01*
X6412500Y-13682500D01*
X6383928Y-13668214D01*
X6326786Y-13668214D01*
X6298214Y-13682500D01*
X6426786Y-13853929D02*
X6398214Y-13868214D01*
X6326786Y-13868214D01*
X6298214Y-13853929D01*
X6283928Y-13825357D01*
X6283928Y-13796786D01*
X6298214Y-13768214D01*
X6326786Y-13753929D01*
X6398214Y-13753929D01*
X6426786Y-13739643D01*
X6569643Y-13668214D02*
X6569643Y-13968214D01*
X6569643Y-13682500D02*
X6598214Y-13668214D01*
X6655357Y-13668214D01*
X6683928Y-13682500D01*
X6698214Y-13696786D01*
X6712500Y-13725357D01*
X6712500Y-13811071D01*
X6698214Y-13839643D01*
X6683928Y-13853929D01*
X6655357Y-13868214D01*
X6598214Y-13868214D01*
X6569643Y-13853929D01*
X6841071Y-13839643D02*
X6855357Y-13853929D01*
X6841071Y-13868214D01*
X6826786Y-13853929D01*
X6841071Y-13839643D01*
X6841071Y-13868214D01*
X6841071Y-13682500D02*
X6855357Y-13696786D01*
X6841071Y-13711071D01*
X6826786Y-13696786D01*
X6841071Y-13682500D01*
X6841071Y-13711071D01*
X4227500Y-14227500D02*
X4497500Y-14497500D01*
X4497500Y-14227500D02*
X4227500Y-14497500D01*
X4769643Y-14226786D02*
X4783928Y-14212500D01*
X4812500Y-14198214D01*
X4883928Y-14198214D01*
X4912500Y-14212500D01*
X4926786Y-14226786D01*
X4941071Y-14255357D01*
X4941071Y-14283929D01*
X4926786Y-14326786D01*
X4755357Y-14498214D01*
X4941071Y-14498214D01*
X5069643Y-14469643D02*
X5083928Y-14483929D01*
X5069643Y-14498214D01*
X5055357Y-14483929D01*
X5069643Y-14469643D01*
X5069643Y-14498214D01*
X5183928Y-14198214D02*
X5383928Y-14198214D01*
X5255357Y-14498214D01*
X5555357Y-14198214D02*
X5583928Y-14198214D01*
X5612500Y-14212500D01*
X5626786Y-14226786D01*
X5641071Y-14255357D01*
X5655357Y-14312500D01*
X5655357Y-14383929D01*
X5641071Y-14441071D01*
X5626786Y-14469643D01*
X5612500Y-14483929D01*
X5583928Y-14498214D01*
X5555357Y-14498214D01*
X5526786Y-14483929D01*
X5512500Y-14469643D01*
X5498214Y-14441071D01*
X5483928Y-14383929D01*
X5483928Y-14312500D01*
X5498214Y-14255357D01*
X5512500Y-14226786D01*
X5526786Y-14212500D01*
X5555357Y-14198214D01*
X5783928Y-14498214D02*
X5783928Y-14298214D01*
X5783928Y-14326786D02*
X5798214Y-14312500D01*
X5826786Y-14298214D01*
X5869643Y-14298214D01*
X5898214Y-14312500D01*
X5912500Y-14341071D01*
X5912500Y-14498214D01*
X5912500Y-14341071D02*
X5926786Y-14312500D01*
X5955357Y-14298214D01*
X5998214Y-14298214D01*
X6026786Y-14312500D01*
X6041071Y-14341071D01*
X6041071Y-14498214D01*
X6183928Y-14498214D02*
X6183928Y-14298214D01*
X6183928Y-14326786D02*
X6198214Y-14312500D01*
X6226786Y-14298214D01*
X6269643Y-14298214D01*
X6298214Y-14312500D01*
X6312500Y-14341071D01*
X6312500Y-14498214D01*
X6312500Y-14341071D02*
X6326786Y-14312500D01*
X6355357Y-14298214D01*
X6398214Y-14298214D01*
X6426786Y-14312500D01*
X6441071Y-14341071D01*
X6441071Y-14498214D01*
X7026786Y-14183929D02*
X6769643Y-14569643D01*
X7412500Y-14198214D02*
X7441071Y-14198214D01*
X7469643Y-14212500D01*
X7483928Y-14226786D01*
X7498214Y-14255357D01*
X7512500Y-14312500D01*
X7512500Y-14383929D01*
X7498214Y-14441071D01*
X7483928Y-14469643D01*
X7469643Y-14483929D01*
X7441071Y-14498214D01*
X7412500Y-14498214D01*
X7383928Y-14483929D01*
X7369643Y-14469643D01*
X7355357Y-14441071D01*
X7341071Y-14383929D01*
X7341071Y-14312500D01*
X7355357Y-14255357D01*
X7369643Y-14226786D01*
X7383928Y-14212500D01*
X7412500Y-14198214D01*
X7641071Y-14469643D02*
X7655357Y-14483929D01*
X7641071Y-14498214D01*
X7626786Y-14483929D01*
X7641071Y-14469643D01*
X7641071Y-14498214D01*
X7941071Y-14498214D02*
X7769643Y-14498214D01*
X7855357Y-14498214D02*
X7855357Y-14198214D01*
X7826786Y-14241071D01*
X7798214Y-14269643D01*
X7769643Y-14283929D01*
X8126786Y-14198214D02*
X8155357Y-14198214D01*
X8183928Y-14212500D01*
X8198214Y-14226786D01*
X8212500Y-14255357D01*
X8226786Y-14312500D01*
X8226786Y-14383929D01*
X8212500Y-14441071D01*
X8198214Y-14469643D01*
X8183928Y-14483929D01*
X8155357Y-14498214D01*
X8126786Y-14498214D01*
X8098214Y-14483929D01*
X8083928Y-14469643D01*
X8069643Y-14441071D01*
X8055357Y-14383929D01*
X8055357Y-14312500D01*
X8069643Y-14255357D01*
X8083928Y-14226786D01*
X8098214Y-14212500D01*
X8126786Y-14198214D01*
X8483928Y-14198214D02*
X8426786Y-14198214D01*
X8398214Y-14212500D01*
X8383928Y-14226786D01*
X8355357Y-14269643D01*
X8341071Y-14326786D01*
X8341071Y-14441071D01*
X8355357Y-14469643D01*
X8369643Y-14483929D01*
X8398214Y-14498214D01*
X8455357Y-14498214D01*
X8483928Y-14483929D01*
X8498214Y-14469643D01*
X8512500Y-14441071D01*
X8512500Y-14369643D01*
X8498214Y-14341071D01*
X8483928Y-14326786D01*
X8455357Y-14312500D01*
X8398214Y-14312500D01*
X8369643Y-14326786D01*
X8355357Y-14341071D01*
X8341071Y-14369643D01*
X8626786Y-14198214D02*
X8626786Y-14255357D01*
X8741071Y-14198214D02*
X8741071Y-14255357D01*
X9183928Y-14612500D02*
X9169643Y-14598214D01*
X9141071Y-14555357D01*
X9126786Y-14526786D01*
X9112500Y-14483929D01*
X9098214Y-14412500D01*
X9098214Y-14355357D01*
X9112500Y-14283929D01*
X9126786Y-14241071D01*
X9141071Y-14212500D01*
X9169643Y-14169643D01*
X9183928Y-14155357D01*
X9283928Y-14226786D02*
X9298214Y-14212500D01*
X9326786Y-14198214D01*
X9398214Y-14198214D01*
X9426786Y-14212500D01*
X9441071Y-14226786D01*
X9455357Y-14255357D01*
X9455357Y-14283929D01*
X9441071Y-14326786D01*
X9269643Y-14498214D01*
X9455357Y-14498214D01*
X9812500Y-14498214D02*
X9812500Y-14198214D01*
X9941071Y-14498214D02*
X9941071Y-14341071D01*
X9926786Y-14312500D01*
X9898214Y-14298214D01*
X9855357Y-14298214D01*
X9826786Y-14312500D01*
X9812500Y-14326786D01*
X10126786Y-14498214D02*
X10098214Y-14483929D01*
X10083928Y-14469643D01*
X10069643Y-14441071D01*
X10069643Y-14355357D01*
X10083928Y-14326786D01*
X10098214Y-14312500D01*
X10126786Y-14298214D01*
X10169643Y-14298214D01*
X10198214Y-14312500D01*
X10212500Y-14326786D01*
X10226786Y-14355357D01*
X10226786Y-14441071D01*
X10212500Y-14469643D01*
X10198214Y-14483929D01*
X10169643Y-14498214D01*
X10126786Y-14498214D01*
X10398214Y-14498214D02*
X10369643Y-14483929D01*
X10355357Y-14455357D01*
X10355357Y-14198214D01*
X10626786Y-14483929D02*
X10598214Y-14498214D01*
X10541071Y-14498214D01*
X10512500Y-14483929D01*
X10498214Y-14455357D01*
X10498214Y-14341071D01*
X10512500Y-14312500D01*
X10541071Y-14298214D01*
X10598214Y-14298214D01*
X10626786Y-14312500D01*
X10641071Y-14341071D01*
X10641071Y-14369643D01*
X10498214Y-14398214D01*
X10755357Y-14483929D02*
X10783928Y-14498214D01*
X10841071Y-14498214D01*
X10869643Y-14483929D01*
X10883928Y-14455357D01*
X10883928Y-14441071D01*
X10869643Y-14412500D01*
X10841071Y-14398214D01*
X10798214Y-14398214D01*
X10769643Y-14383929D01*
X10755357Y-14355357D01*
X10755357Y-14341071D01*
X10769643Y-14312500D01*
X10798214Y-14298214D01*
X10841071Y-14298214D01*
X10869643Y-14312500D01*
X10983928Y-14612500D02*
X10998214Y-14598214D01*
X11026786Y-14555357D01*
X11041071Y-14526786D01*
X11055357Y-14483929D01*
X11069643Y-14412500D01*
X11069643Y-14355357D01*
X11055357Y-14283929D01*
X11041071Y-14241071D01*
X11026786Y-14212500D01*
X10998214Y-14169643D01*
X10983928Y-14155357D01*
X11526786Y-14612500D02*
X11512500Y-14598214D01*
X11483928Y-14555357D01*
X11469643Y-14526786D01*
X11455357Y-14483929D01*
X11441071Y-14412500D01*
X11441071Y-14355357D01*
X11455357Y-14283929D01*
X11469643Y-14241071D01*
X11483928Y-14212500D01*
X11512500Y-14169643D01*
X11526786Y-14155357D01*
X11641071Y-14298214D02*
X11641071Y-14498214D01*
X11641071Y-14326786D02*
X11655357Y-14312500D01*
X11683928Y-14298214D01*
X11726786Y-14298214D01*
X11755357Y-14312500D01*
X11769643Y-14341071D01*
X11769643Y-14498214D01*
X11955357Y-14498214D02*
X11926786Y-14483929D01*
X11912500Y-14469643D01*
X11898214Y-14441071D01*
X11898214Y-14355357D01*
X11912500Y-14326786D01*
X11926786Y-14312500D01*
X11955357Y-14298214D01*
X11998214Y-14298214D01*
X12026786Y-14312500D01*
X12041071Y-14326786D01*
X12055357Y-14355357D01*
X12055357Y-14441071D01*
X12041071Y-14469643D01*
X12026786Y-14483929D01*
X11998214Y-14498214D01*
X11955357Y-14498214D01*
X12141071Y-14298214D02*
X12255357Y-14298214D01*
X12183928Y-14198214D02*
X12183928Y-14455357D01*
X12198214Y-14483929D01*
X12226786Y-14498214D01*
X12255357Y-14498214D01*
X12583928Y-14298214D02*
X12583928Y-14598214D01*
X12583928Y-14312500D02*
X12612500Y-14298214D01*
X12669643Y-14298214D01*
X12698214Y-14312500D01*
X12712500Y-14326786D01*
X12726786Y-14355357D01*
X12726786Y-14441071D01*
X12712500Y-14469643D01*
X12698214Y-14483929D01*
X12669643Y-14498214D01*
X12612500Y-14498214D01*
X12583928Y-14483929D01*
X12898214Y-14498214D02*
X12869643Y-14483929D01*
X12855357Y-14455357D01*
X12855357Y-14198214D01*
X13141071Y-14498214D02*
X13141071Y-14341071D01*
X13126786Y-14312500D01*
X13098214Y-14298214D01*
X13041071Y-14298214D01*
X13012500Y-14312500D01*
X13141071Y-14483929D02*
X13112500Y-14498214D01*
X13041071Y-14498214D01*
X13012500Y-14483929D01*
X12998214Y-14455357D01*
X12998214Y-14426786D01*
X13012500Y-14398214D01*
X13041071Y-14383929D01*
X13112500Y-14383929D01*
X13141071Y-14369643D01*
X13241071Y-14298214D02*
X13355357Y-14298214D01*
X13283928Y-14198214D02*
X13283928Y-14455357D01*
X13298214Y-14483929D01*
X13326786Y-14498214D01*
X13355357Y-14498214D01*
X13569643Y-14483929D02*
X13541071Y-14498214D01*
X13483928Y-14498214D01*
X13455357Y-14483929D01*
X13441071Y-14455357D01*
X13441071Y-14341071D01*
X13455357Y-14312500D01*
X13483928Y-14298214D01*
X13541071Y-14298214D01*
X13569643Y-14312500D01*
X13583928Y-14341071D01*
X13583928Y-14369643D01*
X13441071Y-14398214D01*
X13841071Y-14498214D02*
X13841071Y-14198214D01*
X13841071Y-14483929D02*
X13812500Y-14498214D01*
X13755357Y-14498214D01*
X13726786Y-14483929D01*
X13712500Y-14469643D01*
X13698214Y-14441071D01*
X13698214Y-14355357D01*
X13712500Y-14326786D01*
X13726786Y-14312500D01*
X13755357Y-14298214D01*
X13812500Y-14298214D01*
X13841071Y-14312500D01*
X13955357Y-14612500D02*
X13969643Y-14598214D01*
X13998214Y-14555357D01*
X14012500Y-14526786D01*
X14026786Y-14483929D01*
X14041071Y-14412500D01*
X14041071Y-14355357D01*
X14026786Y-14283929D01*
X14012500Y-14241071D01*
X13998214Y-14212500D01*
X13969643Y-14169643D01*
X13955357Y-14155357D01*
M02*
